<?xml version="1.0" encoding="UTF-8"?>
<svg xmlns="http://www.w3.org/2000/svg" xmlns:xlink="http://www.w3.org/1999/xlink" width="40px" height="40px" viewBox="0 0 40 40" version="1.1">
<g id="surface1">
<path style=" stroke:none;fill-rule:nonzero;fill:rgb(5.490196%,45.490196%,100%);fill-opacity:1;" d="M 19.453125 39.875 C 19.398438 39.867188 19.324219 39.84375 19.285156 39.816406 C 19.246094 39.792969 19.171875 39.761719 19.121094 39.753906 C 19.066406 39.738281 18.90625 39.664062 18.761719 39.578125 C 18.523438 39.441406 17.789062 38.714844 9.558594 30.488281 C 4.640625 25.574219 0.566406 21.476562 0.507812 21.390625 C 0.449219 21.304688 0.398438 21.214844 0.398438 21.203125 C 0.398438 21.1875 0.375 21.140625 0.335938 21.097656 C 0.304688 21.054688 0.261719 20.964844 0.25 20.898438 C 0.238281 20.835938 0.203125 20.746094 0.171875 20.699219 C 0.0898438 20.578125 0.0898438 19.421875 0.171875 19.300781 C 0.203125 19.253906 0.238281 19.164062 0.25 19.101562 C 0.261719 19.035156 0.304688 18.945312 0.335938 18.902344 C 0.375 18.859375 0.398438 18.8125 0.398438 18.796875 C 0.398438 18.683594 1.25 17.816406 6.101562 12.972656 C 16.453125 2.636719 18.550781 0.550781 18.667969 0.484375 C 18.730469 0.449219 18.824219 0.402344 18.871094 0.378906 C 18.921875 0.355469 18.96875 0.324219 18.980469 0.304688 C 18.992188 0.285156 19.035156 0.265625 19.078125 0.265625 C 19.117188 0.265625 19.210938 0.234375 19.285156 0.195312 C 19.40625 0.128906 19.464844 0.125 20.039062 0.125 C 20.617188 0.125 20.671875 0.128906 20.777344 0.195312 C 20.839844 0.234375 20.921875 0.265625 20.953125 0.269531 C 21.054688 0.273438 21.410156 0.492188 21.632812 0.683594 C 22.097656 1.085938 29.265625 8.308594 29.34375 8.449219 C 29.492188 8.738281 29.601562 8.96875 29.601562 9.023438 C 29.601562 9.058594 29.625 9.15625 29.648438 9.246094 C 29.761719 9.605469 29.671875 10.210938 29.441406 10.660156 C 29.300781 10.949219 28.851562 11.433594 28.652344 11.515625 C 28.589844 11.542969 28.53125 11.578125 28.519531 11.597656 C 28.507812 11.613281 28.449219 11.640625 28.390625 11.648438 C 28.332031 11.664062 28.238281 11.695312 28.1875 11.722656 C 27.960938 11.839844 27.097656 11.835938 26.816406 11.714844 C 26.558594 11.605469 26.382812 11.519531 26.285156 11.449219 C 26.234375 11.414062 24.890625 10.09375 23.304688 8.511719 C 21.714844 6.933594 20.375 5.609375 20.320312 5.574219 C 20.246094 5.515625 20.175781 5.5 20.019531 5.5 L 19.816406 5.5 L 12.738281 12.578125 C 8.613281 16.703125 5.636719 19.703125 5.601562 19.777344 C 5.511719 19.941406 5.515625 20.03125 5.605469 20.207031 C 5.65625 20.304688 7.972656 22.636719 12.6875 27.34375 C 18.507812 33.15625 19.714844 34.351562 19.863281 34.421875 L 20.035156 34.503906 L 20.191406 34.425781 C 20.3125 34.371094 21.042969 33.65625 23.203125 31.496094 C 25.191406 29.515625 26.128906 28.597656 26.289062 28.488281 C 26.417969 28.402344 26.535156 28.332031 26.550781 28.332031 C 26.5625 28.332031 26.636719 28.308594 26.714844 28.269531 C 27.027344 28.125 27.59375 28.066406 27.867188 28.148438 C 27.964844 28.175781 28.09375 28.199219 28.148438 28.199219 C 28.210938 28.199219 28.296875 28.230469 28.34375 28.265625 C 28.390625 28.304688 28.457031 28.332031 28.492188 28.332031 C 28.527344 28.332031 28.582031 28.363281 28.617188 28.398438 C 28.648438 28.4375 28.691406 28.464844 28.710938 28.464844 C 28.761719 28.464844 29.148438 28.804688 29.238281 28.925781 C 29.28125 28.988281 29.351562 29.078125 29.386719 29.125 C 29.425781 29.175781 29.46875 29.253906 29.484375 29.300781 C 29.496094 29.347656 29.527344 29.40625 29.550781 29.433594 C 29.574219 29.460938 29.601562 29.550781 29.613281 29.628906 C 29.625 29.710938 29.65625 29.816406 29.683594 29.871094 C 29.753906 30.003906 29.753906 30.648438 29.683594 30.78125 C 29.65625 30.832031 29.625 30.9375 29.613281 31.011719 C 29.601562 31.085938 29.574219 31.171875 29.550781 31.199219 C 29.53125 31.226562 29.476562 31.324219 29.433594 31.414062 C 29.390625 31.507812 29.261719 31.675781 29.152344 31.792969 C 28.613281 32.363281 21.625 39.3125 21.464844 39.441406 C 21.277344 39.589844 21.121094 39.671875 20.785156 39.804688 C 20.605469 39.875 20.523438 39.882812 20.066406 39.886719 C 19.785156 39.890625 19.507812 39.886719 19.453125 39.875 Z M 20.597656 39.695312 C 21.238281 39.492188 21.140625 39.582031 25.351562 35.359375 L 29.183594 31.515625 L 29.328125 31.222656 C 29.421875 31.027344 29.488281 30.828125 29.53125 30.621094 C 29.589844 30.316406 29.589844 30.296875 29.53125 30.011719 C 29.457031 29.652344 29.367188 29.441406 29.179688 29.175781 C 28.730469 28.542969 28.027344 28.214844 27.292969 28.300781 C 26.953125 28.339844 26.664062 28.457031 26.335938 28.683594 C 26.308594 28.703125 25.714844 29.285156 25.011719 29.984375 C 24.308594 30.679688 23.011719 31.964844 22.125 32.84375 C 21.238281 33.71875 20.460938 34.476562 20.394531 34.519531 C 20.21875 34.628906 19.851562 34.632812 19.671875 34.527344 C 19.480469 34.410156 5.578125 20.507812 5.484375 20.335938 C 5.371094 20.140625 5.367188 19.828125 5.472656 19.644531 C 5.515625 19.574219 6.6875 18.375 8.078125 16.984375 C 9.46875 15.589844 11.578125 13.46875 12.761719 12.273438 C 13.945312 11.074219 15.386719 9.621094 15.960938 9.042969 C 16.53125 8.464844 17 7.980469 17 7.964844 C 17 7.945312 17.023438 7.933594 17.050781 7.933594 C 17.078125 7.933594 17.101562 7.921875 17.101562 7.90625 C 17.101562 7.890625 17.226562 7.746094 17.382812 7.585938 C 17.539062 7.429688 17.667969 7.285156 17.667969 7.265625 C 17.667969 7.246094 17.628906 7.234375 17.582031 7.234375 C 17.535156 7.234375 17.472656 7.203125 17.441406 7.167969 C 17.394531 7.109375 17.34375 7.101562 17.109375 7.101562 C 16.863281 7.101562 16.828125 7.09375 16.742188 7.011719 C 16.65625 6.933594 16.640625 6.929688 16.417969 6.949219 C 16.191406 6.972656 16.171875 6.964844 16.078125 6.886719 C 15.984375 6.808594 15.945312 6.800781 15.6875 6.800781 C 15.4375 6.800781 15.398438 6.792969 15.367188 6.734375 C 15.335938 6.671875 15.296875 6.667969 15.035156 6.667969 C 14.769531 6.667969 14.730469 6.660156 14.691406 6.601562 C 14.652344 6.539062 14.613281 6.535156 14.277344 6.535156 C 13.9375 6.535156 13.898438 6.527344 13.867188 6.464844 C 13.835938 6.40625 13.796875 6.398438 13.535156 6.398438 C 13.371094 6.398438 13.226562 6.382812 13.214844 6.367188 C 13.179688 6.308594 13.058594 6.328125 13.042969 6.398438 C 13.035156 6.4375 13.007812 6.464844 12.980469 6.464844 C 12.957031 6.464844 12.921875 6.496094 12.898438 6.535156 C 12.878906 6.570312 12.851562 6.601562 12.835938 6.601562 C 12.820312 6.601562 12.492188 6.90625 12.109375 7.285156 C 9.433594 9.921875 7.535156 11.808594 4.347656 14.980469 C 1.046875 18.265625 0.6875 18.632812 0.554688 18.867188 C 0.46875 19.011719 0.394531 19.167969 0.378906 19.21875 C 0.371094 19.273438 0.332031 19.351562 0.308594 19.398438 C 0.265625 19.464844 0.25 19.597656 0.238281 19.9375 C 0.226562 20.34375 0.234375 20.40625 0.296875 20.550781 C 0.335938 20.636719 0.367188 20.730469 0.367188 20.753906 C 0.367188 20.808594 0.503906 21.070312 0.648438 21.292969 C 0.726562 21.421875 18.363281 39.066406 18.617188 39.277344 C 18.753906 39.386719 19.191406 39.632812 19.261719 39.636719 C 19.292969 39.636719 19.382812 39.667969 19.464844 39.699219 C 19.691406 39.792969 20.300781 39.792969 20.597656 39.695312 Z M 26.46875 10.796875 C 26.550781 10.722656 26.601562 10.648438 26.601562 10.597656 C 26.601562 10.546875 26.652344 10.464844 26.75 10.375 C 26.839844 10.285156 26.898438 10.199219 26.898438 10.15625 C 26.898438 10.113281 26.929688 10.058594 26.964844 10.023438 C 27.003906 9.992188 27.035156 9.933594 27.035156 9.890625 C 27.035156 9.84375 27.085938 9.761719 27.167969 9.683594 C 27.238281 9.609375 27.300781 9.519531 27.300781 9.484375 C 27.300781 9.441406 27.328125 9.382812 27.367188 9.351562 C 27.402344 9.316406 27.433594 9.257812 27.433594 9.214844 C 27.433594 9.179688 27.492188 9.089844 27.566406 9.015625 C 27.648438 8.941406 27.699219 8.855469 27.699219 8.808594 C 27.699219 8.765625 27.730469 8.707031 27.765625 8.675781 C 27.804688 8.644531 27.832031 8.585938 27.832031 8.546875 C 27.832031 8.507812 27.898438 8.40625 27.984375 8.324219 C 28.066406 8.238281 28.132812 8.136719 28.132812 8.101562 C 28.132812 8.0625 28.175781 7.992188 28.226562 7.941406 C 28.328125 7.839844 28.332031 7.75 28.230469 7.722656 C 28.191406 7.714844 28.167969 7.675781 28.167969 7.636719 C 28.167969 7.597656 28.148438 7.566406 28.132812 7.566406 C 28.113281 7.566406 28.066406 7.527344 28.023438 7.476562 C 27.886719 7.3125 27.035156 6.429688 26.222656 5.601562 C 25.625 4.996094 25.277344 4.695312 25.058594 4.597656 C 25.015625 4.578125 24.921875 4.527344 24.851562 4.484375 C 24.777344 4.4375 24.679688 4.386719 24.632812 4.367188 C 24.585938 4.347656 24.507812 4.308594 24.449219 4.285156 C 24.226562 4.175781 24.011719 4.09375 23.882812 4.066406 C 23.808594 4.054688 23.660156 4.015625 23.550781 3.988281 C 23.261719 3.910156 22.734375 3.917969 22.464844 4 C 22.351562 4.035156 22.226562 4.066406 22.1875 4.066406 C 22.148438 4.070312 22.058594 4.097656 21.984375 4.132812 C 21.910156 4.171875 21.832031 4.195312 21.808594 4.199219 C 21.761719 4.199219 21.203125 4.492188 21.128906 4.554688 C 21.101562 4.578125 21.066406 4.601562 21.054688 4.601562 C 21.007812 4.601562 20.453125 5.011719 20.234375 5.210938 L 20.058594 5.367188 L 20.207031 5.367188 C 20.308594 5.367188 20.386719 5.390625 20.464844 5.445312 C 20.523438 5.492188 21.195312 6.140625 21.957031 6.890625 C 23.535156 8.441406 23.894531 8.789062 24.929688 9.792969 C 25.339844 10.191406 25.765625 10.605469 25.875 10.714844 C 25.988281 10.828125 26.132812 10.960938 26.199219 11.011719 L 26.316406 11.105469 L 26.328125 11.011719 C 26.332031 10.953125 26.390625 10.871094 26.46875 10.796875 Z M 26.46875 10.796875 "/>
<path style=" stroke:none;fill-rule:nonzero;fill:rgb(5.490196%,45.490196%,100%);fill-opacity:1;" d="M 19.75 39.863281 C 19.585938 39.851562 19.394531 39.820312 19.328125 39.789062 C 19.257812 39.757812 19.179688 39.734375 19.152344 39.734375 C 19.09375 39.734375 18.648438 39.484375 18.515625 39.375 C 18.261719 39.167969 0.625 21.519531 0.546875 21.394531 C 0.402344 21.171875 0.265625 20.90625 0.265625 20.851562 C 0.265625 20.828125 0.238281 20.738281 0.195312 20.648438 C 0.132812 20.507812 0.125 20.441406 0.140625 19.9375 C 0.148438 19.5 0.164062 19.367188 0.203125 19.300781 C 0.234375 19.253906 0.269531 19.171875 0.28125 19.121094 C 0.292969 19.066406 0.371094 18.910156 0.453125 18.765625 C 0.585938 18.535156 0.945312 18.167969 4.246094 14.878906 C 7.433594 11.707031 9.332031 9.824219 12.011719 7.183594 C 12.394531 6.808594 12.71875 6.5 12.738281 6.5 C 12.75 6.5 12.78125 6.46875 12.800781 6.433594 C 12.820312 6.398438 12.855469 6.367188 12.882812 6.367188 C 12.910156 6.367188 12.933594 6.34375 12.933594 6.3125 C 12.933594 6.285156 12.964844 6.253906 12.996094 6.242188 C 13.035156 6.234375 13.066406 6.199219 13.078125 6.164062 C 13.101562 6.070312 13.175781 6.085938 13.261719 6.199219 C 13.332031 6.296875 13.339844 6.300781 13.632812 6.300781 C 13.898438 6.300781 13.9375 6.308594 13.964844 6.367188 C 14 6.425781 14.035156 6.433594 14.375 6.433594 C 14.714844 6.433594 14.753906 6.441406 14.792969 6.5 C 14.828125 6.558594 14.871094 6.566406 15.132812 6.566406 C 15.398438 6.566406 15.4375 6.574219 15.464844 6.632812 C 15.496094 6.691406 15.535156 6.699219 15.789062 6.699219 C 16.042969 6.699219 16.089844 6.710938 16.15625 6.773438 C 16.226562 6.835938 16.265625 6.847656 16.492188 6.835938 C 16.730469 6.828125 16.761719 6.835938 16.84375 6.914062 C 16.925781 6.992188 16.964844 7 17.210938 7 C 17.441406 7 17.492188 7.011719 17.542969 7.066406 C 17.605469 7.140625 17.828125 7.160156 17.890625 7.097656 C 17.941406 7.042969 18.035156 7.082031 18.011719 7.148438 C 18.003906 7.175781 17.972656 7.199219 17.949219 7.199219 C 17.921875 7.199219 17.894531 7.230469 17.882812 7.265625 C 17.875 7.304688 17.839844 7.332031 17.8125 7.332031 C 17.785156 7.332031 17.765625 7.347656 17.765625 7.367188 C 17.765625 7.382812 17.640625 7.53125 17.484375 7.6875 C 17.328125 7.847656 17.199219 7.988281 17.199219 8.007812 C 17.199219 8.019531 17.175781 8.035156 17.148438 8.035156 C 17.125 8.035156 17.101562 8.046875 17.101562 8.0625 C 17.101562 8.078125 16.628906 8.566406 16.058594 9.144531 C 15.488281 9.71875 14.046875 11.171875 12.859375 12.375 C 11.675781 13.570312 9.570312 15.691406 8.175781 17.082031 C 6.785156 18.476562 5.617188 19.671875 5.574219 19.742188 C 5.476562 19.90625 5.480469 20.058594 5.582031 20.238281 C 5.675781 20.40625 19.578125 34.308594 19.769531 34.425781 C 19.933594 34.527344 20.132812 34.523438 20.292969 34.421875 C 20.359375 34.375 21.140625 33.621094 22.023438 32.742188 C 22.910156 31.867188 24.207031 30.578125 24.910156 29.882812 C 25.613281 29.1875 26.210938 28.601562 26.238281 28.582031 C 26.714844 28.246094 27.238281 28.125 27.839844 28.199219 C 28.421875 28.269531 28.925781 28.578125 29.28125 29.078125 C 29.46875 29.34375 29.578125 29.605469 29.648438 30 C 29.707031 30.308594 29.707031 30.324219 29.640625 30.671875 C 29.589844 30.929688 29.53125 31.113281 29.425781 31.324219 L 29.285156 31.617188 L 25.453125 35.460938 C 21.667969 39.257812 21.464844 39.445312 21.050781 39.660156 C 20.699219 39.835938 20.308594 39.898438 19.75 39.863281 Z M 20.5625 39.664062 C 20.929688 39.550781 21.132812 39.4375 21.445312 39.183594 C 21.625 39.039062 28.941406 31.714844 29.074219 31.550781 C 29.199219 31.386719 29.332031 31.183594 29.332031 31.144531 C 29.332031 31.125 29.363281 31.042969 29.398438 30.964844 C 29.578125 30.542969 29.542969 29.945312 29.300781 29.457031 C 29.1875 29.226562 29.105469 29.125 28.882812 28.914062 C 28.632812 28.671875 28.5 28.582031 28.117188 28.417969 C 28.027344 28.375 27.867188 28.351562 27.605469 28.339844 C 27.261719 28.328125 27.210938 28.332031 26.964844 28.417969 C 26.417969 28.601562 26.683594 28.359375 22.976562 32.046875 C 21.632812 33.382812 20.480469 34.511719 20.410156 34.554688 C 20.308594 34.617188 20.238281 34.628906 20.011719 34.632812 C 19.742188 34.632812 19.738281 34.628906 19.578125 34.503906 C 19.34375 34.3125 5.550781 20.535156 5.441406 20.378906 C 5.359375 20.261719 5.351562 20.21875 5.351562 19.984375 C 5.351562 19.75 5.359375 19.703125 5.433594 19.601562 C 5.480469 19.542969 6.621094 18.382812 7.964844 17.03125 C 11.167969 13.816406 12.300781 12.667969 12.300781 12.632812 C 12.300781 12.617188 12.328125 12.59375 12.367188 12.582031 C 12.402344 12.574219 12.433594 12.546875 12.433594 12.527344 C 12.433594 12.507812 12.523438 12.40625 12.632812 12.300781 C 12.742188 12.191406 12.832031 12.09375 12.832031 12.074219 C 12.832031 12.058594 12.863281 12.035156 12.898438 12.023438 C 12.976562 12.003906 12.988281 11.898438 12.921875 11.898438 C 12.894531 11.898438 12.828125 11.863281 12.78125 11.816406 C 12.699219 11.738281 12.664062 11.734375 12.402344 11.734375 C 12.152344 11.734375 12.109375 11.722656 12.074219 11.667969 C 12.035156 11.605469 11.996094 11.601562 11.734375 11.601562 C 11.46875 11.601562 11.429688 11.59375 11.398438 11.535156 C 11.371094 11.472656 11.328125 11.464844 11.070312 11.464844 C 10.820312 11.464844 10.765625 11.457031 10.714844 11.398438 C 10.667969 11.34375 10.613281 11.332031 10.363281 11.332031 C 10.101562 11.332031 10.0625 11.328125 10.035156 11.265625 C 10.003906 11.207031 9.964844 11.199219 9.699219 11.199219 C 9.4375 11.199219 9.398438 11.191406 9.359375 11.132812 C 9.320312 11.074219 9.28125 11.066406 8.941406 11.066406 C 8.730469 11.066406 8.5625 11.054688 8.550781 11.035156 C 8.511719 10.96875 8.398438 10.996094 8.398438 11.066406 C 8.398438 11.109375 8.375 11.132812 8.332031 11.132812 C 8.296875 11.132812 8.265625 11.15625 8.265625 11.183594 C 8.265625 11.214844 8.230469 11.25 8.183594 11.265625 C 8.136719 11.285156 8.101562 11.320312 8.101562 11.347656 C 8.101562 11.371094 8.070312 11.398438 8.035156 11.410156 C 7.996094 11.421875 7.964844 11.449219 7.964844 11.480469 C 7.964844 11.511719 7.949219 11.535156 7.933594 11.535156 C 7.898438 11.535156 7.703125 11.722656 5.550781 13.851562 C 4.484375 14.902344 0.894531 18.480469 0.753906 18.632812 C 0.726562 18.664062 0.6875 18.722656 0.667969 18.765625 C 0.648438 18.8125 0.585938 18.925781 0.527344 19.015625 C 0.46875 19.109375 0.410156 19.238281 0.398438 19.300781 C 0.382812 19.363281 0.347656 19.484375 0.316406 19.566406 C 0.238281 19.769531 0.261719 20.414062 0.34375 20.535156 C 0.375 20.578125 0.398438 20.648438 0.398438 20.6875 C 0.398438 20.757812 0.554688 21.097656 0.601562 21.132812 C 0.613281 21.144531 0.648438 21.203125 0.683594 21.265625 C 0.769531 21.4375 18.503906 39.148438 18.753906 39.316406 C 19.207031 39.621094 19.527344 39.726562 19.996094 39.730469 C 20.261719 39.734375 20.398438 39.714844 20.5625 39.664062 Z M 26.5 11.367188 C 26.5 11.351562 26.523438 11.332031 26.550781 11.332031 C 26.578125 11.332031 26.601562 11.351562 26.601562 11.367188 C 26.601562 11.386719 26.578125 11.398438 26.550781 11.398438 C 26.523438 11.398438 26.5 11.386719 26.5 11.367188 Z M 26.132812 11.140625 C 26.050781 11.074219 25.890625 10.925781 25.777344 10.816406 C 25.667969 10.707031 25.238281 10.292969 24.828125 9.894531 C 23.792969 8.890625 23.4375 8.542969 21.855469 6.988281 C 21.097656 6.238281 20.421875 5.59375 20.363281 5.546875 C 20.285156 5.488281 20.210938 5.464844 20.101562 5.464844 C 19.945312 5.464844 19.773438 5.378906 19.855469 5.347656 C 19.875 5.335938 19.964844 5.261719 20.058594 5.179688 C 20.285156 4.964844 20.902344 4.5 20.957031 4.5 C 20.96875 4.5 21.003906 4.480469 21.03125 4.453125 C 21.101562 4.394531 21.660156 4.101562 21.710938 4.101562 C 21.734375 4.097656 21.808594 4.070312 21.882812 4.035156 C 21.957031 3.996094 22.050781 3.96875 22.085938 3.964844 C 22.125 3.964844 22.253906 3.9375 22.367188 3.898438 C 22.640625 3.8125 23.351562 3.808594 23.648438 3.886719 C 23.761719 3.917969 23.910156 3.953125 23.984375 3.964844 C 24.109375 3.992188 24.328125 4.078125 24.550781 4.183594 C 24.605469 4.210938 24.6875 4.246094 24.734375 4.265625 C 24.78125 4.285156 24.875 4.335938 24.949219 4.382812 C 25.023438 4.425781 25.117188 4.480469 25.160156 4.496094 C 25.375 4.597656 25.722656 4.898438 26.324219 5.503906 C 27.011719 6.207031 27.90625 7.132812 28.125 7.371094 C 28.164062 7.414062 28.21875 7.46875 28.25 7.492188 C 28.277344 7.515625 28.292969 7.550781 28.285156 7.570312 C 28.269531 7.585938 28.304688 7.617188 28.351562 7.632812 C 28.398438 7.652344 28.425781 7.683594 28.417969 7.703125 C 28.402344 7.722656 28.421875 7.746094 28.464844 7.757812 C 28.546875 7.777344 28.554688 7.847656 28.484375 7.90625 C 28.296875 8.066406 28.234375 8.144531 28.234375 8.199219 C 28.234375 8.238281 28.167969 8.335938 28.082031 8.421875 C 28 8.507812 27.933594 8.605469 27.933594 8.648438 C 27.933594 8.6875 27.902344 8.742188 27.867188 8.777344 C 27.828125 8.808594 27.800781 8.867188 27.800781 8.910156 C 27.800781 8.957031 27.746094 9.039062 27.667969 9.117188 C 27.59375 9.191406 27.535156 9.28125 27.535156 9.316406 C 27.535156 9.355469 27.503906 9.417969 27.464844 9.449219 C 27.429688 9.484375 27.398438 9.542969 27.398438 9.582031 C 27.398438 9.621094 27.339844 9.710938 27.265625 9.785156 C 27.1875 9.859375 27.132812 9.941406 27.132812 9.988281 C 27.132812 10.035156 27.101562 10.09375 27.066406 10.125 C 27.03125 10.15625 27 10.214844 27 10.257812 C 27 10.300781 26.941406 10.386719 26.851562 10.472656 C 26.75 10.566406 26.699219 10.648438 26.699219 10.699219 C 26.699219 10.757812 26.652344 10.824219 26.566406 10.898438 C 26.457031 10.996094 26.433594 11.035156 26.433594 11.144531 C 26.433594 11.25 26.421875 11.265625 26.359375 11.265625 C 26.316406 11.261719 26.214844 11.210938 26.132812 11.140625 Z M 22.121094 6.660156 C 22.191406 6.585938 22.234375 6.515625 22.234375 6.460938 C 22.234375 6.402344 22.261719 6.355469 22.300781 6.332031 C 22.339844 6.308594 22.367188 6.261719 22.367188 6.207031 C 22.367188 6.144531 22.40625 6.082031 22.5 6 C 22.59375 5.917969 22.632812 5.855469 22.632812 5.792969 C 22.632812 5.738281 22.660156 5.683594 22.699219 5.660156 C 22.738281 5.632812 22.765625 5.578125 22.765625 5.535156 C 22.765625 5.476562 22.808594 5.40625 22.898438 5.324219 C 22.972656 5.257812 23.035156 5.171875 23.035156 5.132812 C 23.035156 5.09375 23.101562 4.988281 23.183594 4.902344 C 23.265625 4.816406 23.332031 4.714844 23.332031 4.675781 C 23.332031 4.640625 23.363281 4.582031 23.398438 4.550781 C 23.4375 4.515625 23.464844 4.457031 23.464844 4.417969 C 23.464844 4.375 23.503906 4.308594 23.550781 4.265625 C 23.65625 4.164062 23.65625 4.132812 23.535156 4.132812 C 23.484375 4.132812 23.375 4.101562 23.296875 4.066406 C 23.125 3.988281 22.972656 3.984375 22.761719 4.050781 C 22.671875 4.078125 22.511719 4.105469 22.398438 4.121094 C 22.285156 4.132812 22.140625 4.171875 22.074219 4.203125 C 22.007812 4.238281 21.929688 4.265625 21.898438 4.265625 C 21.871094 4.265625 21.820312 4.285156 21.785156 4.3125 C 21.746094 4.335938 21.679688 4.371094 21.632812 4.382812 C 21.585938 4.398438 21.511719 4.4375 21.46875 4.46875 C 21.425781 4.507812 21.375 4.535156 21.347656 4.535156 C 21.257812 4.535156 20.300781 5.234375 20.300781 5.304688 C 20.300781 5.320312 20.335938 5.332031 20.378906 5.332031 C 20.457031 5.332031 20.640625 5.496094 21.441406 6.28125 C 21.605469 6.4375 21.753906 6.566406 21.769531 6.566406 C 21.785156 6.566406 21.800781 6.585938 21.800781 6.609375 C 21.800781 6.640625 21.9375 6.75 21.996094 6.761719 C 22.003906 6.765625 22.058594 6.714844 22.121094 6.660156 Z M 18.035156 7 C 18.035156 6.9375 18.101562 6.910156 18.144531 6.957031 C 18.171875 6.980469 18.105469 7.066406 18.0625 7.066406 C 18.046875 7.066406 18.035156 7.035156 18.035156 7 Z M 18.1875 6.882812 C 18.171875 6.851562 18.191406 6.832031 18.238281 6.832031 C 18.296875 6.832031 18.300781 6.839844 18.265625 6.882812 C 18.242188 6.910156 18.21875 6.933594 18.214844 6.933594 C 18.210938 6.933594 18.199219 6.910156 18.1875 6.882812 Z M 13.207031 6.027344 C 13.230469 5.964844 13.324219 5.957031 13.324219 6.015625 C 13.324219 6.042969 13.292969 6.066406 13.261719 6.066406 C 13.222656 6.066406 13.199219 6.050781 13.207031 6.027344 Z M 13.367188 5.882812 C 13.367188 5.855469 13.390625 5.832031 13.421875 5.832031 C 13.464844 5.832031 13.464844 5.84375 13.433594 5.882812 C 13.410156 5.910156 13.386719 5.933594 13.378906 5.933594 C 13.375 5.933594 13.367188 5.910156 13.367188 5.882812 Z M 13.367188 5.882812 "/>
<path style=" stroke:none;fill-rule:nonzero;fill:rgb(96.470588%,17.647059%,23.921569%);fill-opacity:1;" d="M 31.851562 27.804688 C 31.796875 27.789062 31.714844 27.761719 31.675781 27.738281 C 31.636719 27.714844 31.574219 27.699219 31.535156 27.699219 C 31.421875 27.699219 31.089844 27.511719 30.851562 27.308594 C 30.578125 27.078125 30.335938 26.738281 30.210938 26.398438 C 30.125 26.167969 30.117188 26.117188 30.117188 25.632812 C 30.117188 25.148438 30.125 25.101562 30.207031 24.898438 C 30.402344 24.425781 30.40625 24.417969 32.414062 22.417969 C 33.476562 21.351562 34.382812 20.433594 34.421875 20.375 C 34.535156 20.210938 34.53125 19.929688 34.410156 19.769531 C 34.359375 19.703125 33.492188 18.824219 32.484375 17.8125 C 30.625 15.949219 30.507812 15.828125 30.378906 15.648438 C 30.203125 15.398438 30.035156 14.816406 30.035156 14.460938 C 30.035156 14.289062 30.148438 13.710938 30.195312 13.648438 C 30.214844 13.632812 30.238281 13.578125 30.25 13.539062 C 30.285156 13.421875 30.445312 13.191406 30.644531 12.980469 C 30.886719 12.714844 31.144531 12.554688 31.566406 12.410156 C 31.78125 12.335938 31.875 12.324219 32.214844 12.324219 C 32.5625 12.324219 32.652344 12.335938 32.867188 12.410156 C 33.1875 12.523438 33.324219 12.59375 33.53125 12.757812 C 33.820312 12.988281 39.382812 18.539062 39.488281 18.699219 C 39.597656 18.875 39.695312 19.070312 39.804688 19.332031 C 39.871094 19.496094 39.878906 19.574219 39.878906 20.050781 C 39.882812 20.53125 39.875 20.605469 39.804688 20.800781 C 39.695312 21.101562 39.578125 21.316406 39.402344 21.550781 C 39.164062 21.867188 33.714844 27.308594 33.5 27.441406 C 33.238281 27.609375 33.058594 27.699219 32.988281 27.699219 C 32.957031 27.699219 32.882812 27.722656 32.824219 27.757812 C 32.703125 27.816406 32.027344 27.851562 31.851562 27.804688 Z M 32.648438 27.566406 C 32.855469 27.527344 33.046875 27.445312 33.289062 27.300781 C 33.445312 27.210938 37.355469 23.289062 39.101562 21.484375 C 39.136719 21.441406 39.167969 21.398438 39.167969 21.375 C 39.167969 21.351562 39.191406 21.332031 39.214844 21.332031 C 39.246094 21.332031 39.265625 21.304688 39.265625 21.253906 C 39.265625 21.207031 39.300781 21.148438 39.339844 21.117188 C 39.398438 21.078125 39.410156 21.054688 39.378906 21.007812 C 39.359375 20.976562 39.300781 20.941406 39.246094 20.941406 C 39.191406 20.933594 39.097656 20.875 39.019531 20.796875 C 38.945312 20.726562 38.859375 20.667969 38.828125 20.667969 C 38.789062 20.667969 38.691406 20.601562 38.601562 20.515625 C 38.515625 20.433594 38.414062 20.367188 38.375 20.367188 C 38.34375 20.367188 38.253906 20.308594 38.183594 20.234375 C 38.113281 20.160156 38.023438 20.101562 37.984375 20.101562 C 37.941406 20.101562 37.851562 20.039062 37.785156 19.964844 C 37.710938 19.894531 37.621094 19.832031 37.582031 19.832031 C 37.542969 19.832031 37.484375 19.804688 37.449219 19.765625 C 37.417969 19.730469 37.355469 19.699219 37.320312 19.699219 C 37.28125 19.699219 37.191406 19.640625 37.117188 19.566406 C 37.042969 19.496094 36.949219 19.4375 36.910156 19.433594 C 36.871094 19.433594 36.773438 19.367188 36.691406 19.285156 C 36.605469 19.199219 36.507812 19.132812 36.46875 19.132812 C 36.433594 19.132812 36.339844 19.074219 36.265625 19 C 36.1875 18.921875 36.101562 18.867188 36.054688 18.867188 C 36.011719 18.867188 35.949219 18.835938 35.917969 18.800781 C 35.882812 18.761719 35.824219 18.734375 35.785156 18.734375 C 35.746094 18.734375 35.65625 18.671875 35.585938 18.601562 C 35.511719 18.527344 35.421875 18.464844 35.382812 18.464844 C 35.347656 18.464844 35.253906 18.40625 35.183594 18.332031 C 35.113281 18.261719 35.023438 18.199219 34.984375 18.199219 C 34.945312 18.199219 34.847656 18.132812 34.765625 18.050781 C 34.683594 17.964844 34.589844 17.898438 34.546875 17.898438 C 34.511719 17.898438 34.449219 17.871094 34.417969 17.832031 C 34.382812 17.796875 34.324219 17.765625 34.285156 17.765625 C 34.246094 17.765625 34.15625 17.707031 34.082031 17.632812 C 34.011719 17.558594 33.921875 17.5 33.882812 17.5 C 33.84375 17.5 33.75 17.441406 33.671875 17.367188 C 33.601562 17.292969 33.511719 17.234375 33.476562 17.234375 C 33.441406 17.234375 33.351562 17.171875 33.273438 17.101562 C 33.191406 17.027344 33.101562 16.964844 33.070312 16.964844 C 33.035156 16.964844 32.941406 16.898438 32.851562 16.816406 C 32.761719 16.730469 32.660156 16.667969 32.621094 16.667969 C 32.578125 16.667969 32.515625 16.636719 32.484375 16.601562 C 32.449219 16.5625 32.394531 16.535156 32.359375 16.535156 C 32.328125 16.535156 32.234375 16.472656 32.160156 16.398438 C 32.082031 16.328125 31.988281 16.265625 31.949219 16.265625 C 31.914062 16.265625 31.824219 16.207031 31.753906 16.132812 C 31.679688 16.058594 31.589844 16 31.550781 16 C 31.511719 16 31.421875 15.941406 31.351562 15.867188 C 31.28125 15.792969 31.191406 15.734375 31.152344 15.734375 C 31.117188 15.734375 31.015625 15.664062 30.929688 15.578125 C 30.808594 15.460938 30.757812 15.429688 30.679688 15.441406 L 30.582031 15.449219 L 30.660156 15.515625 C 30.699219 15.554688 30.734375 15.605469 30.734375 15.640625 C 30.734375 15.671875 30.757812 15.699219 30.785156 15.699219 C 30.8125 15.699219 30.851562 15.738281 30.867188 15.785156 C 30.882812 15.828125 30.921875 15.867188 30.945312 15.867188 C 30.96875 15.867188 31 15.898438 31.011719 15.933594 C 31.019531 15.96875 31.050781 16 31.078125 16 C 31.101562 16 31.132812 16.03125 31.144531 16.066406 C 31.152344 16.101562 31.183594 16.132812 31.214844 16.132812 C 31.242188 16.132812 31.265625 16.15625 31.265625 16.1875 C 31.265625 16.214844 31.296875 16.246094 31.332031 16.257812 C 31.371094 16.265625 31.398438 16.285156 31.398438 16.304688 C 31.398438 16.320312 31.867188 16.800781 32.433594 17.371094 C 33.003906 17.941406 33.464844 18.421875 33.464844 18.4375 C 33.464844 18.453125 33.488281 18.464844 33.511719 18.464844 C 33.539062 18.464844 33.574219 18.496094 33.582031 18.535156 C 33.59375 18.570312 33.625 18.601562 33.652344 18.601562 C 33.679688 18.601562 33.699219 18.609375 33.699219 18.625 C 33.699219 18.648438 33.988281 18.949219 34.164062 19.105469 C 34.21875 19.15625 34.265625 19.214844 34.265625 19.234375 C 34.265625 19.25 34.28125 19.265625 34.296875 19.265625 C 34.3125 19.265625 34.378906 19.324219 34.445312 19.390625 C 34.511719 19.460938 34.589844 19.542969 34.621094 19.574219 C 34.671875 19.625 34.714844 19.765625 34.753906 20.015625 C 34.78125 20.160156 34.683594 20.488281 34.582031 20.605469 C 34.535156 20.664062 34.121094 21.078125 33.664062 21.53125 C 32.21875 22.945312 30.71875 24.449219 30.648438 24.550781 C 30.535156 24.714844 30.425781 24.941406 30.398438 25.066406 C 30.382812 25.128906 30.351562 25.242188 30.320312 25.316406 C 30.257812 25.488281 30.257812 25.8125 30.320312 25.984375 C 30.351562 26.058594 30.386719 26.183594 30.402344 26.261719 C 30.421875 26.347656 30.457031 26.4375 30.484375 26.464844 C 30.511719 26.496094 30.535156 26.535156 30.535156 26.550781 C 30.535156 26.605469 30.714844 26.851562 30.882812 27.015625 C 31.171875 27.308594 31.484375 27.480469 31.898438 27.578125 C 32.140625 27.632812 32.347656 27.628906 32.648438 27.566406 Z M 19.496094 24.804688 C 19.339844 24.789062 19.191406 24.761719 19.164062 24.75 C 19.140625 24.734375 19.027344 24.699219 18.917969 24.679688 C 18.582031 24.609375 17.933594 24.339844 17.628906 24.140625 C 17.074219 23.78125 16.511719 23.261719 16.257812 22.867188 C 16.214844 22.808594 16.160156 22.71875 16.132812 22.679688 C 16.035156 22.535156 15.875 22.25 15.792969 22.066406 C 15.628906 21.714844 15.601562 21.640625 15.601562 21.585938 C 15.601562 21.558594 15.578125 21.476562 15.546875 21.40625 C 15.441406 21.148438 15.328125 20.273438 15.351562 19.898438 C 15.386719 19.398438 15.535156 18.734375 15.675781 18.398438 C 15.804688 18.101562 15.902344 17.882812 15.933594 17.832031 C 15.949219 17.808594 16.011719 17.699219 16.070312 17.601562 C 16.125 17.5 16.195312 17.394531 16.21875 17.367188 C 16.246094 17.339844 16.34375 17.21875 16.441406 17.101562 C 16.699219 16.78125 17.082031 16.421875 17.351562 16.238281 C 17.902344 15.878906 18.234375 15.71875 18.765625 15.558594 C 19.230469 15.421875 19.511719 15.382812 20.101562 15.382812 C 20.816406 15.382812 21.144531 15.441406 21.894531 15.714844 C 22.050781 15.773438 22.4375 15.972656 22.644531 16.101562 C 22.980469 16.316406 23.261719 16.558594 23.632812 16.953125 C 23.851562 17.191406 24.125 17.5625 24.25 17.816406 C 24.277344 17.875 24.3125 17.941406 24.328125 17.964844 C 24.417969 18.105469 24.578125 18.523438 24.640625 18.75 C 24.660156 18.824219 24.695312 18.949219 24.722656 19.035156 C 24.851562 19.445312 24.859375 20.667969 24.738281 21.101562 C 24.703125 21.21875 24.660156 21.375 24.640625 21.449219 C 24.578125 21.691406 24.402344 22.085938 24.136719 22.597656 C 24.085938 22.691406 23.835938 23.015625 23.601562 23.292969 C 23.433594 23.492188 22.902344 23.9375 22.65625 24.085938 C 22.375 24.257812 22.183594 24.367188 22.132812 24.386719 C 22.105469 24.398438 22.015625 24.433594 21.933594 24.464844 C 21.601562 24.597656 21.410156 24.664062 21.285156 24.683594 C 21.210938 24.691406 21.085938 24.726562 21.011719 24.75 C 20.839844 24.808594 19.914062 24.839844 19.496094 24.804688 Z M 20.632812 24.582031 C 20.734375 24.558594 20.90625 24.53125 21.015625 24.519531 C 21.125 24.507812 21.246094 24.476562 21.285156 24.453125 C 21.320312 24.429688 21.40625 24.398438 21.480469 24.386719 C 21.550781 24.375 21.664062 24.332031 21.730469 24.296875 C 21.796875 24.261719 21.867188 24.234375 21.886719 24.234375 C 21.921875 24.234375 22.191406 24.085938 22.382812 23.964844 C 22.441406 23.929688 22.53125 23.875 22.582031 23.847656 C 22.757812 23.75 22.972656 23.566406 23.292969 23.238281 C 23.648438 22.875 23.863281 22.578125 24.082031 22.132812 C 24.171875 21.960938 24.265625 21.761719 24.304688 21.691406 C 24.335938 21.625 24.367188 21.535156 24.367188 21.484375 C 24.367188 21.4375 24.398438 21.34375 24.433594 21.277344 C 24.484375 21.183594 24.5 21.085938 24.5 20.917969 C 24.5 20.761719 24.515625 20.65625 24.550781 20.613281 C 24.582031 20.570312 24.597656 20.464844 24.601562 20.28125 L 24.601562 20.011719 L 24.476562 19.988281 C 24.40625 19.976562 24.289062 19.964844 24.21875 19.964844 C 24.144531 19.964844 24.0625 19.941406 24.027344 19.910156 C 23.988281 19.875 23.886719 19.851562 23.761719 19.839844 C 23.640625 19.828125 23.511719 19.796875 23.453125 19.761719 C 23.386719 19.722656 23.285156 19.699219 23.171875 19.699219 C 23.042969 19.699219 22.96875 19.679688 22.910156 19.632812 C 22.847656 19.585938 22.773438 19.566406 22.644531 19.566406 C 22.511719 19.566406 22.4375 19.546875 22.375 19.5 C 22.3125 19.453125 22.238281 19.433594 22.109375 19.433594 C 21.976562 19.433594 21.902344 19.414062 21.84375 19.367188 C 21.78125 19.316406 21.707031 19.300781 21.566406 19.300781 C 21.421875 19.300781 21.351562 19.285156 21.285156 19.230469 C 21.234375 19.1875 21.128906 19.15625 21.011719 19.144531 C 20.902344 19.132812 20.757812 19.097656 20.679688 19.0625 C 20.605469 19.03125 20.488281 19 20.414062 19 C 20.339844 19 20.222656 18.96875 20.148438 18.933594 C 20.070312 18.894531 19.953125 18.867188 19.851562 18.867188 C 19.746094 18.867188 19.667969 18.847656 19.625 18.808594 C 19.585938 18.773438 19.488281 18.75 19.355469 18.738281 C 19.234375 18.730469 19.125 18.703125 19.089844 18.671875 C 19.058594 18.644531 18.945312 18.613281 18.828125 18.605469 C 18.707031 18.597656 18.578125 18.5625 18.519531 18.53125 C 18.453125 18.488281 18.351562 18.464844 18.238281 18.464844 C 18.109375 18.464844 18.035156 18.445312 17.976562 18.398438 C 17.914062 18.351562 17.839844 18.332031 17.710938 18.332031 C 17.578125 18.332031 17.503906 18.3125 17.441406 18.265625 C 17.378906 18.21875 17.308594 18.199219 17.175781 18.199219 C 17.042969 18.199219 16.96875 18.179688 16.910156 18.132812 C 16.847656 18.082031 16.773438 18.066406 16.632812 18.066406 C 16.492188 18.066406 16.421875 18.050781 16.355469 18 C 16.25 17.917969 16.199219 17.917969 16.199219 17.996094 C 16.199219 18.035156 16.171875 18.074219 16.132812 18.082031 C 16.085938 18.097656 16.066406 18.132812 16.066406 18.203125 C 16.066406 18.261719 16.042969 18.3125 16 18.339844 C 15.957031 18.367188 15.933594 18.421875 15.933594 18.488281 C 15.933594 18.542969 15.902344 18.628906 15.867188 18.675781 C 15.828125 18.722656 15.789062 18.832031 15.777344 18.921875 C 15.765625 19.011719 15.726562 19.140625 15.691406 19.207031 C 15.632812 19.320312 15.625 19.40625 15.625 20.125 C 15.625 20.859375 15.628906 20.925781 15.695312 21.066406 C 15.734375 21.148438 15.765625 21.265625 15.765625 21.324219 C 15.765625 21.382812 15.796875 21.480469 15.832031 21.539062 C 15.871094 21.601562 15.898438 21.671875 15.898438 21.703125 C 15.898438 21.734375 15.972656 21.898438 16.066406 22.070312 C 16.15625 22.242188 16.25 22.421875 16.273438 22.464844 C 16.308594 22.539062 16.445312 22.726562 16.671875 23.011719 C 16.785156 23.148438 17.164062 23.511719 17.316406 23.628906 C 17.390625 23.6875 17.472656 23.75 17.5 23.773438 C 17.558594 23.824219 17.605469 23.855469 17.792969 23.957031 C 17.867188 24 17.9375 24.046875 17.949219 24.066406 C 17.960938 24.082031 17.996094 24.101562 18.03125 24.101562 C 18.0625 24.101562 18.128906 24.128906 18.175781 24.167969 C 18.222656 24.203125 18.28125 24.234375 18.308594 24.234375 C 18.328125 24.234375 18.40625 24.261719 18.472656 24.300781 C 18.542969 24.335938 18.65625 24.378906 18.722656 24.398438 C 18.792969 24.414062 18.910156 24.449219 18.984375 24.480469 C 19.058594 24.507812 19.175781 24.53125 19.25 24.535156 C 19.324219 24.535156 19.4375 24.550781 19.5 24.570312 C 19.789062 24.660156 20.296875 24.667969 20.632812 24.582031 Z M 20.632812 24.582031 "/>
<path style=" stroke:none;fill-rule:nonzero;fill:rgb(5.490196%,45.490196%,100%);fill-opacity:1;" d="M 19.351562 39.761719 C 19.089844 39.675781 18.898438 39.578125 18.652344 39.417969 C 18.402344 39.25 0.671875 21.535156 0.582031 21.367188 C 0.550781 21.304688 0.511719 21.242188 0.503906 21.234375 C 0.453125 21.195312 0.300781 20.855469 0.300781 20.785156 C 0.300781 20.746094 0.273438 20.675781 0.242188 20.632812 C 0.15625 20.511719 0.136719 19.679688 0.214844 19.464844 C 0.246094 19.382812 0.285156 19.261719 0.296875 19.199219 C 0.308594 19.136719 0.371094 19.011719 0.425781 18.917969 C 0.488281 18.828125 0.546875 18.714844 0.566406 18.667969 C 0.585938 18.625 0.625 18.5625 0.652344 18.535156 C 0.792969 18.378906 4.382812 14.804688 5.449219 13.75 C 7.601562 11.625 7.796875 11.433594 7.832031 11.433594 C 7.851562 11.433594 7.867188 11.410156 7.867188 11.378906 C 7.867188 11.351562 7.898438 11.320312 7.933594 11.308594 C 7.96875 11.300781 8 11.269531 8 11.246094 C 8 11.21875 8.035156 11.183594 8.082031 11.167969 C 8.128906 11.148438 8.167969 11.113281 8.167969 11.082031 C 8.167969 11.058594 8.195312 11.035156 8.234375 11.035156 C 8.277344 11.035156 8.300781 11.011719 8.300781 10.964844 C 8.300781 10.921875 8.324219 10.898438 8.367188 10.898438 C 8.402344 10.898438 8.433594 10.878906 8.433594 10.851562 C 8.433594 10.734375 8.570312 10.757812 8.625 10.886719 C 8.664062 10.964844 8.671875 10.964844 9.039062 10.964844 C 9.378906 10.964844 9.421875 10.972656 9.460938 11.035156 C 9.496094 11.09375 9.535156 11.101562 9.800781 11.101562 C 10.0625 11.101562 10.101562 11.105469 10.132812 11.167969 C 10.164062 11.226562 10.203125 11.234375 10.464844 11.234375 C 10.714844 11.234375 10.765625 11.242188 10.816406 11.300781 C 10.867188 11.355469 10.921875 11.367188 11.171875 11.367188 C 11.429688 11.367188 11.46875 11.375 11.5 11.433594 C 11.53125 11.492188 11.570312 11.5 11.832031 11.5 C 12.097656 11.5 12.136719 11.507812 12.171875 11.566406 C 12.210938 11.625 12.253906 11.632812 12.503906 11.632812 C 12.761719 11.632812 12.800781 11.640625 12.878906 11.714844 C 12.933594 11.761719 12.996094 11.796875 13.027344 11.785156 C 13.226562 11.734375 13.332031 11.734375 13.332031 11.785156 C 13.332031 11.808594 13.304688 11.832031 13.265625 11.832031 C 13.222656 11.832031 13.199219 11.855469 13.199219 11.898438 C 13.199219 11.941406 13.175781 11.964844 13.132812 11.964844 C 13.085938 11.964844 13.066406 11.988281 13.066406 12.035156 C 13.066406 12.078125 13.039062 12.113281 13 12.125 C 12.964844 12.132812 12.933594 12.15625 12.933594 12.171875 C 12.933594 12.191406 12.84375 12.292969 12.734375 12.398438 C 12.625 12.507812 12.535156 12.605469 12.535156 12.625 C 12.535156 12.648438 12.503906 12.671875 12.464844 12.683594 C 12.429688 12.691406 12.398438 12.714844 12.398438 12.734375 C 12.398438 12.765625 11.265625 13.917969 8.066406 17.128906 C 6.71875 18.484375 5.578125 19.644531 5.535156 19.703125 C 5.417969 19.863281 5.421875 20.101562 5.542969 20.28125 C 5.648438 20.429688 19.4375 34.210938 19.675781 34.402344 C 19.820312 34.515625 19.859375 34.535156 20.011719 34.535156 C 20.128906 34.53125 20.21875 34.507812 20.308594 34.453125 C 20.378906 34.410156 21.535156 33.285156 22.875 31.945312 C 26.578125 28.261719 26.316406 28.503906 26.863281 28.316406 C 27.113281 28.230469 27.152344 28.226562 27.605469 28.238281 C 28.101562 28.257812 28.105469 28.257812 28.53125 28.464844 C 28.628906 28.511719 28.828125 28.667969 28.984375 28.8125 C 29.207031 29.023438 29.285156 29.125 29.398438 29.355469 C 29.59375 29.746094 29.660156 30.148438 29.601562 30.597656 C 29.582031 30.769531 29.535156 30.976562 29.5 31.058594 C 29.464844 31.140625 29.433594 31.222656 29.433594 31.242188 C 29.433594 31.285156 29.300781 31.488281 29.171875 31.648438 C 29.039062 31.816406 21.726562 39.140625 21.546875 39.285156 C 21.457031 39.355469 21.335938 39.445312 21.285156 39.484375 C 21.011719 39.667969 20.535156 39.832031 20.289062 39.832031 C 20.160156 39.832031 20.132812 39.824219 20.132812 39.769531 C 20.132812 39.722656 20.167969 39.703125 20.261719 39.691406 C 20.597656 39.632812 20.898438 39.515625 21.234375 39.308594 C 21.355469 39.234375 22.398438 38.210938 24.332031 36.265625 C 28.28125 32.308594 28.976562 31.601562 29.050781 31.488281 C 29.085938 31.433594 29.132812 31.367188 29.148438 31.335938 C 29.171875 31.308594 29.210938 31.246094 29.242188 31.203125 C 29.273438 31.160156 29.300781 31.09375 29.300781 31.058594 C 29.300781 31.019531 29.328125 30.941406 29.367188 30.882812 C 29.425781 30.785156 29.4375 30.714844 29.4375 30.332031 C 29.4375 29.953125 29.425781 29.875 29.367188 29.761719 C 29.328125 29.691406 29.300781 29.601562 29.300781 29.570312 C 29.300781 29.535156 29.277344 29.488281 29.246094 29.464844 C 29.21875 29.441406 29.175781 29.375 29.148438 29.3125 C 29.082031 29.148438 28.578125 28.667969 28.476562 28.667969 C 28.453125 28.667969 28.410156 28.640625 28.375 28.601562 C 28.34375 28.570312 28.257812 28.53125 28.183594 28.519531 C 28.109375 28.507812 28.015625 28.472656 27.972656 28.445312 C 27.867188 28.375 27.167969 28.375 27.058594 28.445312 C 27.015625 28.472656 26.929688 28.503906 26.867188 28.515625 C 26.804688 28.53125 26.714844 28.570312 26.671875 28.601562 C 26.625 28.640625 26.5625 28.667969 26.53125 28.667969 C 26.492188 28.667969 26.464844 28.679688 26.464844 28.691406 C 26.464844 28.707031 26.410156 28.761719 26.335938 28.816406 C 26.265625 28.875 24.941406 30.171875 23.394531 31.710938 C 21.84375 33.246094 20.523438 34.539062 20.457031 34.585938 C 20.351562 34.65625 20.300781 34.667969 20.023438 34.667969 C 19.753906 34.667969 19.695312 34.65625 19.613281 34.59375 C 19.511719 34.519531 18.988281 33.996094 13 28.035156 C 11.066406 26.109375 9.34375 24.398438 9.175781 24.230469 C 9.007812 24.0625 8.867188 23.914062 8.867188 23.898438 C 8.867188 23.878906 8.851562 23.867188 8.832031 23.867188 C 8.816406 23.867188 8.4375 23.5 7.988281 23.050781 C 7.535156 22.601562 7.15625 22.234375 7.140625 22.234375 C 7.125 22.234375 7.101562 22.203125 7.089844 22.167969 C 7.078125 22.128906 7.050781 22.101562 7.019531 22.101562 C 6.988281 22.101562 6.964844 22.085938 6.964844 22.074219 C 6.964844 22.035156 6.746094 21.800781 6.707031 21.800781 C 6.691406 21.800781 6.667969 21.769531 6.65625 21.734375 C 6.648438 21.695312 6.617188 21.667969 6.589844 21.667969 C 6.5625 21.667969 6.535156 21.636719 6.523438 21.601562 C 6.511719 21.5625 6.484375 21.535156 6.457031 21.535156 C 6.429688 21.535156 6.398438 21.503906 6.390625 21.464844 C 6.378906 21.429688 6.351562 21.398438 6.324219 21.398438 C 6.296875 21.398438 6.265625 21.371094 6.257812 21.332031 C 6.246094 21.296875 6.214844 21.265625 6.191406 21.265625 C 6.164062 21.265625 6.132812 21.238281 6.125 21.199219 C 6.113281 21.160156 6.078125 21.132812 6.035156 21.132812 C 5.988281 21.132812 5.964844 21.113281 5.964844 21.066406 C 5.964844 21.023438 5.941406 21 5.898438 21 C 5.855469 21 5.832031 20.976562 5.832031 20.933594 C 5.832031 20.890625 5.808594 20.867188 5.765625 20.867188 C 5.730469 20.867188 5.699219 20.847656 5.699219 20.828125 C 5.699219 20.792969 5.632812 20.785156 5.453125 20.792969 C 5.230469 20.804688 5.195312 20.796875 5.125 20.726562 C 5.058594 20.65625 5.019531 20.648438 4.761719 20.648438 C 4.496094 20.648438 4.464844 20.644531 4.417969 20.578125 C 4.367188 20.507812 4.335938 20.5 4.074219 20.5 C 3.824219 20.5 3.773438 20.488281 3.722656 20.433594 C 3.671875 20.375 3.625 20.367188 3.308594 20.367188 C 2.988281 20.367188 2.945312 20.359375 2.90625 20.300781 C 2.871094 20.238281 2.828125 20.234375 2.566406 20.234375 C 2.304688 20.234375 2.261719 20.226562 2.234375 20.167969 C 2.203125 20.105469 2.164062 20.101562 1.902344 20.101562 C 1.652344 20.101562 1.601562 20.089844 1.550781 20.035156 C 1.5 19.976562 1.445312 19.964844 1.195312 19.964844 C 0.9375 19.964844 0.898438 19.960938 0.867188 19.898438 C 0.835938 19.84375 0.796875 19.832031 0.582031 19.832031 L 0.332031 19.832031 L 0.332031 20.0625 C 0.332031 20.226562 0.351562 20.308594 0.382812 20.347656 C 0.410156 20.375 0.441406 20.488281 0.453125 20.597656 C 0.464844 20.714844 0.492188 20.804688 0.519531 20.8125 C 0.542969 20.824219 0.574219 20.882812 0.585938 20.945312 C 0.597656 21.011719 0.621094 21.066406 0.632812 21.066406 C 0.65625 21.066406 0.699219 21.125 0.851562 21.367188 C 0.871094 21.398438 1.097656 21.632812 1.359375 21.898438 C 1.621094 22.160156 1.832031 22.390625 1.832031 22.40625 C 1.832031 22.421875 1.851562 22.433594 1.878906 22.433594 C 1.90625 22.433594 1.941406 22.464844 1.949219 22.5 C 1.960938 22.535156 1.992188 22.566406 2.019531 22.566406 C 2.046875 22.566406 2.066406 22.578125 2.066406 22.597656 C 2.066406 22.648438 18.367188 38.960938 18.625 39.171875 C 18.980469 39.457031 19.375 39.628906 19.792969 39.691406 C 19.871094 39.703125 19.898438 39.722656 19.898438 39.769531 C 19.898438 39.824219 19.875 39.832031 19.726562 39.828125 C 19.628906 39.828125 19.460938 39.796875 19.351562 39.761719 Z M 13.390625 11.675781 C 13.351562 11.640625 13.363281 11.601562 13.417969 11.601562 C 13.441406 11.601562 13.464844 11.625 13.464844 11.648438 C 13.464844 11.703125 13.425781 11.714844 13.390625 11.675781 Z M 8.589844 10.714844 C 8.5625 10.6875 8.59375 10.632812 8.636719 10.632812 C 8.652344 10.632812 8.667969 10.65625 8.667969 10.683594 C 8.667969 10.734375 8.625 10.75 8.589844 10.714844 Z M 22.140625 7.128906 C 22.148438 7.109375 22.167969 7.097656 22.183594 7.097656 C 22.199219 7.097656 22.21875 7.109375 22.226562 7.128906 C 22.234375 7.148438 22.214844 7.167969 22.183594 7.167969 C 22.152344 7.167969 22.132812 7.148438 22.140625 7.128906 Z M 22 6.984375 C 22 6.957031 21.988281 6.933594 21.96875 6.933594 C 21.957031 6.933594 21.902344 6.898438 21.851562 6.851562 C 21.804688 6.804688 21.75 6.765625 21.730469 6.765625 C 21.714844 6.765625 21.699219 6.742188 21.699219 6.714844 C 21.699219 6.691406 21.6875 6.667969 21.671875 6.667969 C 21.652344 6.667969 21.507812 6.535156 21.34375 6.378906 C 20.464844 5.527344 20.371094 5.441406 20.234375 5.421875 C 19.984375 5.378906 20.011719 5.324219 20.425781 4.992188 C 20.808594 4.691406 21.1875 4.433594 21.246094 4.433594 C 21.273438 4.433594 21.328125 4.40625 21.371094 4.371094 C 21.414062 4.335938 21.488281 4.296875 21.535156 4.285156 C 21.578125 4.269531 21.648438 4.238281 21.683594 4.214844 C 21.71875 4.1875 21.769531 4.167969 21.800781 4.167969 C 21.828125 4.167969 21.90625 4.140625 21.972656 4.101562 C 22.039062 4.070312 22.1875 4.035156 22.300781 4.019531 C 22.410156 4.007812 22.574219 3.976562 22.660156 3.949219 C 22.882812 3.878906 23.21875 3.886719 23.386719 3.964844 C 23.464844 3.996094 23.617188 4.035156 23.730469 4.050781 C 23.839844 4.0625 23.933594 4.078125 23.933594 4.082031 C 23.933594 4.089844 23.851562 4.171875 23.75 4.269531 C 23.636719 4.375 23.566406 4.46875 23.566406 4.515625 C 23.566406 4.558594 23.535156 4.617188 23.5 4.648438 C 23.464844 4.683594 23.433594 4.738281 23.433594 4.78125 C 23.433594 4.816406 23.375 4.910156 23.296875 4.988281 C 23.222656 5.0625 23.15625 5.164062 23.152344 5.210938 C 23.148438 5.257812 23.082031 5.347656 23.003906 5.421875 C 22.914062 5.507812 22.867188 5.578125 22.867188 5.632812 C 22.867188 5.679688 22.839844 5.734375 22.800781 5.761719 C 22.761719 5.785156 22.734375 5.835938 22.734375 5.894531 C 22.734375 5.957031 22.691406 6.015625 22.601562 6.101562 C 22.507812 6.183594 22.464844 6.242188 22.464844 6.308594 C 22.464844 6.363281 22.441406 6.410156 22.398438 6.433594 C 22.355469 6.457031 22.332031 6.503906 22.332031 6.558594 C 22.332031 6.625 22.292969 6.691406 22.203125 6.773438 C 22.105469 6.863281 22.078125 6.914062 22.089844 6.964844 C 22.101562 7.011719 22.09375 7.035156 22.054688 7.035156 C 22.023438 7.035156 22 7.011719 22 6.984375 Z M 22 6.984375 "/>
<path style=" stroke:none;fill-rule:nonzero;fill:rgb(96.470588%,17.647059%,23.921569%);fill-opacity:1;" d="M 32.015625 27.714844 C 31.90625 27.691406 31.757812 27.660156 31.683594 27.648438 C 31.414062 27.597656 31.054688 27.386719 30.785156 27.125 C 30.617188 26.953125 30.433594 26.707031 30.433594 26.648438 C 30.433594 26.632812 30.410156 26.597656 30.382812 26.566406 C 30.355469 26.535156 30.320312 26.445312 30.304688 26.363281 C 30.285156 26.285156 30.25 26.15625 30.21875 26.082031 C 30.152344 25.902344 30.152344 25.398438 30.21875 25.214844 C 30.25 25.144531 30.285156 25.03125 30.296875 24.964844 C 30.328125 24.84375 30.4375 24.613281 30.550781 24.449219 C 30.621094 24.351562 32.121094 22.847656 33.5625 21.429688 C 34.019531 20.976562 34.4375 20.5625 34.484375 20.507812 C 34.585938 20.382812 34.671875 20.078125 34.628906 19.992188 C 34.613281 19.964844 34.601562 19.898438 34.601562 19.855469 C 34.601562 19.808594 34.566406 19.734375 34.527344 19.683594 C 34.382812 19.515625 34.226562 19.367188 34.195312 19.367188 C 34.179688 19.367188 34.167969 19.351562 34.167969 19.332031 C 34.167969 19.3125 34.121094 19.257812 34.0625 19.207031 C 33.886719 19.050781 33.601562 18.75 33.601562 18.726562 C 33.601562 18.710938 33.578125 18.699219 33.554688 18.699219 C 33.527344 18.699219 33.492188 18.671875 33.484375 18.632812 C 33.472656 18.597656 33.441406 18.566406 33.414062 18.566406 C 33.386719 18.566406 33.367188 18.554688 33.367188 18.535156 C 33.367188 18.519531 32.902344 18.039062 32.332031 17.46875 C 31.765625 16.898438 31.300781 16.421875 31.300781 16.398438 C 31.300781 16.382812 31.277344 16.367188 31.246094 16.367188 C 31.214844 16.367188 31.1875 16.335938 31.175781 16.300781 C 31.167969 16.261719 31.136719 16.234375 31.109375 16.234375 C 31.082031 16.234375 31.054688 16.203125 31.042969 16.167969 C 31.035156 16.128906 31.003906 16.101562 30.976562 16.101562 C 30.949219 16.101562 30.921875 16.070312 30.910156 16.035156 C 30.898438 15.996094 30.871094 15.964844 30.847656 15.964844 C 30.820312 15.964844 30.785156 15.929688 30.765625 15.882812 C 30.75 15.835938 30.714844 15.800781 30.683594 15.800781 C 30.65625 15.800781 30.632812 15.769531 30.632812 15.734375 C 30.632812 15.695312 30.609375 15.65625 30.582031 15.648438 C 30.558594 15.636719 30.515625 15.578125 30.492188 15.511719 C 30.472656 15.449219 30.433594 15.398438 30.410156 15.398438 C 30.378906 15.398438 30.367188 15.34375 30.367188 15.214844 C 30.367188 15.027344 30.417969 14.96875 30.453125 15.117188 C 30.464844 15.175781 30.496094 15.199219 30.554688 15.199219 C 30.597656 15.199219 30.648438 15.230469 30.671875 15.265625 C 30.699219 15.308594 30.753906 15.332031 30.800781 15.332031 C 30.855469 15.332031 30.9375 15.382812 31.035156 15.484375 C 31.125 15.578125 31.199219 15.625 31.234375 15.617188 C 31.265625 15.605469 31.34375 15.65625 31.433594 15.75 C 31.515625 15.832031 31.609375 15.898438 31.648438 15.898438 C 31.691406 15.898438 31.78125 15.960938 31.851562 16.035156 C 31.921875 16.105469 32.011719 16.167969 32.050781 16.167969 C 32.089844 16.167969 32.183594 16.226562 32.261719 16.300781 C 32.332031 16.375 32.425781 16.433594 32.460938 16.433594 C 32.492188 16.433594 32.550781 16.464844 32.582031 16.5 C 32.617188 16.535156 32.675781 16.566406 32.71875 16.566406 C 32.761719 16.566406 32.855469 16.625 32.9375 16.703125 C 33.015625 16.78125 33.109375 16.84375 33.148438 16.847656 C 33.1875 16.851562 33.285156 16.917969 33.367188 16.992188 C 33.449219 17.070312 33.542969 17.132812 33.578125 17.132812 C 33.609375 17.132812 33.699219 17.191406 33.773438 17.265625 C 33.851562 17.339844 33.941406 17.398438 33.984375 17.398438 C 34.023438 17.398438 34.113281 17.460938 34.183594 17.535156 C 34.257812 17.605469 34.347656 17.667969 34.382812 17.667969 C 34.421875 17.667969 34.484375 17.695312 34.515625 17.734375 C 34.550781 17.769531 34.609375 17.800781 34.648438 17.800781 C 34.691406 17.800781 34.785156 17.863281 34.867188 17.949219 C 34.957031 18.042969 35.035156 18.09375 35.066406 18.082031 C 35.101562 18.074219 35.175781 18.125 35.265625 18.214844 C 35.351562 18.300781 35.441406 18.367188 35.484375 18.367188 C 35.523438 18.367188 35.613281 18.425781 35.6875 18.5 C 35.757812 18.574219 35.847656 18.632812 35.886719 18.632812 C 35.921875 18.632812 35.984375 18.664062 36.015625 18.699219 C 36.050781 18.738281 36.109375 18.765625 36.152344 18.765625 C 36.199219 18.765625 36.285156 18.824219 36.367188 18.898438 C 36.441406 18.972656 36.535156 19.035156 36.570312 19.035156 C 36.605469 19.035156 36.707031 19.101562 36.785156 19.183594 C 36.878906 19.273438 36.953125 19.324219 36.988281 19.308594 C 37.015625 19.300781 37.09375 19.351562 37.191406 19.445312 C 37.28125 19.535156 37.378906 19.601562 37.421875 19.601562 C 37.457031 19.601562 37.515625 19.628906 37.550781 19.667969 C 37.582031 19.703125 37.644531 19.734375 37.683594 19.734375 C 37.71875 19.734375 37.808594 19.792969 37.882812 19.867188 C 37.953125 19.941406 38.042969 20 38.082031 20 C 38.125 20 38.214844 20.058594 38.285156 20.132812 C 38.351562 20.207031 38.441406 20.265625 38.476562 20.265625 C 38.511719 20.265625 38.617188 20.332031 38.703125 20.417969 C 38.789062 20.5 38.882812 20.558594 38.90625 20.550781 C 38.933594 20.539062 39.019531 20.601562 39.101562 20.683594 C 39.199219 20.78125 39.28125 20.832031 39.335938 20.832031 C 39.453125 20.832031 39.5 20.894531 39.5 21.050781 C 39.5 21.148438 39.484375 21.195312 39.433594 21.226562 C 39.398438 21.25 39.367188 21.304688 39.367188 21.351562 C 39.367188 21.402344 39.347656 21.433594 39.316406 21.433594 C 39.289062 21.433594 39.265625 21.449219 39.265625 21.472656 C 39.265625 21.496094 39.238281 21.542969 39.199219 21.582031 C 37.644531 23.195312 33.550781 27.308594 33.425781 27.378906 C 33.171875 27.53125 32.953125 27.632812 32.882812 27.632812 C 32.84375 27.632812 32.738281 27.652344 32.648438 27.679688 C 32.382812 27.757812 32.230469 27.765625 32.015625 27.714844 Z M 32.648438 27.535156 C 32.78125 27.511719 32.90625 27.472656 32.933594 27.449219 C 32.960938 27.425781 33.019531 27.398438 33.066406 27.382812 C 33.113281 27.371094 33.1875 27.328125 33.230469 27.296875 C 33.273438 27.261719 33.328125 27.234375 33.34375 27.234375 C 33.363281 27.234375 33.757812 26.851562 34.214844 26.382812 C 35.332031 25.246094 35.535156 25.035156 35.535156 25.007812 C 35.53125 24.941406 35.328125 24.765625 35.257812 24.765625 C 35.210938 24.765625 35.128906 24.714844 35.054688 24.636719 C 34.984375 24.566406 34.882812 24.5 34.828125 24.488281 C 34.777344 24.476562 34.679688 24.410156 34.613281 24.332031 C 34.535156 24.246094 34.464844 24.199219 34.414062 24.199219 C 34.359375 24.199219 34.285156 24.148438 34.210938 24.066406 C 34.125 23.972656 34.058594 23.933594 33.992188 23.933594 C 33.9375 23.933594 33.890625 23.910156 33.867188 23.867188 C 33.84375 23.828125 33.796875 23.800781 33.738281 23.800781 C 33.675781 23.800781 33.617188 23.761719 33.535156 23.667969 C 33.460938 23.582031 33.386719 23.535156 33.335938 23.535156 C 33.289062 23.535156 33.207031 23.480469 33.128906 23.398438 C 33.058594 23.328125 32.96875 23.265625 32.933594 23.265625 C 32.898438 23.265625 32.796875 23.199219 32.710938 23.117188 C 32.625 23.035156 32.53125 22.964844 32.496094 22.964844 C 32.464844 22.964844 32.417969 22.960938 32.390625 22.945312 C 32.335938 22.925781 32.0625 23.175781 31.238281 24.003906 C 30.703125 24.535156 30.566406 24.691406 30.566406 24.777344 C 30.566406 24.800781 30.535156 24.851562 30.5 24.882812 C 30.457031 24.921875 30.433594 24.988281 30.433594 25.0625 C 30.433594 25.128906 30.402344 25.230469 30.367188 25.285156 C 30.285156 25.410156 30.269531 25.875 30.351562 25.988281 C 30.375 26.027344 30.40625 26.125 30.421875 26.203125 C 30.429688 26.285156 30.46875 26.390625 30.503906 26.441406 C 30.535156 26.488281 30.566406 26.550781 30.566406 26.578125 C 30.566406 26.601562 30.597656 26.648438 30.632812 26.683594 C 30.671875 26.714844 30.699219 26.757812 30.699219 26.769531 C 30.699219 26.867188 31.351562 27.398438 31.464844 27.398438 C 31.488281 27.398438 31.535156 27.421875 31.566406 27.449219 C 31.597656 27.476562 31.730469 27.511719 31.867188 27.535156 C 32.003906 27.554688 32.121094 27.578125 32.128906 27.585938 C 32.148438 27.605469 32.273438 27.59375 32.648438 27.535156 Z M 19.734375 24.734375 C 19.613281 24.714844 19.464844 24.691406 19.398438 24.671875 C 19.335938 24.648438 19.222656 24.632812 19.148438 24.632812 C 19.078125 24.628906 18.957031 24.605469 18.882812 24.578125 C 18.808594 24.550781 18.691406 24.511719 18.625 24.496094 C 18.558594 24.480469 18.441406 24.4375 18.375 24.398438 C 18.308594 24.363281 18.230469 24.332031 18.207031 24.332031 C 18.179688 24.332031 18.125 24.304688 18.078125 24.265625 C 18.03125 24.230469 17.964844 24.199219 17.929688 24.199219 C 17.898438 24.199219 17.859375 24.183594 17.851562 24.167969 C 17.835938 24.148438 17.765625 24.101562 17.691406 24.058594 C 17.507812 23.957031 17.457031 23.921875 17.398438 23.875 C 17.375 23.851562 17.289062 23.785156 17.214844 23.730469 C 17.0625 23.613281 16.6875 23.25 16.574219 23.109375 C 16.347656 22.828125 16.210938 22.640625 16.171875 22.566406 C 16.148438 22.519531 16.058594 22.34375 15.964844 22.171875 C 15.875 22 15.800781 21.832031 15.800781 21.804688 C 15.800781 21.773438 15.769531 21.699219 15.734375 21.640625 C 15.695312 21.578125 15.667969 21.484375 15.667969 21.421875 C 15.667969 21.367188 15.632812 21.25 15.59375 21.167969 C 15.527344 21.027344 15.523438 20.964844 15.523438 20.125 C 15.523438 19.308594 15.53125 19.226562 15.589844 19.109375 C 15.625 19.039062 15.667969 18.910156 15.675781 18.824219 C 15.691406 18.734375 15.730469 18.625 15.765625 18.578125 C 15.804688 18.53125 15.832031 18.441406 15.832031 18.386719 C 15.832031 18.320312 15.855469 18.265625 15.898438 18.238281 C 15.941406 18.214844 15.964844 18.164062 15.964844 18.101562 C 15.964844 18.035156 15.988281 17.996094 16.035156 17.984375 C 16.074219 17.96875 16.101562 17.933594 16.101562 17.890625 C 16.101562 17.851562 16.113281 17.792969 16.132812 17.765625 C 16.160156 17.726562 16.171875 17.726562 16.226562 17.777344 C 16.261719 17.808594 16.308594 17.832031 16.332031 17.832031 C 16.355469 17.832031 16.402344 17.855469 16.4375 17.886719 C 16.476562 17.921875 16.566406 17.941406 16.695312 17.945312 C 16.824219 17.953125 16.925781 17.976562 16.988281 18.015625 C 17.050781 18.058594 17.148438 18.082031 17.261719 18.082031 C 17.378906 18.085938 17.464844 18.109375 17.527344 18.15625 C 17.59375 18.207031 17.667969 18.226562 17.792969 18.222656 C 17.921875 18.21875 17.992188 18.238281 18.066406 18.292969 C 18.136719 18.347656 18.210938 18.367188 18.339844 18.367188 C 18.453125 18.367188 18.554688 18.390625 18.621094 18.429688 C 18.675781 18.464844 18.808594 18.496094 18.925781 18.507812 C 19.046875 18.511719 19.15625 18.542969 19.191406 18.574219 C 19.226562 18.601562 19.332031 18.628906 19.457031 18.640625 C 19.585938 18.648438 19.6875 18.671875 19.726562 18.710938 C 19.765625 18.746094 19.847656 18.765625 19.953125 18.765625 C 20.054688 18.765625 20.171875 18.792969 20.25 18.832031 C 20.324219 18.871094 20.441406 18.898438 20.511719 18.898438 C 20.585938 18.898438 20.707031 18.929688 20.78125 18.964844 C 20.855469 18.996094 21.003906 19.035156 21.113281 19.042969 C 21.226562 19.054688 21.332031 19.085938 21.371094 19.117188 C 21.410156 19.152344 21.5 19.175781 21.628906 19.179688 C 21.757812 19.1875 21.859375 19.210938 21.921875 19.25 C 21.984375 19.289062 22.078125 19.316406 22.191406 19.316406 C 22.3125 19.320312 22.398438 19.34375 22.460938 19.390625 C 22.527344 19.441406 22.601562 19.460938 22.726562 19.457031 C 22.851562 19.453125 22.925781 19.472656 22.996094 19.527344 C 23.070312 19.578125 23.140625 19.597656 23.261719 19.597656 C 23.371094 19.59375 23.46875 19.613281 23.554688 19.660156 C 23.625 19.699219 23.769531 19.734375 23.875 19.742188 C 23.984375 19.75 24.089844 19.777344 24.125 19.808594 C 24.160156 19.835938 24.269531 19.863281 24.390625 19.875 L 24.601562 19.886719 L 24.621094 19.726562 C 24.664062 19.417969 24.699219 19.609375 24.699219 20.125 C 24.695312 20.535156 24.6875 20.664062 24.648438 20.714844 C 24.617188 20.757812 24.601562 20.859375 24.601562 21.015625 C 24.601562 21.1875 24.582031 21.285156 24.535156 21.375 C 24.496094 21.441406 24.464844 21.535156 24.464844 21.582031 C 24.464844 21.632812 24.4375 21.726562 24.402344 21.792969 C 24.367188 21.859375 24.269531 22.058594 24.183594 22.234375 C 23.964844 22.675781 23.75 22.972656 23.394531 23.339844 C 23.074219 23.667969 22.855469 23.851562 22.683594 23.945312 C 22.628906 23.976562 22.539062 24.03125 22.484375 24.066406 C 22.292969 24.1875 22.019531 24.332031 21.988281 24.332031 C 21.964844 24.332031 21.898438 24.363281 21.828125 24.398438 C 21.761719 24.433594 21.648438 24.472656 21.578125 24.488281 C 21.507812 24.5 21.421875 24.53125 21.382812 24.554688 C 21.347656 24.578125 21.195312 24.609375 21.050781 24.628906 C 20.898438 24.648438 20.738281 24.679688 20.6875 24.695312 C 20.535156 24.757812 20.367188 24.742188 20.367188 24.671875 C 20.367188 24.601562 20.570312 24.535156 20.902344 24.503906 C 21.039062 24.492188 21.191406 24.457031 21.238281 24.429688 C 21.28125 24.398438 21.378906 24.371094 21.460938 24.355469 C 21.539062 24.347656 21.628906 24.316406 21.664062 24.285156 C 21.695312 24.257812 21.753906 24.234375 21.789062 24.234375 C 21.828125 24.234375 21.898438 24.203125 21.941406 24.167969 C 21.988281 24.128906 22.046875 24.101562 22.074219 24.101562 C 22.101562 24.101562 22.171875 24.0625 22.234375 24.015625 C 22.296875 23.96875 22.367188 23.933594 22.390625 23.933594 C 22.417969 23.933594 22.441406 23.914062 22.453125 23.886719 C 22.464844 23.859375 22.511719 23.824219 22.566406 23.800781 C 22.621094 23.777344 22.671875 23.738281 22.679688 23.714844 C 22.691406 23.6875 22.714844 23.667969 22.742188 23.667969 C 22.765625 23.667969 22.875 23.582031 22.980469 23.480469 L 23.175781 23.296875 L 23.074219 23.199219 C 22.976562 23.113281 22.953125 23.105469 22.789062 23.125 C 22.628906 23.140625 22.601562 23.132812 22.515625 23.054688 C 22.433594 22.976562 22.40625 22.96875 22.253906 22.988281 C 22.101562 23.007812 22.070312 22.996094 21.976562 22.921875 C 21.890625 22.847656 21.84375 22.832031 21.660156 22.832031 C 21.488281 22.832031 21.441406 22.824219 21.40625 22.765625 C 21.375 22.710938 21.328125 22.699219 21.132812 22.699219 C 20.9375 22.699219 20.898438 22.691406 20.867188 22.632812 C 20.835938 22.578125 20.796875 22.566406 20.601562 22.566406 C 20.421875 22.566406 20.367188 22.554688 20.316406 22.5 C 20.269531 22.445312 20.214844 22.433594 20.050781 22.433594 C 19.886719 22.433594 19.828125 22.421875 19.785156 22.367188 C 19.734375 22.3125 19.679688 22.300781 19.496094 22.300781 C 19.304688 22.300781 19.261719 22.289062 19.226562 22.234375 C 19.191406 22.175781 19.148438 22.167969 18.964844 22.167969 C 18.785156 22.167969 18.734375 22.152344 18.683594 22.101562 C 18.636719 22.046875 18.578125 22.035156 18.421875 22.035156 C 18.261719 22.035156 18.210938 22.015625 18.128906 21.953125 C 18.046875 21.882812 18.011719 21.875 17.855469 21.890625 C 17.695312 21.90625 17.671875 21.898438 17.582031 21.820312 C 17.5 21.742188 17.472656 21.738281 17.320312 21.753906 C 17.167969 21.773438 17.136719 21.761719 17.042969 21.6875 C 16.957031 21.613281 16.90625 21.601562 16.742188 21.601562 C 16.585938 21.601562 16.53125 21.585938 16.484375 21.535156 C 16.433594 21.480469 16.378906 21.464844 16.195312 21.464844 C 16.003906 21.464844 15.964844 21.457031 15.933594 21.398438 C 15.898438 21.332031 15.800781 21.308594 15.800781 21.359375 C 15.800781 21.375 15.828125 21.421875 15.867188 21.464844 C 15.902344 21.511719 15.933594 21.585938 15.933594 21.640625 C 15.933594 21.695312 15.964844 21.777344 16 21.824219 C 16.035156 21.871094 16.066406 21.941406 16.066406 21.984375 C 16.066406 22.023438 16.085938 22.078125 16.113281 22.097656 C 16.140625 22.121094 16.171875 22.171875 16.179688 22.21875 C 16.191406 22.261719 16.230469 22.328125 16.265625 22.367188 C 16.304688 22.402344 16.332031 22.457031 16.332031 22.484375 C 16.332031 22.511719 16.359375 22.5625 16.394531 22.597656 C 16.421875 22.632812 16.480469 22.703125 16.515625 22.75 C 16.808594 23.144531 17.328125 23.644531 17.625 23.816406 C 17.65625 23.835938 17.765625 23.90625 17.871094 23.976562 C 17.972656 24.042969 18.078125 24.101562 18.105469 24.101562 C 18.132812 24.101562 18.191406 24.128906 18.234375 24.167969 C 18.277344 24.203125 18.339844 24.234375 18.378906 24.234375 C 18.421875 24.234375 18.496094 24.261719 18.550781 24.300781 C 18.605469 24.335938 18.6875 24.367188 18.734375 24.367188 C 18.78125 24.367188 18.875 24.398438 18.949219 24.433594 C 19.023438 24.46875 19.148438 24.5 19.234375 24.5 C 19.316406 24.5 19.503906 24.53125 19.648438 24.566406 C 19.796875 24.601562 20.011719 24.632812 20.125 24.632812 C 20.28125 24.632812 20.332031 24.648438 20.332031 24.679688 C 20.332031 24.765625 20.15625 24.78125 19.734375 24.734375 Z M 39.550781 20.898438 C 39.515625 20.847656 39.5625 20.625 39.601562 20.648438 C 39.644531 20.675781 39.644531 20.890625 39.601562 20.917969 C 39.585938 20.925781 39.558594 20.917969 39.550781 20.898438 Z M 39.699219 20.296875 C 39.699219 20.214844 39.714844 20.171875 39.734375 20.183594 C 39.753906 20.191406 39.765625 20.257812 39.765625 20.320312 C 39.765625 20.382812 39.753906 20.433594 39.734375 20.433594 C 39.714844 20.433594 39.699219 20.375 39.699219 20.296875 Z M 30.253906 15.011719 C 30.242188 15 30.234375 14.882812 30.234375 14.753906 C 30.234375 14.46875 30.285156 14.496094 30.308594 14.789062 C 30.328125 14.984375 30.308594 15.0625 30.253906 15.011719 Z M 30.253906 15.011719 "/>
<path style=" stroke:none;fill-rule:nonzero;fill:rgb(5.490196%,45.490196%,100%);fill-opacity:1;" d="M 19.699219 39.800781 C 19.164062 39.683594 18.878906 39.558594 18.527344 39.269531 C 18.265625 39.058594 1.964844 22.746094 1.964844 22.695312 C 1.964844 22.679688 1.945312 22.667969 1.921875 22.667969 C 1.894531 22.667969 1.859375 22.636719 1.851562 22.601562 C 1.839844 22.5625 1.808594 22.535156 1.78125 22.535156 C 1.753906 22.535156 1.734375 22.519531 1.734375 22.507812 C 1.734375 22.488281 1.519531 22.261719 1.261719 21.996094 C 0.996094 21.734375 0.769531 21.496094 0.75 21.464844 C 0.601562 21.226562 0.558594 21.167969 0.535156 21.167969 C 0.519531 21.167969 0.496094 21.113281 0.488281 21.046875 C 0.472656 20.984375 0.441406 20.921875 0.421875 20.914062 C 0.394531 20.902344 0.367188 20.8125 0.351562 20.695312 C 0.34375 20.585938 0.308594 20.472656 0.285156 20.445312 C 0.242188 20.40625 0.234375 20.308594 0.234375 20.015625 C 0.234375 19.660156 0.265625 19.511719 0.316406 19.667969 C 0.335938 19.726562 0.367188 19.734375 0.632812 19.734375 C 0.898438 19.734375 0.9375 19.738281 0.964844 19.800781 C 0.996094 19.859375 1.035156 19.867188 1.296875 19.867188 C 1.546875 19.867188 1.601562 19.875 1.648438 19.933594 C 1.699219 19.988281 1.753906 20 2.003906 20 C 2.261719 20 2.304688 20.007812 2.332031 20.066406 C 2.363281 20.125 2.402344 20.132812 2.667969 20.132812 C 2.929688 20.132812 2.96875 20.140625 3.007812 20.199219 C 3.046875 20.261719 3.085938 20.265625 3.410156 20.265625 C 3.726562 20.265625 3.773438 20.273438 3.824219 20.332031 C 3.875 20.390625 3.921875 20.398438 4.171875 20.398438 C 4.429688 20.398438 4.46875 20.40625 4.511719 20.46875 C 4.558594 20.535156 4.589844 20.539062 4.839844 20.535156 C 5.101562 20.53125 5.125 20.535156 5.214844 20.621094 C 5.304688 20.699219 5.328125 20.707031 5.480469 20.691406 C 5.574219 20.675781 5.683594 20.660156 5.726562 20.648438 C 5.785156 20.628906 5.800781 20.640625 5.800781 20.695312 C 5.800781 20.742188 5.820312 20.765625 5.867188 20.765625 C 5.910156 20.765625 5.933594 20.789062 5.933594 20.832031 C 5.933594 20.875 5.957031 20.898438 6 20.898438 C 6.058594 20.898438 6.082031 20.933594 6.070312 21.011719 C 6.070312 21.023438 6.097656 21.035156 6.136719 21.035156 C 6.175781 21.035156 6.214844 21.058594 6.222656 21.101562 C 6.234375 21.136719 6.261719 21.167969 6.289062 21.167969 C 6.316406 21.167969 6.347656 21.195312 6.355469 21.234375 C 6.367188 21.269531 6.398438 21.300781 6.421875 21.300781 C 6.449219 21.300781 6.480469 21.328125 6.488281 21.367188 C 6.5 21.402344 6.53125 21.433594 6.558594 21.433594 C 6.582031 21.433594 6.613281 21.464844 6.625 21.5 C 6.632812 21.535156 6.664062 21.566406 6.691406 21.566406 C 6.714844 21.566406 6.746094 21.597656 6.757812 21.632812 C 6.765625 21.671875 6.789062 21.699219 6.808594 21.699219 C 6.847656 21.699219 7.066406 21.933594 7.066406 21.972656 C 7.066406 21.988281 7.089844 22 7.121094 22 C 7.148438 22 7.179688 22.03125 7.191406 22.066406 C 7.199219 22.101562 7.222656 22.132812 7.238281 22.132812 C 7.257812 22.132812 7.636719 22.5 8.085938 22.949219 C 8.535156 23.398438 8.917969 23.765625 8.933594 23.765625 C 8.953125 23.765625 8.964844 23.78125 8.964844 23.796875 C 8.964844 23.8125 9.105469 23.964844 9.277344 24.128906 C 9.441406 24.296875 11.167969 26.011719 13.101562 27.9375 C 19.085938 33.898438 19.613281 34.421875 19.714844 34.492188 C 19.855469 34.601562 20.191406 34.597656 20.355469 34.488281 C 20.421875 34.441406 21.742188 33.148438 23.292969 31.609375 C 24.84375 30.074219 26.167969 28.773438 26.238281 28.714844 C 26.308594 28.664062 26.367188 28.605469 26.367188 28.59375 C 26.367188 28.578125 26.394531 28.566406 26.429688 28.566406 C 26.464844 28.566406 26.527344 28.539062 26.570312 28.503906 C 26.613281 28.46875 26.703125 28.429688 26.765625 28.417969 C 26.828125 28.402344 26.921875 28.371094 26.964844 28.34375 C 27.078125 28.269531 27.953125 28.269531 28.070312 28.34375 C 28.113281 28.375 28.210938 28.40625 28.285156 28.421875 C 28.355469 28.429688 28.441406 28.46875 28.476562 28.503906 C 28.511719 28.539062 28.554688 28.566406 28.578125 28.566406 C 28.679688 28.566406 29.183594 29.050781 29.25 29.214844 C 29.277344 29.273438 29.320312 29.339844 29.347656 29.367188 C 29.375 29.390625 29.398438 29.4375 29.398438 29.46875 C 29.398438 29.503906 29.433594 29.59375 29.46875 29.667969 C 29.535156 29.789062 29.539062 29.855469 29.539062 30.332031 C 29.539062 30.8125 29.535156 30.875 29.46875 30.976562 C 29.429688 31.039062 29.398438 31.121094 29.398438 31.15625 C 29.398438 31.191406 29.375 31.261719 29.34375 31.304688 C 29.308594 31.347656 29.269531 31.40625 29.25 31.4375 C 29.089844 31.691406 29.140625 31.640625 24.433594 36.367188 C 22.496094 38.308594 21.457031 39.332031 21.332031 39.40625 C 21 39.617188 20.753906 39.710938 20.316406 39.804688 C 20.15625 39.835938 19.859375 39.835938 19.699219 39.800781 Z M 5.566406 20.550781 C 5.566406 20.523438 5.589844 20.5 5.617188 20.5 C 5.644531 20.5 5.667969 20.523438 5.667969 20.550781 C 5.667969 20.578125 5.644531 20.601562 5.617188 20.601562 C 5.589844 20.601562 5.566406 20.578125 5.566406 20.550781 Z M 5.441406 20.417969 C 5.433594 20.386719 5.433594 20.355469 5.441406 20.347656 C 5.472656 20.316406 5.535156 20.367188 5.535156 20.421875 C 5.535156 20.484375 5.46875 20.480469 5.441406 20.417969 Z M 5.324219 20.277344 C 5.292969 20.246094 5.296875 19.867188 5.328125 19.785156 C 5.351562 19.734375 5.359375 19.746094 5.375 19.851562 C 5.421875 20.105469 5.390625 20.347656 5.324219 20.277344 Z M 0.367188 19.316406 C 0.367188 19.148438 0.398438 19.085938 0.449219 19.171875 C 0.484375 19.21875 0.4375 19.5 0.398438 19.5 C 0.378906 19.5 0.367188 19.417969 0.367188 19.316406 Z M 0.511719 18.945312 C 0.5 18.921875 0.507812 18.878906 0.53125 18.855469 C 0.558594 18.828125 0.566406 18.84375 0.566406 18.910156 C 0.566406 19.011719 0.542969 19.027344 0.511719 18.945312 Z M 0.511719 18.945312 "/>
<path style=" stroke:none;fill-rule:nonzero;fill:rgb(96.470588%,17.647059%,23.921569%);fill-opacity:1;" d="M 32.082031 27.695312 C 32.03125 27.679688 31.878906 27.648438 31.753906 27.632812 C 31.625 27.613281 31.496094 27.578125 31.464844 27.550781 C 31.4375 27.523438 31.390625 27.5 31.367188 27.5 C 31.25 27.5 30.601562 26.964844 30.601562 26.871094 C 30.601562 26.855469 30.570312 26.816406 30.535156 26.785156 C 30.496094 26.75 30.464844 26.703125 30.464844 26.675781 C 30.464844 26.648438 30.4375 26.589844 30.402344 26.539062 C 30.371094 26.488281 30.328125 26.382812 30.320312 26.304688 C 30.308594 26.222656 30.277344 26.125 30.25 26.089844 C 30.214844 26.035156 30.199219 25.921875 30.199219 25.648438 C 30.199219 25.339844 30.210938 25.265625 30.265625 25.183594 C 30.304688 25.128906 30.332031 25.03125 30.332031 24.964844 C 30.332031 24.886719 30.355469 24.824219 30.398438 24.785156 C 30.4375 24.75 30.464844 24.699219 30.464844 24.675781 C 30.464844 24.648438 30.5 24.578125 30.542969 24.523438 C 30.683594 24.328125 32.167969 22.875 32.375 22.726562 C 32.464844 22.660156 32.472656 22.664062 32.480469 22.785156 C 32.484375 22.828125 32.515625 22.851562 32.582031 22.867188 C 32.640625 22.878906 32.746094 22.949219 32.824219 23.027344 C 32.898438 23.101562 32.992188 23.167969 33.035156 23.167969 C 33.070312 23.167969 33.15625 23.226562 33.230469 23.300781 C 33.308594 23.378906 33.390625 23.433594 33.4375 23.433594 C 33.488281 23.433594 33.558594 23.484375 33.632812 23.566406 C 33.714844 23.660156 33.777344 23.699219 33.839844 23.699219 C 33.898438 23.699219 33.941406 23.726562 33.964844 23.765625 C 33.988281 23.808594 34.035156 23.832031 34.09375 23.832031 C 34.160156 23.832031 34.222656 23.875 34.308594 23.964844 C 34.386719 24.050781 34.460938 24.101562 34.511719 24.101562 C 34.5625 24.101562 34.636719 24.148438 34.714844 24.234375 C 34.777344 24.308594 34.875 24.375 34.921875 24.378906 C 34.96875 24.390625 35.074219 24.457031 35.148438 24.535156 C 35.230469 24.613281 35.316406 24.667969 35.367188 24.667969 C 35.421875 24.671875 35.484375 24.714844 35.550781 24.796875 C 35.632812 24.902344 35.660156 24.921875 35.714844 24.894531 C 35.753906 24.875 35.785156 24.875 35.808594 24.894531 C 35.851562 24.9375 35.8125 25 35.746094 25 C 35.71875 25 35.699219 25.015625 35.699219 25.035156 C 35.699219 25.058594 35.578125 25.191406 35.433594 25.34375 C 33.847656 26.964844 33.476562 27.332031 33.441406 27.332031 C 33.425781 27.332031 33.375 27.359375 33.328125 27.398438 C 33.285156 27.429688 33.214844 27.46875 33.167969 27.484375 C 33.121094 27.496094 33.058594 27.527344 33.035156 27.550781 C 33.007812 27.574219 32.878906 27.609375 32.75 27.628906 C 32.625 27.648438 32.464844 27.679688 32.398438 27.699219 C 32.261719 27.738281 32.21875 27.738281 32.082031 27.695312 Z M 35.832031 24.820312 C 35.832031 24.785156 35.863281 24.765625 35.902344 24.765625 C 35.984375 24.765625 35.972656 24.84375 35.890625 24.859375 C 35.855469 24.867188 35.832031 24.851562 35.832031 24.820312 Z M 19.535156 24.664062 C 19.398438 24.628906 19.214844 24.601562 19.132812 24.601562 C 19.046875 24.601562 18.921875 24.570312 18.851562 24.535156 C 18.777344 24.496094 18.679688 24.464844 18.632812 24.464844 C 18.585938 24.464844 18.507812 24.4375 18.449219 24.398438 C 18.398438 24.363281 18.320312 24.332031 18.28125 24.332031 C 18.238281 24.332031 18.175781 24.304688 18.132812 24.265625 C 18.089844 24.230469 18.035156 24.199219 18.007812 24.199219 C 17.980469 24.199219 17.875 24.144531 17.769531 24.078125 C 17.667969 24.007812 17.558594 23.9375 17.527344 23.917969 C 17.230469 23.742188 16.710938 23.242188 16.417969 22.851562 C 16.378906 22.804688 16.324219 22.734375 16.292969 22.695312 C 16.261719 22.664062 16.234375 22.609375 16.234375 22.582031 C 16.234375 22.558594 16.203125 22.503906 16.167969 22.464844 C 16.128906 22.429688 16.09375 22.363281 16.078125 22.320312 C 16.070312 22.273438 16.039062 22.21875 16.011719 22.195312 C 15.988281 22.175781 15.964844 22.125 15.964844 22.082031 C 15.964844 22.042969 15.9375 21.96875 15.898438 21.921875 C 15.863281 21.875 15.832031 21.796875 15.832031 21.738281 C 15.832031 21.6875 15.804688 21.609375 15.765625 21.566406 C 15.714844 21.511719 15.699219 21.441406 15.699219 21.3125 C 15.699219 21.132812 15.757812 21.035156 15.789062 21.164062 C 15.804688 21.214844 15.832031 21.234375 15.902344 21.234375 C 15.964844 21.234375 16.011719 21.257812 16.035156 21.300781 C 16.0625 21.355469 16.101562 21.367188 16.296875 21.367188 C 16.480469 21.367188 16.535156 21.378906 16.582031 21.433594 C 16.628906 21.488281 16.6875 21.5 16.84375 21.5 C 17.003906 21.5 17.058594 21.511719 17.125 21.574219 C 17.1875 21.628906 17.234375 21.644531 17.398438 21.636719 C 17.5625 21.628906 17.601562 21.640625 17.667969 21.707031 C 17.726562 21.769531 17.761719 21.78125 17.929688 21.773438 C 18.101562 21.761719 18.136719 21.773438 18.230469 21.851562 C 18.324219 21.929688 18.355469 21.941406 18.503906 21.925781 C 18.648438 21.914062 18.6875 21.921875 18.765625 21.988281 C 18.84375 22.054688 18.898438 22.066406 19.074219 22.066406 C 19.246094 22.066406 19.289062 22.078125 19.328125 22.132812 C 19.359375 22.191406 19.402344 22.199219 19.597656 22.199219 C 19.78125 22.199219 19.832031 22.214844 19.882812 22.265625 C 19.929688 22.320312 19.988281 22.332031 20.148438 22.332031 C 20.3125 22.332031 20.371094 22.347656 20.417969 22.398438 C 20.464844 22.453125 20.519531 22.464844 20.703125 22.464844 C 20.898438 22.464844 20.9375 22.476562 20.964844 22.535156 C 20.996094 22.589844 21.035156 22.601562 21.234375 22.601562 C 21.429688 22.601562 21.472656 22.609375 21.507812 22.667969 C 21.542969 22.722656 21.585938 22.734375 21.761719 22.734375 C 21.941406 22.734375 21.992188 22.746094 22.058594 22.808594 C 22.121094 22.863281 22.167969 22.875 22.328125 22.871094 C 22.496094 22.863281 22.535156 22.875 22.601562 22.941406 C 22.660156 23.003906 22.695312 23.011719 22.863281 23.007812 C 23.035156 22.996094 23.070312 23.007812 23.148438 23.078125 C 23.246094 23.171875 23.316406 23.191406 23.351562 23.132812 C 23.359375 23.117188 23.398438 23.101562 23.4375 23.101562 C 23.519531 23.101562 23.519531 23.199219 23.433594 23.222656 C 23.398438 23.234375 23.367188 23.257812 23.367188 23.273438 C 23.367188 23.324219 22.894531 23.765625 22.84375 23.765625 C 22.816406 23.765625 22.789062 23.785156 22.78125 23.8125 C 22.769531 23.839844 22.71875 23.875 22.667969 23.898438 C 22.613281 23.921875 22.5625 23.960938 22.554688 23.988281 C 22.542969 24.011719 22.515625 24.035156 22.488281 24.035156 C 22.464844 24.035156 22.398438 24.070312 22.332031 24.117188 C 22.269531 24.164062 22.199219 24.199219 22.171875 24.199219 C 22.148438 24.199219 22.089844 24.230469 22.042969 24.265625 C 21.996094 24.304688 21.925781 24.332031 21.890625 24.332031 C 21.851562 24.332031 21.796875 24.355469 21.765625 24.382812 C 21.734375 24.414062 21.648438 24.441406 21.578125 24.453125 C 21.507812 24.464844 21.398438 24.5 21.332031 24.535156 C 21.269531 24.5625 21.101562 24.601562 20.964844 24.609375 C 20.828125 24.625 20.65625 24.652344 20.582031 24.679688 C 20.390625 24.753906 19.847656 24.742188 19.535156 24.664062 Z M 36 24.683594 C 36 24.65625 36.023438 24.632812 36.054688 24.632812 C 36.101562 24.632812 36.101562 24.644531 36.066406 24.683594 C 36.042969 24.710938 36.019531 24.734375 36.011719 24.734375 C 36.007812 24.734375 36 24.710938 36 24.683594 Z M 23.507812 23.027344 C 23.523438 22.976562 23.601562 22.964844 23.601562 23.015625 C 23.601562 23.035156 23.578125 23.058594 23.546875 23.058594 C 23.511719 23.070312 23.496094 23.058594 23.507812 23.027344 Z M 15.566406 20.875 C 15.566406 20.785156 15.582031 20.691406 15.601562 20.667969 C 15.625 20.628906 15.632812 20.640625 15.632812 20.71875 C 15.632812 20.777344 15.644531 20.875 15.652344 20.929688 C 15.671875 21.011719 15.664062 21.035156 15.621094 21.035156 C 15.578125 21.035156 15.566406 21 15.566406 20.875 Z M 15.566406 20.875 "/>
</g>
</svg>
