<?xml version="1.0" encoding="UTF-8"?>
<svg xmlns="http://www.w3.org/2000/svg" xmlns:xlink="http://www.w3.org/1999/xlink" width="40px" height="px" viewBox="0 0 40 40" version="1.1">
<defs>
<clipPath id="clip1">
  <path d="M 0 2.800781 L 40 2.800781 L 40 37 L 0 37 Z M 0 2.800781 "/>
</clipPath>
</defs>
<g id="surface1">
<g clip-path="url(#clip1)" clip-rule="nonzero">
<path style=" stroke:none;fill-rule:nonzero;fill:rgb(100%,100%,100%);fill-opacity:1;" d="M 19.316406 2.800781 C 21.484375 2.867188 23.4375 4.136719 24.367188 6.097656 L 28.078125 13.90625 L 28.140625 13.753906 C 28.289062 13.367188 28.40625 12.96875 28.5 12.5625 L 28.554688 12.320312 C 29.179688 9.191406 32.21875 7.167969 35.355469 7.785156 C 38.484375 8.414062 40.511719 11.457031 39.886719 14.585938 C 39.054688 18.75 36.902344 22.617188 33.820312 25.679688 L 33.722656 25.773438 L 35.023438 28.507812 C 36.535156 31.6875 34.96875 35.527344 31.679688 36.601562 L 31.53125 36.648438 L 31.417969 36.683594 C 30.914062 36.824219 30.394531 36.898438 29.871094 36.898438 C 27.640625 36.898438 25.609375 35.613281 24.652344 33.601562 L 23.644531 31.488281 L 23.390625 31.550781 C 22.042969 31.871094 20.664062 32.046875 19.277344 32.078125 L 18.902344 32.082031 C 17.578125 32.082031 16.230469 31.925781 14.882812 31.628906 L 14.617188 31.566406 L 13.652344 33.597656 C 13 34.964844 11.839844 36.023438 10.414062 36.542969 L 10.242188 36.601562 C 8.746094 37.09375 7.109375 36.957031 5.71875 36.214844 C 2.972656 34.753906 1.929688 31.339844 3.265625 28.519531 L 4.464844 26 L 4.359375 25.898438 C 2.71875 24.277344 1.414062 22.433594 0.550781 20.453125 L 0.4375 20.183594 L 0.417969 20.140625 C -0.769531 17.183594 0.65625 13.816406 3.613281 12.621094 C 5.929688 11.683594 8.5 12.355469 10.078125 14.117188 L 10.109375 14.152344 L 13.929688 6.117188 C 14.851562 4.144531 16.8125 2.859375 18.988281 2.800781 Z M 19.316406 2.800781 "/>
</g>
<path style=" stroke:none;fill-rule:nonzero;fill:rgb(10.196078%,0%,49.803922%);fill-opacity:1;" d="M 13.613281 29.371094 L 17.035156 22.171875 C 14.421875 21.617188 11.792969 20 10.304688 18.03125 L 6.726562 25.554688 C 8.714844 27.242188 11.101562 28.566406 13.613281 29.371094 "/>
<path style=" stroke:none;fill-rule:nonzero;fill:rgb(30.588235%,0%,3.921569%);fill-opacity:1;" d="M 27.890625 17.816406 C 26.171875 19.925781 23.785156 21.488281 21.230469 22.09375 L 24.640625 29.273438 C 27.128906 28.429688 29.457031 27.074219 31.46875 25.332031 Z M 27.890625 17.816406 "/>
<path style=" stroke:none;fill-rule:nonzero;fill:rgb(10.196078%,0%,49.803922%);fill-opacity:1;" d="M 6.726562 25.554688 L 4.9375 29.316406 C 4.027344 31.226562 4.710938 33.582031 6.585938 34.578125 C 8.574219 35.636719 11.019531 34.8125 11.980469 32.800781 L 13.613281 29.371094 C 11.089844 28.558594 8.753906 27.261719 6.726562 25.554688 "/>
<path style=" stroke:none;fill-rule:nonzero;fill:rgb(100%,57.647059%,58.823529%);fill-opacity:1;" d="M 34.992188 9.605469 C 32.863281 9.179688 30.792969 10.5625 30.367188 12.6875 C 29.992188 14.574219 29.109375 16.332031 27.890625 17.824219 L 31.460938 25.34375 C 34.757812 22.484375 37.195312 18.589844 38.066406 14.230469 C 38.492188 12.09375 37.113281 10.027344 34.992188 9.605469 "/>
<path style=" stroke:none;fill-rule:nonzero;fill:rgb(0%,17.647059%,78.431373%);fill-opacity:1;" d="M 21.230469 22.09375 C 20.46875 22.28125 19.6875 22.375 18.902344 22.375 C 18.273438 22.371094 17.648438 22.304688 17.035156 22.171875 C 14.421875 21.617188 11.792969 20 10.304688 18.03125 C 9.933594 17.542969 9.628906 17.03125 9.421875 16.507812 C 8.605469 14.5 6.316406 13.527344 4.308594 14.335938 C 2.296875 15.152344 1.328125 17.441406 2.136719 19.449219 C 3.058594 21.734375 4.683594 23.832031 6.726562 25.554688 C 8.75 27.261719 11.085938 28.554688 13.605469 29.371094 C 15.335938 29.925781 17.128906 30.230469 18.898438 30.230469 C 20.859375 30.230469 22.792969 29.890625 24.636719 29.273438 Z M 21.230469 22.09375 "/>
<path style=" stroke:none;fill-rule:nonzero;fill:rgb(100%,32.54902%,41.568627%);fill-opacity:1;" d="M 33.347656 29.300781 L 31.460938 25.332031 L 27.890625 17.816406 L 27.882812 17.824219 C 27.882812 17.824219 27.882812 17.816406 27.890625 17.816406 L 22.695312 6.890625 C 22.046875 5.523438 20.664062 4.652344 19.152344 4.648438 C 17.636719 4.652344 16.257812 5.523438 15.605469 6.890625 L 10.308594 18.03125 C 11.796875 20 14.425781 21.617188 17.039062 22.171875 L 18.75 18.570312 C 18.914062 18.230469 19.398438 18.230469 19.558594 18.570312 L 21.234375 22.09375 L 21.246094 22.09375 L 21.234375 22.09375 L 24.644531 29.273438 L 26.320312 32.796875 C 26.972656 34.167969 28.355469 35.039062 29.871094 35.039062 C 30.226562 35.035156 30.578125 34.988281 30.917969 34.890625 C 33.28125 34.238281 34.402344 31.519531 33.347656 29.300781 "/>
</g>
</svg>
