<?xml version="1.0" encoding="UTF-8"?>
<svg xmlns="http://www.w3.org/2000/svg" xmlns:xlink="http://www.w3.org/1999/xlink" width="40px" height="px" viewBox="0 0 40 40" version="1.1">
<g id="surface1">
<path style=" stroke:none;fill-rule:nonzero;fill:rgb(100%,100%,100%);fill-opacity:1;" d="M 34.941406 8.167969 L 22.332031 0.675781 C 20.839844 -0.203125 18.976562 -0.203125 17.449219 0.675781 L 4.839844 8.167969 C 3.347656 9.050781 2.398438 10.710938 2.398438 12.507812 L 2.398438 27.492188 C 2.398438 29.289062 3.316406 30.914062 4.839844 31.828125 L 17.449219 39.320312 C 18.195312 39.761719 19.042969 40 19.890625 40 C 20.738281 40 21.585938 39.761719 22.332031 39.320312 L 34.941406 31.828125 C 36.433594 30.949219 37.382812 29.289062 37.382812 27.492188 L 37.382812 12.472656 C 37.382812 10.710938 36.46875 9.050781 34.941406 8.167969 "/>
<path style=" stroke:none;fill-rule:nonzero;fill:rgb(16.470588%,19.607843%,21.960784%);fill-opacity:1;" d="M 34.941406 8.167969 L 22.332031 0.675781 C 21.585938 0.238281 20.738281 0 19.890625 0 C 19.042969 0 18.195312 0.238281 17.449219 0.679688 L 4.839844 8.167969 C 3.347656 9.050781 2.398438 10.710938 2.398438 12.507812 L 2.398438 27.492188 C 2.398438 29.289062 3.316406 30.914062 4.839844 31.828125 L 17.449219 39.320312 C 18.195312 39.761719 19.042969 40 19.890625 40 C 20.738281 40 21.585938 39.761719 22.332031 39.320312 L 34.941406 31.828125 C 36.433594 30.949219 37.382812 29.289062 37.382812 27.492188 L 37.382812 12.472656 C 37.382812 10.710938 36.46875 9.050781 34.941406 8.167969 M 17.890625 38.507812 L 5.28125 31.015625 C 4.0625 30.269531 3.28125 28.914062 3.28125 27.457031 L 3.28125 12.472656 C 3.28125 11.015625 4.0625 9.625 5.28125 8.914062 L 17.890625 1.421875 C 18.503906 1.050781 19.179688 0.882812 19.890625 0.882812 C 20.605469 0.882812 21.28125 1.085938 21.890625 1.421875 L 34.503906 8.914062 C 35.554688 9.523438 36.230469 10.609375 36.433594 11.796875 C 36.027344 10.914062 35.078125 10.644531 33.960938 11.289062 L 22.0625 18.675781 C 20.570312 19.558594 19.484375 20.507812 19.484375 22.304688 L 19.484375 37.015625 C 19.484375 38.101562 19.925781 38.777344 20.570312 38.984375 C 20.367188 39.015625 20.128906 39.050781 19.890625 39.050781 C 19.214844 39.085938 18.5 38.882812 17.890625 38.507812 "/>
<path style=" stroke:none;fill-rule:nonzero;fill:rgb(30.196078%,66.27451%,14.509804%);fill-opacity:1;" d="M 31.65625 28.914062 L 28.5 30.777344 C 28.433594 30.8125 28.367188 30.878906 28.367188 30.984375 L 28.367188 31.796875 C 28.367188 31.898438 28.433594 31.929688 28.503906 31.898438 L 31.6875 29.964844 C 31.757812 29.929688 31.789062 29.828125 31.789062 29.726562 L 31.789062 29.015625 C 31.789062 28.914062 31.722656 28.878906 31.652344 28.914062 "/>
<path style=" stroke:none;fill-rule:nonzero;fill:rgb(100%,100%,100%);fill-opacity:1;" d="M 24.941406 22 C 25.042969 21.933594 25.113281 22 25.144531 22.136719 L 25.144531 23.21875 C 25.585938 23.050781 25.992188 22.984375 26.367188 23.085938 C 26.433594 23.117188 26.46875 23.21875 26.433594 23.320312 L 26.195312 24.269531 L 26.09375 24.472656 C 26.0625 24.507812 26.0625 24.507812 26.027344 24.507812 C 25.992188 24.507812 25.960938 24.542969 25.925781 24.507812 C 25.757812 24.472656 25.382812 24.371094 24.773438 24.710938 C 24.128906 25.050781 23.890625 25.59375 23.925781 26 C 23.925781 26.507812 24.195312 26.644531 25.042969 26.644531 C 26.195312 26.675781 26.707031 27.1875 26.738281 28.339844 C 26.738281 29.492188 26.128906 30.746094 25.179688 31.492188 L 25.214844 32.574219 C 25.214844 32.710938 25.144531 32.847656 25.042969 32.914062 L 24.398438 33.289062 C 24.296875 33.355469 24.230469 33.289062 24.195312 33.152344 L 24.195312 32.101562 C 23.652344 32.339844 23.113281 32.371094 22.738281 32.238281 C 22.671875 32.203125 22.636719 32.101562 22.671875 32 L 22.910156 31.015625 C 22.941406 30.949219 22.976562 30.847656 23.011719 30.8125 C 23.042969 30.78125 23.042969 30.78125 23.078125 30.78125 C 23.113281 30.746094 23.144531 30.746094 23.179688 30.78125 C 23.550781 30.914062 24.0625 30.847656 24.5 30.609375 C 25.113281 30.304688 25.484375 29.695312 25.484375 29.085938 C 25.484375 28.542969 25.179688 28.304688 24.46875 28.304688 C 23.550781 28.304688 22.707031 28.136719 22.671875 26.78125 C 22.671875 25.660156 23.246094 24.507812 24.164062 23.796875 L 24.164062 22.710938 C 24.164062 22.574219 24.230469 22.441406 24.332031 22.371094 Z M 24.941406 22 "/>
</g>
</svg>
