<?xml version="1.0" encoding="UTF-8"?>
<svg xmlns="http://www.w3.org/2000/svg" xmlns:xlink="http://www.w3.org/1999/xlink" width="40px" height="px" viewBox="0 0 40 40" version="1.1">
<defs>
<linearGradient id="linear0" gradientUnits="userSpaceOnUse" x1="6.703" y1="31.25" x2="93.294" y2="31.25" gradientTransform="matrix(0.4,0,0,0.4,0,0)">
<stop offset="0" style="stop-color:rgb(85.098039%,18.823529%,14.509804%);stop-opacity:1;"/>
<stop offset="1" style="stop-color:rgb(91.764706%,26.27451%,20.784314%);stop-opacity:1;"/>
</linearGradient>
<linearGradient id="linear1" gradientUnits="userSpaceOnUse" x1="43.171" y1="99.332" x2="86.466" y2="24.341" gradientTransform="matrix(0.4,0,0,0.4,0,0)">
<stop offset="0" style="stop-color:rgb(98.823529%,78.823529%,20.392157%);stop-opacity:1;"/>
<stop offset="1" style="stop-color:rgb(98.431373%,73.72549%,1.568627%);stop-opacity:1;"/>
</linearGradient>
<linearGradient id="linear2" gradientUnits="userSpaceOnUse" x1="55.413" y1="96.879" x2="12.117" y2="21.888" gradientTransform="matrix(0.4,0,0,0.4,0,0)">
<stop offset="0" style="stop-color:rgb(11.764706%,55.686275%,24.313725%);stop-opacity:1;"/>
<stop offset="1" style="stop-color:rgb(20.392157%,65.882353%,32.54902%);stop-opacity:1;"/>
</linearGradient>
</defs>
<g id="surface1">
<path style=" stroke:none;fill-rule:nonzero;fill:rgb(100%,100%,100%);fill-opacity:1;" d="M 20 29.996094 C 25.523438 29.996094 30 25.519531 30 19.996094 C 30 14.472656 25.523438 9.996094 20 9.996094 C 14.476562 9.996094 10 14.472656 10 19.996094 C 10 25.519531 14.476562 29.996094 20 29.996094 "/>
<path style=" stroke:none;fill-rule:nonzero;fill:url(#linear0);" d="M 20 10 L 37.316406 10 C 33.746094 3.8125 27.144531 0 20 0 C 12.855469 0 6.253906 3.8125 2.679688 10.003906 L 11.339844 25 L 11.347656 25 C 9.554688 21.90625 9.550781 18.09375 11.335938 14.996094 C 13.121094 11.902344 16.425781 9.996094 20 10 "/>
<path style=" stroke:none;fill-rule:nonzero;fill:rgb(10.196078%,45.098039%,90.980392%);fill-opacity:1;" d="M 20 27.917969 C 24.371094 27.917969 27.917969 24.371094 27.917969 20 C 27.917969 15.628906 24.371094 12.082031 20 12.082031 C 15.628906 12.082031 12.082031 15.628906 12.082031 20 C 12.082031 24.371094 15.628906 27.917969 20 27.917969 "/>
<path style=" stroke:none;fill-rule:nonzero;fill:url(#linear1);" d="M 28.660156 25.003906 L 20 40 C 27.144531 40 33.75 36.191406 37.320312 30 C 40.890625 23.8125 40.890625 16.191406 37.316406 10.003906 L 20 10.003906 L 19.996094 10.011719 C 23.570312 10.003906 26.875 11.90625 28.664062 15.003906 C 30.453125 18.097656 30.449219 21.910156 28.660156 25.003906 "/>
<path style=" stroke:none;fill-rule:nonzero;fill:url(#linear2);" d="M 11.339844 25.003906 L 2.679688 10.003906 C -0.890625 16.191406 -0.890625 23.816406 2.679688 30.003906 C 6.253906 36.191406 12.855469 40 20.003906 40 L 28.660156 25.003906 L 28.65625 24.996094 C 26.875 28.09375 23.574219 30.003906 20 30.007812 C 16.425781 30.007812 13.125 28.101562 11.339844 25.003906 "/>
</g>
</svg>
