<?xml version="1.0" encoding="UTF-8"?>
<svg xmlns="http://www.w3.org/2000/svg" xmlns:xlink="http://www.w3.org/1999/xlink" width="40px" height="px" viewBox="0 0 40 40" version="1.1">
<g id="surface1">
<path style=" stroke:none;fill-rule:nonzero;fill:rgb(14.901961%,30.196078%,89.411765%);fill-opacity:1;" d="M 37.671875 0 L 34.457031 35.996094 L 20.011719 40 L 5.609375 36 L 2.398438 0 Z M 37.671875 0 "/>
<path style=" stroke:none;fill-rule:nonzero;fill:rgb(16.078431%,39.607843%,94.509804%);fill-opacity:1;" d="M 31.707031 33.703125 L 34.453125 2.945312 L 20.035156 2.945312 L 20.035156 36.941406 Z M 31.707031 33.703125 "/>
<path style=" stroke:none;fill-rule:nonzero;fill:rgb(92.156863%,92.156863%,92.156863%);fill-opacity:1;" d="M 9.757812 16.296875 L 10.15625 20.710938 L 20.035156 20.710938 L 20.035156 16.296875 Z M 20.035156 7.359375 L 8.964844 7.359375 L 9.363281 11.773438 L 20.035156 11.773438 Z M 20.035156 32.359375 L 20.035156 27.761719 L 20.015625 27.769531 L 15.097656 26.441406 L 14.785156 22.917969 L 10.351562 22.917969 L 10.96875 29.851562 L 20.015625 32.363281 Z M 20.035156 32.359375 "/>
<path style=" stroke:none;fill-rule:nonzero;fill:rgb(100%,100%,100%);fill-opacity:1;" d="M 25.457031 20.710938 L 24.945312 26.4375 L 20.019531 27.765625 L 20.019531 32.359375 L 29.070312 29.851562 L 29.136719 29.105469 L 30.175781 17.480469 L 30.285156 16.296875 L 31.078125 7.359375 L 20.019531 7.359375 L 20.019531 11.773438 L 26.242188 11.773438 L 25.839844 16.296875 L 20.019531 16.296875 L 20.019531 20.710938 Z M 25.457031 20.710938 "/>
</g>
</svg>
