<?xml version="1.0" encoding="UTF-8"?>
<svg xmlns="http://www.w3.org/2000/svg" xmlns:xlink="http://www.w3.org/1999/xlink" width="40px" height="px" viewBox="0 0 40 40" version="1.1">
<g id="surface1">
<path style=" stroke:none;fill-rule:nonzero;fill:rgb(14.117647%,58.823529%,92.941176%);fill-opacity:1;" d="M 39.605469 16.4375 C 39.496094 16.347656 38.484375 15.585938 36.347656 15.585938 C 35.785156 15.585938 35.222656 15.636719 34.664062 15.730469 C 34.253906 12.894531 31.910156 11.515625 31.804688 11.453125 L 31.230469 11.121094 L 30.855469 11.664062 C 30.382812 12.398438 30.035156 13.203125 29.835938 14.050781 C 29.453125 15.667969 29.683594 17.1875 30.507812 18.484375 C 29.515625 19.039062 27.921875 19.175781 27.601562 19.1875 L 1.253906 19.1875 C 0.5625 19.1875 0.00390625 19.742188 0 20.429688 C -0.0273438 22.738281 0.363281 25.035156 1.15625 27.203125 C 2.0625 29.582031 3.414062 31.335938 5.171875 32.410156 C 7.140625 33.613281 10.339844 34.304688 13.964844 34.304688 C 15.601562 34.308594 17.234375 34.160156 18.847656 33.859375 C 21.085938 33.449219 23.238281 32.667969 25.21875 31.546875 C 26.851562 30.601562 28.320312 29.398438 29.566406 27.984375 C 31.65625 25.621094 32.898438 22.992188 33.824219 20.652344 L 34.191406 20.652344 C 36.476562 20.652344 37.882812 19.738281 38.660156 18.972656 C 39.171875 18.480469 39.574219 17.886719 39.835938 17.226562 L 40 16.746094 Z M 39.605469 16.4375 "/>
<path style=" stroke:none;fill-rule:nonzero;fill:rgb(14.117647%,58.823529%,92.941176%);fill-opacity:1;" d="M 3.695312 18.414062 L 7.226562 18.414062 C 7.308594 18.414062 7.386719 18.382812 7.441406 18.324219 C 7.5 18.265625 7.535156 18.1875 7.535156 18.105469 L 7.535156 14.960938 C 7.535156 14.878906 7.503906 14.800781 7.445312 14.742188 C 7.386719 14.683594 7.308594 14.652344 7.226562 14.652344 L 3.695312 14.652344 C 3.523438 14.652344 3.386719 14.789062 3.386719 14.960938 L 3.386719 18.105469 C 3.386719 18.1875 3.417969 18.265625 3.476562 18.324219 C 3.535156 18.382812 3.613281 18.414062 3.695312 18.414062 M 8.558594 18.414062 L 12.089844 18.414062 C 12.261719 18.414062 12.398438 18.277344 12.398438 18.105469 L 12.398438 14.960938 C 12.398438 14.878906 12.367188 14.800781 12.308594 14.742188 C 12.253906 14.683594 12.175781 14.652344 12.09375 14.652344 L 8.558594 14.652344 C 8.390625 14.652344 8.25 14.789062 8.25 14.960938 L 8.25 18.105469 C 8.25 18.277344 8.390625 18.414062 8.558594 18.414062 M 13.5 18.414062 L 17.03125 18.414062 C 17.199219 18.414062 17.339844 18.277344 17.339844 18.105469 L 17.339844 14.960938 C 17.339844 14.878906 17.308594 14.800781 17.25 14.742188 C 17.191406 14.683594 17.113281 14.652344 17.03125 14.652344 L 13.5 14.652344 C 13.328125 14.652344 13.191406 14.789062 13.191406 14.960938 L 13.191406 18.105469 C 13.191406 18.1875 13.222656 18.265625 13.28125 18.324219 C 13.339844 18.382812 13.417969 18.414062 13.5 18.414062 M 18.382812 18.414062 L 21.910156 18.414062 C 22.082031 18.414062 22.222656 18.277344 22.222656 18.105469 L 22.222656 14.960938 C 22.222656 14.789062 22.082031 14.652344 21.910156 14.652344 L 18.382812 14.652344 C 18.300781 14.652344 18.222656 14.683594 18.164062 14.742188 C 18.105469 14.800781 18.074219 14.878906 18.074219 14.960938 L 18.074219 18.105469 C 18.074219 18.1875 18.105469 18.265625 18.164062 18.324219 C 18.21875 18.382812 18.300781 18.414062 18.378906 18.414062 M 8.558594 13.890625 L 12.089844 13.890625 C 12.261719 13.890625 12.398438 13.75 12.398438 13.578125 L 12.398438 10.433594 C 12.398438 10.265625 12.261719 10.125 12.089844 10.125 L 8.558594 10.125 C 8.390625 10.125 8.25 10.265625 8.25 10.433594 L 8.25 13.578125 C 8.25 13.75 8.390625 13.890625 8.558594 13.890625 M 13.5 13.890625 L 17.03125 13.890625 C 17.203125 13.890625 17.339844 13.75 17.339844 13.578125 L 17.339844 10.433594 C 17.339844 10.265625 17.199219 10.125 17.03125 10.125 L 13.5 10.125 C 13.417969 10.125 13.339844 10.160156 13.28125 10.21875 C 13.222656 10.273438 13.191406 10.351562 13.191406 10.433594 L 13.191406 13.578125 C 13.191406 13.75 13.328125 13.890625 13.5 13.890625 M 18.382812 13.890625 L 21.910156 13.890625 C 22.082031 13.890625 22.222656 13.75 22.222656 13.578125 L 22.222656 10.433594 C 22.222656 10.265625 22.082031 10.125 21.910156 10.125 L 18.382812 10.125 C 18.300781 10.125 18.222656 10.160156 18.164062 10.21875 C 18.105469 10.273438 18.074219 10.351562 18.074219 10.433594 L 18.074219 13.578125 C 18.074219 13.75 18.210938 13.890625 18.378906 13.890625 M 18.382812 9.363281 L 21.910156 9.363281 C 22.082031 9.363281 22.222656 9.226562 22.222656 9.054688 L 22.222656 5.90625 C 22.222656 5.738281 22.082031 5.601562 21.910156 5.601562 L 18.382812 5.601562 C 18.300781 5.601562 18.222656 5.632812 18.164062 5.691406 C 18.105469 5.746094 18.074219 5.828125 18.074219 5.90625 L 18.074219 9.054688 C 18.074219 9.226562 18.210938 9.363281 18.378906 9.363281 M 23.304688 18.414062 L 26.835938 18.414062 C 27.007812 18.414062 27.144531 18.277344 27.144531 18.105469 L 27.144531 14.960938 C 27.144531 14.789062 27.007812 14.652344 26.835938 14.652344 L 23.304688 14.652344 C 23.136719 14.652344 22.996094 14.789062 22.996094 14.960938 L 22.996094 18.105469 C 22.996094 18.1875 23.03125 18.265625 23.085938 18.324219 C 23.144531 18.382812 23.222656 18.414062 23.304688 18.414062 "/>
</g>
</svg>
