<?xml version="1.0" encoding="UTF-8"?>
<svg xmlns="http://www.w3.org/2000/svg" xmlns:xlink="http://www.w3.org/1999/xlink" width="40px" height="px" viewBox="0 0 40 40" version="1.1">
<g id="surface1">
<path style=" stroke:none;fill-rule:nonzero;fill:rgb(17.647059%,81.568627%,92.941176%);fill-opacity:1;" d="M 14.617188 8.597656 C 9.390625 7.644531 5.257812 8.640625 3.609375 11.496094 C 2.382812 13.625 2.734375 16.445312 4.464844 19.464844 C 4.609375 19.722656 4.9375 19.808594 5.195312 19.664062 C 5.453125 19.515625 5.539062 19.1875 5.394531 18.929688 C 3.835938 16.210938 3.53125 13.777344 4.539062 12.03125 C 5.90625 9.660156 9.59375 8.773438 14.425781 9.652344 C 14.605469 9.6875 14.785156 9.628906 14.914062 9.5 C 15.039062 9.371094 15.09375 9.1875 15.054688 9.011719 C 15.007812 8.796875 14.835938 8.632812 14.617188 8.597656 Z M 7.179688 23.132812 C 9.292969 25.453125 12.039062 27.632812 15.171875 29.441406 C 22.753906 33.820312 30.828125 34.988281 34.804688 32.277344 C 35.050781 32.109375 35.113281 31.777344 34.945312 31.53125 C 34.78125 31.285156 34.445312 31.222656 34.203125 31.390625 C 30.640625 33.820312 22.972656 32.707031 15.707031 28.511719 C 12.671875 26.757812 10.011719 24.648438 7.972656 22.410156 C 7.847656 22.261719 7.648438 22.191406 7.457031 22.230469 C 7.265625 22.269531 7.109375 22.410156 7.050781 22.597656 C 6.992188 22.785156 7.042969 22.992188 7.179688 23.132812 "/>
<path style=" stroke:none;fill-rule:nonzero;fill:rgb(17.647059%,81.568627%,92.941176%);fill-opacity:1;" d="M 33.535156 22.480469 C 36.960938 18.4375 38.15625 14.371094 36.511719 11.523438 C 35.300781 9.425781 32.742188 8.320312 29.347656 8.277344 C 29.058594 8.285156 28.824219 8.519531 28.820312 8.804688 C 28.816406 9.09375 29.042969 9.335938 29.332031 9.347656 C 32.386719 9.390625 34.589844 10.339844 35.582031 12.058594 C 36.945312 14.421875 35.882812 18.050781 32.71875 21.785156 C 32.589844 21.933594 32.550781 22.136719 32.613281 22.320312 C 32.675781 22.503906 32.835938 22.636719 33.027344 22.671875 C 33.21875 22.703125 33.414062 22.628906 33.535156 22.480469 M 24.742188 8.777344 C 21.644531 9.441406 18.351562 10.734375 15.1875 12.5625 C 7.359375 17.082031 2.253906 23.746094 2.964844 28.578125 C 2.984375 28.773438 3.113281 28.9375 3.292969 29.011719 C 3.476562 29.085938 3.683594 29.054688 3.832031 28.933594 C 3.984375 28.808594 4.058594 28.613281 4.023438 28.421875 C 3.394531 24.132812 8.234375 17.8125 15.722656 13.492188 C 18.792969 11.71875 21.980469 10.464844 24.964844 9.824219 C 25.25 9.757812 25.429688 9.476562 25.367188 9.191406 C 25.304688 8.902344 25.027344 8.71875 24.742188 8.777344 "/>
<path style=" stroke:none;fill-rule:nonzero;fill:rgb(17.647059%,81.568627%,92.941176%);fill-opacity:1;" d="M 12.058594 31.925781 C 13.847656 36.921875 16.777344 40 20.070312 40 C 22.46875 40 24.691406 38.363281 26.421875 35.480469 C 26.5625 35.261719 26.523438 34.976562 26.332031 34.800781 C 26.140625 34.625 25.851562 34.609375 25.644531 34.769531 C 25.585938 34.8125 25.539062 34.867188 25.503906 34.929688 C 23.949219 37.519531 22.035156 38.929688 20.070312 38.929688 C 17.335938 38.929688 14.722656 36.183594 13.070312 31.566406 C 13.023438 31.429688 12.925781 31.316406 12.792969 31.253906 C 12.664062 31.191406 12.515625 31.183594 12.378906 31.230469 C 12.242188 31.28125 12.132812 31.378906 12.074219 31.511719 C 12.011719 31.640625 12.007812 31.792969 12.058594 31.925781 Z M 28.40625 30.949219 C 29.332031 27.988281 29.828125 24.574219 29.828125 21.015625 C 29.828125 12.136719 26.722656 4.480469 22.292969 2.515625 C 22.027344 2.402344 21.714844 2.523438 21.597656 2.792969 C 21.480469 3.058594 21.59375 3.371094 21.859375 3.492188 C 25.808594 5.246094 28.757812 12.511719 28.757812 21.015625 C 28.757812 24.46875 28.273438 27.773438 27.382812 30.628906 C 27.300781 30.875 27.402344 31.144531 27.632812 31.273438 C 27.773438 31.351562 27.945312 31.359375 28.097656 31.296875 C 28.246094 31.234375 28.359375 31.105469 28.40625 30.949219 M 38.5 30.425781 C 38.515625 29.5 38.035156 28.640625 37.242188 28.171875 C 36.445312 27.703125 35.460938 27.695312 34.660156 28.15625 C 33.859375 28.613281 33.367188 29.46875 33.371094 30.390625 C 33.375 31.796875 34.511719 32.9375 35.917969 32.945312 C 37.324219 32.953125 38.476562 31.832031 38.5 30.425781 M 37.429688 30.425781 C 37.4375 30.964844 37.152344 31.464844 36.6875 31.738281 C 36.222656 32.011719 35.644531 32.011719 35.179688 31.738281 C 34.714844 31.464844 34.433594 30.964844 34.441406 30.421875 C 34.457031 29.609375 35.121094 28.953125 35.933594 28.953125 C 36.75 28.953125 37.414062 29.609375 37.429688 30.425781 M 4.164062 32.988281 C 5.582031 32.988281 6.730469 31.839844 6.730469 30.425781 C 6.730469 29.007812 5.582031 27.859375 4.164062 27.859375 C 3.242188 27.847656 2.382812 28.332031 1.917969 29.132812 C 1.453125 29.929688 1.453125 30.917969 1.917969 31.714844 C 2.382812 32.515625 3.242188 33 4.164062 32.988281 M 4.164062 31.917969 C 3.339844 31.917969 2.671875 31.25 2.671875 30.425781 C 2.671875 29.597656 3.339844 28.929688 4.164062 28.929688 C 4.992188 28.929688 5.660156 29.597656 5.660156 30.425781 C 5.660156 31.25 4.992188 31.917969 4.164062 31.917969 "/>
<path style=" stroke:none;fill-rule:nonzero;fill:rgb(17.647059%,81.568627%,92.941176%);fill-opacity:1;" d="M 20.070312 5.132812 C 21.484375 5.132812 22.632812 3.984375 22.632812 2.566406 C 22.632812 1.148438 21.484375 0 20.070312 0 C 18.652344 0 17.503906 1.148438 17.503906 2.566406 C 17.503906 3.980469 18.652344 5.128906 20.070312 5.128906 M 20.070312 4.058594 C 19.359375 4.058594 18.746094 3.554688 18.605469 2.855469 C 18.46875 2.160156 18.839844 1.460938 19.496094 1.1875 C 20.054688 0.953125 20.699219 1.082031 21.125 1.507812 C 21.554688 1.9375 21.679688 2.578125 21.449219 3.136719 C 21.21875 3.695312 20.671875 4.058594 20.070312 4.058594 Z M 20.460938 22.828125 C 19.660156 23 18.84375 22.628906 18.449219 21.914062 C 18.050781 21.203125 18.167969 20.3125 18.734375 19.722656 C 18.988281 19.460938 19.316406 19.277344 19.675781 19.199219 C 20.667969 19.003906 21.636719 19.640625 21.847656 20.628906 C 22.0625 21.617188 21.445312 22.597656 20.460938 22.828125 "/>
</g>
</svg>
