<?xml version="1.0" encoding="UTF-8"?>
<svg xmlns="http://www.w3.org/2000/svg" xmlns:xlink="http://www.w3.org/1999/xlink" width="40px" height="px" viewBox="0 0 40 40" version="1.1">
<g id="surface1">
<path style=" stroke:none;fill-rule:nonzero;fill:rgb(50.196078%,50.196078%,94.901961%);fill-opacity:1;" d="M 12.183594 14.988281 L 19.769531 10.605469 C 19.960938 10.496094 20.195312 10.496094 20.386719 10.605469 L 27.972656 14.988281 C 28.164062 15.097656 28.28125 15.300781 28.28125 15.519531 L 28.28125 24.285156 C 28.28125 24.503906 28.164062 24.707031 27.972656 24.816406 L 20.386719 29.195312 C 20.195312 29.304688 19.960938 29.304688 19.769531 29.195312 L 12.183594 24.816406 C 11.992188 24.707031 11.875 24.503906 11.875 24.285156 L 11.875 15.519531 C 11.875 15.300781 11.992188 15.097656 12.183594 14.988281 "/>
<path style=" stroke:none;fill-rule:nonzero;fill:rgb(29.411765%,19.607843%,76.470588%);fill-opacity:1;" d="M 39.753906 19.183594 L 30.675781 3.390625 C 30.34375 2.820312 29.738281 2.402344 29.078125 2.402344 L 10.921875 2.402344 C 10.261719 2.402344 9.652344 2.820312 9.324219 3.390625 L 0.246094 19.148438 C -0.0820312 19.726562 -0.0820312 20.433594 0.246094 21.011719 L 9.324219 36.675781 C 9.652344 37.246094 10.261719 37.539062 10.921875 37.539062 L 29.078125 37.539062 C 29.738281 37.539062 30.34375 37.253906 30.675781 36.683594 L 39.753906 20.996094 C 40.082031 20.4375 40.082031 19.742188 39.753906 19.183594 M 32.234375 26.777344 C 32.234375 27.011719 32.097656 27.226562 31.894531 27.339844 L 20.332031 34.011719 C 20.128906 34.128906 19.882812 34.128906 19.679688 34.011719 L 8.109375 27.339844 C 7.90625 27.226562 7.765625 27.011719 7.765625 26.777344 L 7.765625 13.4375 C 7.765625 13.203125 7.90625 12.988281 8.105469 12.871094 L 19.667969 6.203125 C 19.871094 6.085938 20.121094 6.085938 20.320312 6.203125 L 31.894531 12.871094 C 32.09375 12.988281 32.238281 13.203125 32.238281 13.4375 Z M 32.234375 26.777344 "/>
</g>
</svg>
