<?xml version="1.0" encoding="UTF-8"?>
<svg xmlns="http://www.w3.org/2000/svg" xmlns:xlink="http://www.w3.org/1999/xlink" width="40px" height="px" viewBox="0 0 40 40" version="1.1">
<g id="surface1">
<path style=" stroke:none;fill-rule:nonzero;fill:rgb(0%,0%,0%);fill-opacity:1;" d="M 30.363281 19.429688 C 32.824219 19.597656 35.023438 17.914062 35.507812 15.496094 C 34.914062 14.582031 33.894531 14.027344 32.804688 14.027344 C 31.511719 14 30.328125 14.746094 29.796875 15.921875 C 29.265625 17.097656 29.488281 18.480469 30.363281 19.429688 Z M 18.890625 5.871094 L 25.589844 1.992188 L 23.457031 0.789062 L 14.222656 6.136719 L 14.957031 6.550781 L 16.355469 7.332031 L 18.890625 5.867188 Z M 26.449219 1.632812 C 26.5625 1.667969 26.648438 1.757812 26.6875 1.867188 L 29.789062 11.359375 C 29.847656 11.519531 29.78125 11.699219 29.632812 11.789062 C 27.175781 13.234375 25.988281 16.148438 26.738281 18.902344 C 27.554688 21.886719 30.410156 23.84375 33.488281 23.53125 C 33.65625 23.519531 33.820312 23.625 33.871094 23.785156 L 37.074219 33.535156 C 37.125 33.699219 37.0625 33.875 36.917969 33.964844 L 27.09375 39.929688 C 27.046875 39.957031 26.992188 39.972656 26.9375 39.976562 C 26.847656 39.992188 26.753906 39.972656 26.679688 39.921875 L 23.222656 37.675781 C 23.164062 37.636719 23.113281 37.582031 23.085938 37.515625 L 16.34375 21.398438 L 6.070312 27.492188 C 6.050781 27.503906 6.027344 27.515625 6.003906 27.527344 C 5.898438 27.574219 5.773438 27.5625 5.675781 27.503906 L 3.355469 26.136719 C 3.1875 26.042969 3.125 25.832031 3.210938 25.660156 L 13.152344 5.976562 C 13.1875 5.902344 13.246094 5.84375 13.320312 5.8125 L 23.265625 0.0507812 C 23.378906 -0.015625 23.515625 -0.0195312 23.632812 0.046875 Z M 16.050781 8.007812 L 14.109375 6.914062 L 13.632812 6.644531 L 4.019531 25.679688 L 5.765625 26.707031 L 14.050781 15.441406 C 14.125 15.332031 14.257812 15.273438 14.390625 15.292969 C 14.519531 15.304688 14.632812 15.390625 14.683594 15.511719 L 23.714844 37.128906 L 26.132812 38.691406 L 16.460938 9.246094 Z M 32.804688 21.203125 C 31.015625 21.203125 29.449219 20 28.984375 18.273438 C 28.519531 16.542969 29.273438 14.71875 30.824219 13.824219 C 32.375 12.929688 34.332031 13.183594 35.597656 14.449219 C 36.339844 15.191406 36.753906 16.195312 36.753906 17.242188 C 36.757812 18.292969 36.34375 19.300781 35.601562 20.042969 C 34.859375 20.785156 33.855469 21.203125 32.804688 21.203125 Z M 32.804688 21.203125 "/>
</g>
</svg>
