<?xml version="1.0" encoding="UTF-8"?>
<svg xmlns="http://www.w3.org/2000/svg" xmlns:xlink="http://www.w3.org/1999/xlink" width="40px" height="px" viewBox="0 0 40 40" version="1.1">
<g id="surface1">
<path style=" stroke:none;fill-rule:nonzero;fill:rgb(87.058824%,29.803922%,21.176471%);fill-opacity:1;" d="M 39.246094 18.21875 L 21.78125 0.753906 C 20.777344 -0.25 19.144531 -0.25 18.136719 0.753906 L 14.511719 4.382812 L 19.113281 8.980469 C 20.214844 8.605469 21.4375 8.890625 22.257812 9.714844 C 23.085938 10.542969 23.371094 11.773438 22.988281 12.882812 L 27.421875 17.316406 C 28.492188 16.945312 29.730469 17.183594 30.585938 18.042969 C 31.785156 19.238281 31.785156 21.179688 30.585938 22.378906 C 29.554688 23.414062 27.933594 23.574219 26.71875 22.765625 C 25.5 21.953125 25.027344 20.394531 25.585938 19.042969 L 21.449219 14.910156 L 21.449219 25.789062 C 21.75 25.9375 22.023438 26.132812 22.257812 26.371094 C 23.457031 27.566406 23.457031 29.507812 22.257812 30.703125 C 21.0625 31.902344 19.121094 31.902344 17.925781 30.703125 C 17.199219 29.980469 16.886719 28.941406 17.085938 27.933594 C 17.289062 26.929688 17.980469 26.089844 18.929688 25.699219 L 18.929688 14.71875 C 18.550781 14.5625 18.210938 14.335938 17.925781 14.046875 C 17.046875 13.167969 16.785156 11.84375 17.265625 10.699219 L 12.730469 6.164062 L 0.753906 18.136719 C -0.25 19.144531 -0.25 20.773438 0.753906 21.78125 L 18.21875 39.246094 C 19.226562 40.25 20.855469 40.25 21.863281 39.246094 L 39.246094 21.863281 C 40.25 20.855469 40.25 19.222656 39.246094 18.21875 "/>
</g>
</svg>
