<?xml version="1.0" encoding="UTF-8"?>
<svg xmlns="http://www.w3.org/2000/svg" xmlns:xlink="http://www.w3.org/1999/xlink" width="40px" height="px" viewBox="0 0 40 40" version="1.1">
<g id="surface1">
<path style=" stroke:none;fill-rule:nonzero;fill:rgb(89.411765%,30.196078%,14.901961%);fill-opacity:1;" d="M 5.609375 36.015625 L 2.398438 0 L 37.675781 0 L 34.464844 35.996094 L 20.007812 40 "/>
<path style=" stroke:none;fill-rule:nonzero;fill:rgb(94.509804%,39.607843%,16.078431%);fill-opacity:1;" d="M 20.039062 36.9375 L 20.039062 2.957031 L 34.457031 2.957031 L 31.703125 33.679688 "/>
<path style=" stroke:none;fill-rule:nonzero;fill:rgb(92.156863%,92.156863%,92.156863%);fill-opacity:1;" d="M 8.953125 7.359375 L 20.039062 7.359375 L 20.039062 11.773438 L 13.796875 11.773438 L 14.203125 16.296875 L 20.039062 16.296875 L 20.039062 20.699219 L 10.160156 20.699219 Z M 10.351562 22.917969 L 14.785156 22.917969 L 15.097656 26.445312 L 20.039062 27.769531 L 20.039062 32.378906 L 10.976562 29.847656 "/>
<path style=" stroke:none;fill-rule:nonzero;fill:rgb(100%,100%,100%);fill-opacity:1;" d="M 31.082031 7.359375 L 20.019531 7.359375 L 20.019531 11.773438 L 30.671875 11.773438 Z M 30.273438 16.296875 L 20.019531 16.296875 L 20.019531 20.710938 L 25.460938 20.710938 L 24.945312 26.445312 L 20.019531 27.769531 L 20.019531 32.359375 L 29.058594 29.847656 "/>
</g>
</svg>
