<?xml version="1.0" encoding="UTF-8"?>
<svg xmlns="http://www.w3.org/2000/svg" xmlns:xlink="http://www.w3.org/1999/xlink" width="40px" height="px" viewBox="0 0 40 40" version="1.1">
<g id="surface1">
<rect x="0" y="0" width="40" height="40" style="fill:rgb(96.862745%,87.45098%,11.764706%);fill-opacity:1;stroke:none;"/>
<path style=" stroke:none;fill-rule:nonzero;fill:rgb(0%,0%,0%);fill-opacity:1;" d="M 26.871094 31.25 C 27.675781 32.566406 28.722656 33.53125 30.578125 33.53125 C 32.136719 33.53125 33.128906 32.753906 33.128906 31.679688 C 33.128906 30.390625 32.109375 29.933594 30.394531 29.183594 L 29.453125 28.78125 C 26.742188 27.625 24.941406 26.175781 24.941406 23.117188 C 24.941406 20.296875 27.085938 18.152344 30.445312 18.152344 C 32.835938 18.152344 34.550781 18.984375 35.789062 21.160156 L 32.863281 23.039062 C 32.21875 21.886719 31.523438 21.429688 30.445312 21.429688 C 29.34375 21.429688 28.644531 22.128906 28.644531 23.039062 C 28.644531 24.167969 29.34375 24.625 30.957031 25.324219 L 31.898438 25.726562 C 35.089844 27.09375 36.894531 28.492188 36.894531 31.628906 C 36.894531 35.015625 34.234375 36.867188 30.664062 36.867188 C 27.175781 36.867188 24.917969 35.207031 23.816406 33.023438 Z M 13.589844 31.574219 C 14.183594 32.625 14.71875 33.507812 16.011719 33.507812 C 17.246094 33.507812 18.023438 33.027344 18.023438 31.148438 L 18.023438 18.367188 L 21.785156 18.367188 L 21.785156 31.199219 C 21.785156 35.089844 19.5 36.863281 16.171875 36.863281 C 13.160156 36.863281 11.417969 35.304688 10.53125 33.429688 Z M 13.589844 31.574219 "/>
</g>
</svg>
