<?xml version="1.0" encoding="UTF-8"?>
<svg xmlns="http://www.w3.org/2000/svg" xmlns:xlink="http://www.w3.org/1999/xlink" width="40px" height="px" viewBox="0 0 39 39" version="1.1">
<defs>
<linearGradient id="linear0" gradientUnits="userSpaceOnUse" x1="51.366" y1="28.024" x2="51.366" y2="72.36" gradientTransform="matrix(0.382353,0,0,0.39,0,0)">
<stop offset="0.15" style="stop-color:rgb(16.470588%,30.980392%,51.764706%);stop-opacity:1;"/>
<stop offset="0.388" style="stop-color:rgb(16.078431%,30.588235%,50.980392%);stop-opacity:1;"/>
<stop offset="1" style="stop-color:rgb(9.019608%,18.039216%,30.588235%);stop-opacity:1;"/>
</linearGradient>
</defs>
<g id="surface1">
<path style=" stroke:none;fill-rule:nonzero;fill:url(#linear0);" d="M 36.648438 24.886719 C 36.648438 26.71875 35.179688 28.21875 33.378906 28.21875 L 5.898438 28.21875 C 4.101562 28.21875 2.628906 26.71875 2.628906 24.886719 L 2.628906 14.265625 C 2.628906 12.429688 4.101562 10.929688 5.898438 10.929688 L 33.378906 10.929688 C 35.179688 10.929688 36.648438 12.429688 36.648438 14.265625 Z M 36.648438 24.886719 "/>
<path style=" stroke:none;fill-rule:nonzero;fill:rgb(96.470588%,96.470588%,96.470588%);fill-opacity:1;" d="M 30.902344 19.347656 C 32.335938 19.859375 33.054688 20.738281 33.054688 21.980469 C 33.054688 22.800781 32.757812 23.449219 32.164062 23.929688 C 31.570312 24.410156 30.722656 24.707031 29.621094 24.707031 C 28.519531 24.707031 27.5 24.382812 26.5625 23.847656 C 26.570312 23.5625 26.644531 23.253906 26.78125 22.914062 C 26.914062 22.578125 27.074219 22.308594 27.257812 22.113281 C 28.121094 22.570312 28.871094 22.796875 29.507812 22.796875 C 29.808594 22.796875 30.042969 22.746094 30.203125 22.644531 C 30.367188 22.539062 30.449219 22.402344 30.449219 22.226562 C 30.449219 21.898438 30.199219 21.652344 29.703125 21.488281 L 28.8125 21.148438 C 27.460938 20.644531 26.785156 19.828125 26.785156 18.691406 C 26.785156 17.863281 27.070312 17.207031 27.636719 16.71875 C 28.203125 16.234375 28.96875 15.816406 29.929688 15.816406 C 30.402344 15.816406 30.925781 15.886719 31.5 16.023438 C 32.070312 16.160156 32.539062 16.496094 32.90625 16.679688 C 32.929688 16.984375 32.871094 17.320312 32.730469 17.6875 C 32.589844 18.050781 32.417969 18.308594 32.210938 18.464844 C 31.304688 18.046875 30.546875 17.839844 29.945312 17.839844 C 29.726562 17.839844 29.5625 17.890625 29.449219 17.988281 C 29.339844 18.082031 29.277344 18.21875 29.28125 18.367188 C 29.28125 18.628906 29.484375 18.835938 29.894531 18.988281 Z M 23.726562 19.347656 C 25.164062 19.859375 25.882812 20.738281 25.882812 21.980469 C 25.878906 22.800781 25.582031 23.449219 24.988281 23.929688 C 24.394531 24.410156 23.550781 24.707031 22.449219 24.707031 C 21.347656 24.707031 20.324219 24.382812 19.386719 23.847656 C 19.398438 23.5625 19.46875 23.253906 19.605469 22.914062 C 19.742188 22.578125 19.898438 22.308594 20.082031 22.113281 C 20.949219 22.570312 21.699219 22.796875 22.335938 22.796875 C 22.636719 22.796875 22.867188 22.746094 23.03125 22.644531 C 23.191406 22.539062 23.273438 22.402344 23.273438 22.226562 C 23.273438 21.898438 23.027344 21.652344 22.527344 21.488281 L 21.636719 21.148438 C 20.289062 20.644531 19.613281 19.828125 19.613281 18.691406 C 19.613281 17.863281 19.898438 17.207031 20.464844 16.71875 C 21.03125 16.234375 21.792969 15.816406 22.753906 15.816406 C 23.230469 15.816406 23.753906 15.886719 24.324219 16.023438 C 24.898438 16.160156 25.367188 16.496094 25.734375 16.679688 C 25.753906 16.984375 25.695312 17.320312 25.554688 17.6875 C 25.414062 18.050781 25.242188 18.308594 25.039062 18.464844 C 24.128906 18.046875 23.375 17.839844 22.769531 17.839844 C 22.554688 17.839844 22.390625 17.890625 22.277344 17.988281 C 22.164062 18.082031 22.101562 18.21875 22.105469 18.367188 C 22.105469 18.628906 22.3125 18.835938 22.722656 18.988281 Z M 18.496094 19.464844 C 18.496094 18.960938 18.417969 18.5 18.261719 18.074219 C 18.113281 17.664062 17.886719 17.289062 17.589844 16.976562 C 17.296875 16.671875 16.945312 16.429688 16.527344 16.257812 C 16.113281 16.082031 15.644531 15.820312 15.128906 15.820312 C 14.511719 15.820312 13.976562 16.105469 13.515625 16.324219 C 13.058594 16.539062 12.679688 16.839844 12.382812 17.222656 C 12.085938 17.605469 11.863281 18.054688 11.71875 18.570312 C 11.574219 19.089844 11.5 19.652344 11.5 20.265625 C 11.5 20.898438 11.558594 21.480469 11.679688 22.015625 C 11.796875 22.550781 12 23.011719 12.285156 23.40625 C 12.570312 23.796875 12.945312 24.101562 13.402344 24.320312 C 13.863281 24.539062 14.433594 24.707031 15.113281 24.707031 C 16.363281 24.707031 17.421875 24.335938 18.285156 23.714844 C 18.199219 23.082031 17.980469 22.582031 17.625 22.210938 C 17.183594 22.378906 16.792969 22.5 16.453125 22.574219 C 16.117188 22.648438 15.816406 22.683594 15.558594 22.683594 C 15.042969 22.683594 14.671875 22.550781 14.445312 22.28125 C 14.222656 22.011719 14.097656 21.691406 14.074219 21.207031 L 18.285156 21.207031 C 18.425781 20.75 18.496094 20.128906 18.496094 19.464844 M 14.058594 19.578125 C 14.09375 19.019531 14.191406 18.425781 14.355469 18.179688 C 14.523438 17.933594 14.777344 17.8125 15.121094 17.8125 C 15.472656 17.8125 15.738281 17.941406 15.914062 18.203125 C 16.09375 18.464844 16.179688 18.992188 16.179688 19.394531 L 16.179688 19.578125 Z M 14.058594 19.578125 "/>
<path style="fill-rule:nonzero;fill:rgb(96.470588%,96.470588%,96.470588%);fill-opacity:1;stroke-width:0.539;stroke-linecap:butt;stroke-linejoin:miter;stroke:rgb(25.098039%,25.098039%,25.098039%);stroke-opacity:1;stroke-miterlimit:10;" d="M 98.066707 52.984776 C 96.871394 54.036458 96.176683 55.538862 96.176683 57.502003 L 96.176683 64.833734 C 96.176683 67.267628 95.430889 69.120593 93.734976 70.392628 C 92.049279 71.664663 90.077524 72.295673 87.829928 72.355769 L 86.501803 72.345753 L 86.501803 68.69992 C 87.676683 68.349359 88.156851 67.958734 88.626803 67.497997 C 89.47476 66.736779 90.118389 65.494792 90.118389 63.762019 L 90.118389 57.842548 C 90.149038 55.839343 90.302284 54.256811 91.037861 53.125 C 91.773438 51.983173 93.203726 50.991587 95.328726 50.130208 C 92.978966 49.058494 91.405649 47.65625 90.598558 45.923478 C 90.128606 44.891827 90.118389 43.509615 90.118389 41.756811 L 90.118389 36.338141 C 90.118389 34.545272 89.536058 33.293269 88.810697 32.572115 C 88.340745 32.101362 87.799279 31.730769 86.501803 31.450321 L 86.501803 28.02484 C 88.085337 28.034856 88.882212 28.02484 89.811899 28.02484 C 91.231971 28.014824 92.427284 28.786058 93.469351 29.597356 C 94.603365 30.488782 95.40024 31.690705 95.870192 33.203125 C 96.135817 34.074519 96.176683 34.915865 96.176683 35.707131 L 96.176683 41.987179 C 96.176683 44.200721 96.830529 45.843349 97.954327 46.92508 C 98.577524 47.546074 99.466346 48.116987 100.998798 48.627804 L 100.998798 51.46234 C 99.65024 51.842949 98.792067 52.34375 98.066707 52.984776 Z M 13.832933 28.02484 C 13.383413 28.02484 12.97476 28.02484 12.63762 28.02484 C 11.217548 28.014824 10.022236 28.796074 8.990385 29.607372 C 7.85637 30.498798 6.885817 31.650641 6.579327 33.203125 C 6.405649 34.124599 6.446514 34.915865 6.446514 35.717147 L 6.446514 41.987179 C 6.446514 44.200721 5.61899 45.843349 4.505409 46.92508 C 3.871995 47.546074 2.533654 48.116987 1.001202 48.637821 L 1.001202 51.472356 C 2.359976 51.842949 3.657452 52.34375 4.382812 52.984776 C 5.578125 54.036458 6.446514 55.538862 6.446514 57.512019 L 6.446514 64.833734 C 6.446514 67.267628 7.028846 69.120593 8.714543 70.392628 C 10.40024 71.664663 12.371995 72.295673 14.619591 72.355769 L 16.121394 72.345753 L 16.121394 68.69992 C 14.956731 68.349359 14.302885 67.958734 13.832933 67.497997 C 12.984976 66.736779 12.504808 65.494792 12.504808 63.762019 L 12.504808 57.852564 C 12.474159 55.839343 12.147236 54.266827 11.411659 53.125 C 10.686298 51.983173 9.25601 50.991587 7.120793 50.130208 C 9.470553 49.058494 11.04387 47.65625 11.850962 45.923478 C 12.320913 44.891827 12.504808 43.509615 12.504808 41.766827 L 12.504808 36.338141 C 12.504808 34.545272 12.923678 33.293269 13.638822 32.572115 C 14.027043 32.18149 14.731971 31.860978 15.692308 31.600561 L 17.22476 31.610577 L 17.22476 28.02484 Z M 13.832933 28.02484 " transform="matrix(0.382353,0,0,0.39,0,0)"/>
<path style=" stroke:none;fill-rule:nonzero;fill:rgb(96.470588%,96.470588%,96.470588%);fill-opacity:1;" d="M 10.675781 22.523438 L 10.238281 22.523438 C 9.761719 22.523438 9.582031 22.265625 9.582031 21.753906 L 9.582031 12.339844 C 9.582031 11.773438 9.421875 11.378906 9.21875 11.148438 C 9.011719 10.921875 8.65625 10.921875 8.148438 10.921875 L 7.042969 10.921875 L 7.042969 22.210938 C 7.042969 22.996094 7.214844 23.570312 7.523438 23.9375 C 7.832031 24.300781 8.351562 24.484375 9.085938 24.484375 C 9.59375 24.484375 10.171875 24.429688 10.820312 24.320312 C 10.851562 24.210938 10.867188 23.972656 10.867188 23.613281 C 10.867188 23.25 10.804688 22.886719 10.675781 22.523438 "/>
</g>
</svg>
