<?xml version="1.0" encoding="UTF-8"?>
<svg xmlns="http://www.w3.org/2000/svg" xmlns:xlink="http://www.w3.org/1999/xlink" width="40px" height="px" viewBox="0 0 40 40" version="1.1">
<g id="surface1">
<path style=" stroke:none;fill-rule:nonzero;fill:rgb(20%,60.392157%,94.117647%);fill-opacity:1;" d="M 39.792969 20 C 39.792969 8.953125 30.886719 0 19.898438 0 C 8.910156 0 0 8.953125 0 20 C 0 31.046875 8.910156 40 19.898438 40 C 30.886719 40 39.792969 31.046875 39.792969 20 Z M 39.792969 20 "/>
<path style=" stroke:none;fill-rule:nonzero;fill:rgb(100%,100%,100%);fill-opacity:1;" d="M 16.191406 10.5625 C 16.621094 10.519531 17.046875 10.65625 17.371094 10.945312 C 17.691406 11.230469 17.878906 11.640625 17.882812 12.070312 C 20.199219 13.796875 21.53125 16.4375 21.53125 19.316406 C 21.53125 22.191406 20.199219 24.832031 17.882812 26.558594 C 18.304688 26.941406 18.472656 27.535156 18.320312 28.082031 C 18.367188 28.277344 18.453125 28.460938 18.570312 28.621094 C 21.96875 25.222656 27.472656 25.222656 30.871094 28.621094 C 34.265625 32.015625 34.265625 37.519531 30.871094 40.917969 L 35.164062 40.917969 C 35.996094 40.917969 36.675781 40.238281 36.675781 39.398438 C 36.675781 38.558594 36 37.878906 35.164062 37.878906 L 32.792969 37.878906 C 32.792969 31.214844 38.195312 25.8125 44.859375 25.8125 C 51.523438 25.8125 56.921875 31.214844 56.921875 37.878906 C 56.921875 44.539062 51.523438 49.941406 44.859375 49.941406 L 47.230469 49.941406 C 48.066406 49.941406 48.742188 49.261719 48.742188 48.421875 C 48.742188 47.582031 48.066406 46.902344 47.230469 46.902344 L 20.261719 46.902344 C 19.707031 47.460938 19.101562 47.96875 18.449219 48.410156 L 19.96875 49.929688 L 19.964844 49.929688 Z M 16.191406 10.5625 "/>
<path style=" stroke:none;fill-rule:evenodd;fill:rgb(100%,100%,100%);fill-opacity:1;" d="M 13.800781 19.484375 C 13.792969 18.550781 14.347656 17.707031 15.207031 17.347656 C 16.066406 16.988281 17.054688 17.183594 17.714844 17.839844 C 18.371094 18.5 18.566406 19.492188 18.207031 20.347656 C 17.847656 21.207031 17.003906 21.761719 16.074219 21.753906 L 16.074219 24.945312 C 16.242188 25.277344 16.242188 26.195312 16.074219 27.1875 L 18.34375 27.1875 C 17.515625 26.800781 16.140625 26.507812 14.960938 26.460938 C 13.785156 26.417969 13.089844 26.636719 13.253906 26.996094 C 13.417969 27.359375 14.398438 27.777344 15.667969 28.027344 C 16.9375 28.273438 18.191406 28.292969 18.746094 28.074219 C 18.773438 27.089844 19.425781 26.234375 20.367188 25.953125 C 21.308594 25.667969 22.328125 26.019531 22.894531 26.824219 C 23.457031 27.628906 23.445312 28.703125 22.859375 29.496094 C 22.273438 30.285156 21.25 30.613281 20.316406 30.304688 L 22.546875 32.535156 L 24.828125 32.535156 Z M 13.800781 19.484375 "/>
</g>
</svg>
