<?xml version="1.0" encoding="UTF-8"?>
<svg xmlns="http://www.w3.org/2000/svg" xmlns:xlink="http://www.w3.org/1999/xlink" width="40px" height="40px" viewBox="0 0 40 40" version="1.1">
<g id="surface1">
<path style=" stroke:none;fill-rule:evenodd;fill:rgb(20%,60.392159%,94.117647%);fill-opacity:1;" d="M 20 0 C 31.046875 0 40 8.953125 40 20 C 40 31.046875 31.046875 40 20 40 C 8.953125 40 0 31.046875 0 20 C 0 8.953125 8.953125 0 20 0 Z M 20 0 "/>
<path style=" stroke:none;fill-rule:nonzero;fill:rgb(100%,100%,100%);fill-opacity:1;" d="M 16.164062 10.855469 C 15.664062 11.527344 15.804688 12.472656 16.480469 12.96875 C 18.808594 14.6875 20.144531 17.308594 20.144531 20.171875 C 20.144531 23.03125 18.808594 25.65625 16.480469 27.371094 C 15.804688 27.867188 15.664062 28.8125 16.164062 29.484375 C 16.664062 30.15625 17.617188 30.292969 18.292969 29.796875 C 19.011719 29.269531 19.667969 28.664062 20.253906 27.996094 L 24.570312 27.996094 C 25.410156 27.996094 26.089844 27.316406 26.089844 26.484375 C 26.089844 25.648438 25.410156 24.972656 24.570312 24.972656 L 22.183594 24.972656 C 22.839844 23.484375 23.1875 21.859375 23.1875 20.171875 C 23.1875 18.480469 22.839844 16.855469 22.183594 15.367188 L 24.570312 15.367188 C 25.410156 15.367188 26.089844 14.691406 26.089844 13.855469 C 26.089844 13.023438 25.410156 12.347656 24.570312 12.347656 L 20.253906 12.347656 C 19.667969 11.675781 19.011719 11.070312 18.292969 10.542969 C 17.617188 10.046875 16.664062 10.1875 16.164062 10.855469 Z M 16.164062 10.855469 "/>
<path style=" stroke:none;fill-rule:evenodd;fill:rgb(100%,100%,100%);fill-opacity:1;" d="M 13.757812 19.71875 C 13.757812 18.472656 14.769531 17.464844 16.015625 17.464844 C 17.261719 17.464844 18.269531 18.472656 18.269531 19.71875 C 18.269531 20.964844 17.261719 21.976562 16.015625 21.976562 C 14.769531 21.976562 13.757812 20.964844 13.757812 19.71875 Z M 13.757812 19.71875 "/>
</g>
</svg>
