<?xml version="1.0" encoding="UTF-8"?>
<svg xmlns="http://www.w3.org/2000/svg" xmlns:xlink="http://www.w3.org/1999/xlink" width="40px" height="px" viewBox="0 0 40 38" version="1.1">
<g id="surface1">
<path style="fill:none;stroke-width:5.051;stroke-linecap:butt;stroke-linejoin:miter;stroke:rgb(0%,0%,0%);stroke-opacity:1;stroke-miterlimit:4;" d="M 8.053516 20.004112 L 97.946484 20.004112 C 100.741406 20.004112 102.998047 22.265625 102.998047 25.051398 L 102.998047 74.547697 C 102.998047 77.33347 100.741406 79.594984 97.946484 79.594984 L 8.053516 79.594984 C 5.258594 79.594984 3.001953 77.33347 3.001953 74.547697 L 3.001953 25.051398 C 3.001953 22.265625 5.258594 20.004112 8.053516 20.004112 Z M 8.053516 20.004112 " transform="matrix(0.377358,0,0,0.38,0,0)"/>
<path style=" stroke:none;fill-rule:nonzero;fill:rgb(0%,0%,0%);fill-opacity:1;" d="M 5.898438 25.449219 L 5.898438 12.398438 L 9.707031 12.398438 L 13.519531 17.195312 L 17.332031 12.398438 L 21.144531 12.398438 L 21.144531 25.449219 L 17.332031 25.449219 L 17.332031 17.964844 L 13.519531 22.761719 L 9.707031 17.964844 L 9.707031 25.449219 Z M 29.71875 25.449219 L 24.003906 19.117188 L 27.8125 19.117188 L 27.8125 12.398438 L 31.625 12.398438 L 31.625 19.113281 L 35.4375 19.113281 Z M 29.71875 25.449219 "/>
</g>
</svg>
