<?xml version="1.0" encoding="UTF-8"?>
<svg xmlns="http://www.w3.org/2000/svg" xmlns:xlink="http://www.w3.org/1999/xlink" width="40px" height="px" viewBox="0 0 40 40" version="1.1">
<g id="surface1">
<path style=" stroke:none;fill-rule:nonzero;fill:rgb(0%,32.941176%,41.960784%);fill-opacity:1;" d="M 36.84375 30.828125 C 34.667969 30.773438 32.980469 30.992188 31.566406 31.601562 C 31.160156 31.765625 30.503906 31.765625 30.449219 32.289062 C 30.667969 32.511719 30.695312 32.871094 30.886719 33.175781 C 31.214844 33.726562 31.785156 34.472656 32.300781 34.859375 C 32.871094 35.300781 33.445312 35.742188 34.042969 36.128906 C 35.101562 36.792969 36.300781 37.179688 37.335938 37.839844 C 37.933594 38.226562 38.53125 38.726562 39.128906 39.140625 C 39.429688 39.359375 39.617188 39.71875 40 39.855469 L 40 39.773438 C 39.808594 39.527344 39.753906 39.167969 39.566406 38.890625 C 39.292969 38.613281 39.019531 38.367188 38.75 38.089844 C 37.960938 37.011719 36.980469 36.074219 35.917969 35.300781 C 35.046875 34.691406 33.144531 33.863281 32.789062 32.84375 L 32.738281 32.789062 C 33.335938 32.730469 34.042969 32.511719 34.613281 32.34375 C 35.539062 32.097656 36.382812 32.152344 37.332031 31.902344 C 37.769531 31.792969 38.203125 31.65625 38.640625 31.515625 L 38.640625 31.269531 C 38.148438 30.773438 37.796875 30.109375 37.28125 29.640625 C 35.890625 28.425781 34.367188 27.238281 32.789062 26.242188 C 31.945312 25.691406 30.859375 25.332031 29.960938 24.863281 C 29.636719 24.695312 29.089844 24.613281 28.902344 24.335938 C 28.410156 23.730469 28.136719 22.929688 27.785156 22.210938 C 26.996094 20.691406 26.234375 19.007812 25.554688 17.40625 C 25.0625 16.328125 24.765625 15.25 24.167969 14.257812 C 21.363281 9.5625 18.316406 6.71875 13.636719 3.929688 C 12.632812 3.347656 11.433594 3.101562 10.15625 2.796875 C 9.476562 2.769531 8.796875 2.714844 8.117188 2.6875 C 7.679688 2.492188 7.246094 1.96875 6.863281 1.71875 C 5.3125 0.726562 1.3125 -1.429688 0.171875 1.414062 C -0.5625 3.210938 1.261719 4.976562 1.886719 5.890625 C 2.347656 6.523438 2.945312 7.242188 3.273438 7.960938 C 3.464844 8.429688 3.519531 8.925781 3.707031 9.425781 C 4.144531 10.640625 4.550781 11.992188 5.125 13.125 C 5.421875 13.703125 5.75 14.3125 6.128906 14.835938 C 6.347656 15.140625 6.726562 15.277344 6.808594 15.777344 C 6.429688 16.328125 6.402344 17.15625 6.183594 17.847656 C 5.203125 20.96875 5.585938 24.835938 6.972656 27.125 C 7.40625 27.816406 8.441406 29.335938 9.828125 28.753906 C 11.054688 28.257812 10.78125 26.683594 11.136719 25.304688 C 11.21875 24.972656 11.164062 24.75 11.324219 24.53125 L 11.324219 24.585938 C 11.707031 25.359375 12.085938 26.105469 12.441406 26.878906 C 13.285156 28.230469 14.753906 29.640625 15.976562 30.578125 C 16.628906 31.074219 17.148438 31.929688 17.964844 32.234375 L 17.964844 32.152344 L 17.910156 32.152344 C 17.746094 31.902344 17.5 31.792969 17.285156 31.597656 C 16.792969 31.101562 16.25 30.496094 15.871094 29.941406 C 14.726562 28.394531 13.71875 26.683594 12.820312 24.917969 C 12.386719 24.0625 12.007812 23.121094 11.652344 22.265625 C 11.488281 21.933594 11.488281 21.4375 11.21875 21.273438 C 10.808594 21.878906 10.210938 22.402344 9.910156 23.148438 C 9.394531 24.335938 9.339844 25.800781 9.148438 27.320312 C 9.039062 27.347656 9.09375 27.320312 9.039062 27.375 C 8.171875 27.152344 7.871094 26.242188 7.542969 25.46875 C 6.726562 23.507812 6.59375 20.359375 7.300781 18.097656 C 7.488281 17.515625 8.304688 15.691406 7.980469 15.140625 C 7.816406 14.617188 7.273438 14.3125 6.972656 13.898438 C 6.621094 13.375 6.238281 12.710938 5.992188 12.128906 C 5.339844 10.585938 5.015625 8.871094 4.308594 7.324219 C 3.980469 6.609375 3.410156 5.863281 2.945312 5.199219 C 2.429688 4.453125 1.859375 3.929688 1.449219 3.046875 C 1.3125 2.742188 1.125 2.246094 1.339844 1.914062 C 1.394531 1.691406 1.503906 1.609375 1.722656 1.554688 C 2.074219 1.25 3.082031 1.636719 3.4375 1.800781 C 4.441406 2.21875 5.285156 2.605469 6.128906 3.183594 C 6.511719 3.460938 6.917969 3.984375 7.40625 4.121094 L 7.980469 4.121094 C 8.851562 4.316406 9.828125 4.175781 10.644531 4.425781 C 12.085938 4.894531 13.394531 5.585938 14.5625 6.332031 C 18.128906 8.625 21.066406 11.882812 23.050781 15.777344 C 23.378906 16.410156 23.511719 16.992188 23.8125 17.652344 C 24.382812 19.007812 25.089844 20.386719 25.664062 21.714844 C 26.234375 23.011719 26.777344 24.335938 27.59375 25.414062 C 28.003906 25.992188 29.632812 26.296875 30.371094 26.601562 C 30.914062 26.847656 31.757812 27.070312 32.246094 27.375 C 33.171875 27.953125 34.097656 28.617188 34.96875 29.253906 C 35.402344 29.582031 36.761719 30.273438 36.84375 30.828125 "/>
<path style=" stroke:none;fill-rule:nonzero;fill:rgb(0%,32.941176%,41.960784%);fill-opacity:1;" d="M 9.09375 6.828125 C 8.632812 6.828125 8.304688 6.886719 7.980469 6.96875 L 7.980469 7.023438 L 8.035156 7.023438 C 8.25 7.464844 8.632812 7.769531 8.902344 8.15625 C 9.121094 8.597656 9.3125 9.039062 9.53125 9.480469 L 9.585938 9.425781 C 9.964844 9.148438 10.15625 8.707031 10.15625 8.042969 C 9.992188 7.851562 9.964844 7.65625 9.828125 7.464844 C 9.667969 7.1875 9.3125 7.050781 9.09375 6.828125 "/>
</g>
</svg>
