<?xml version="1.0" encoding="UTF-8"?>
<svg xmlns="http://www.w3.org/2000/svg" xmlns:xlink="http://www.w3.org/1999/xlink" width="40px" height="px" viewBox="0 0 40 40" version="1.1">
<g id="surface1">
<path style=" stroke:none;fill-rule:nonzero;fill:rgb(54.901961%,78.431373%,29.411765%);fill-opacity:1;" d="M 18.511719 0.425781 C 19.503906 -0.140625 20.796875 -0.144531 21.785156 0.425781 C 26.773438 3.242188 31.757812 6.058594 36.742188 8.875 C 37.679688 9.402344 38.308594 10.445312 38.296875 11.527344 L 38.296875 28.476562 C 38.304688 29.601562 37.617188 30.667969 36.625 31.183594 C 31.65625 33.988281 26.691406 36.792969 21.722656 39.59375 C 20.710938 40.171875 19.394531 40.128906 18.414062 39.5 C 16.921875 38.636719 15.429688 37.777344 13.941406 36.914062 C 13.636719 36.734375 13.292969 36.589844 13.078125 36.292969 C 13.269531 36.039062 13.609375 36.007812 13.882812 35.894531 C 14.503906 35.695312 15.078125 35.378906 15.648438 35.070312 C 15.792969 34.972656 15.96875 35.011719 16.105469 35.097656 C 17.382812 35.828125 18.644531 36.582031 19.921875 37.304688 C 20.195312 37.460938 20.472656 37.253906 20.703125 37.121094 C 25.578125 34.367188 30.460938 31.621094 35.335938 28.863281 C 35.515625 28.773438 35.621094 28.585938 35.601562 28.386719 C 35.605469 22.796875 35.605469 17.203125 35.605469 11.613281 C 35.625 11.390625 35.496094 11.179688 35.292969 11.089844 C 30.339844 8.300781 25.390625 5.507812 20.441406 2.71875 C 20.265625 2.597656 20.035156 2.597656 19.859375 2.71875 C 14.90625 5.507812 9.957031 8.304688 5.007812 11.09375 C 4.804688 11.1875 4.667969 11.390625 4.691406 11.613281 C 4.695312 17.207031 4.695312 22.796875 4.691406 28.386719 C 4.675781 28.585938 4.785156 28.773438 4.960938 28.859375 C 6.285156 29.609375 7.605469 30.351562 8.929688 31.097656 C 9.671875 31.5 10.589844 31.738281 11.410156 31.429688 C 12.132812 31.171875 12.640625 30.433594 12.625 29.664062 C 12.632812 24.105469 12.621094 18.546875 12.632812 12.988281 C 12.613281 12.742188 12.847656 12.539062 13.085938 12.5625 C 13.722656 12.558594 14.359375 12.550781 14.992188 12.5625 C 15.257812 12.558594 15.441406 12.824219 15.40625 13.070312 C 15.40625 18.664062 15.414062 24.257812 15.402344 29.851562 C 15.40625 31.34375 14.792969 32.964844 13.414062 33.695312 C 11.714844 34.574219 9.613281 34.386719 7.9375 33.542969 C 6.484375 32.820312 5.097656 31.960938 3.671875 31.1875 C 2.679688 30.671875 1.992188 29.601562 2 28.476562 L 2 11.527344 C 1.988281 10.425781 2.640625 9.363281 3.609375 8.839844 C 8.578125 6.039062 13.542969 3.230469 18.511719 0.425781 "/>
<path style=" stroke:none;fill-rule:nonzero;fill:rgb(54.901961%,78.431373%,29.411765%);fill-opacity:1;" d="M 22.84375 12.167969 C 25.011719 12.027344 27.332031 12.085938 29.28125 13.152344 C 30.792969 13.96875 31.628906 15.6875 31.65625 17.363281 C 31.613281 17.589844 31.375 17.714844 31.160156 17.699219 C 30.53125 17.699219 29.902344 17.707031 29.273438 17.695312 C 29.007812 17.707031 28.851562 17.460938 28.820312 17.222656 C 28.640625 16.421875 28.203125 15.625 27.445312 15.238281 C 26.285156 14.660156 24.941406 14.6875 23.675781 14.699219 C 22.753906 14.75 21.761719 14.828125 20.980469 15.371094 C 20.378906 15.78125 20.195312 16.613281 20.410156 17.28125 C 20.613281 17.761719 21.167969 17.917969 21.621094 18.058594 C 24.230469 18.742188 27 18.675781 29.5625 19.574219 C 30.621094 19.9375 31.660156 20.652344 32.023438 21.761719 C 32.496094 23.25 32.289062 25.027344 31.230469 26.222656 C 30.371094 27.207031 29.121094 27.742188 27.875 28.03125 C 26.214844 28.402344 24.492188 28.410156 22.808594 28.246094 C 21.222656 28.066406 19.574219 27.652344 18.351562 26.570312 C 17.304688 25.664062 16.792969 24.246094 16.84375 22.882812 C 16.855469 22.652344 17.085938 22.492188 17.308594 22.507812 C 17.941406 22.503906 18.574219 22.503906 19.207031 22.511719 C 19.460938 22.492188 19.648438 22.710938 19.660156 22.949219 C 19.777344 23.714844 20.0625 24.515625 20.730469 24.96875 C 22.015625 25.800781 23.632812 25.742188 25.105469 25.765625 C 26.324219 25.710938 27.695312 25.695312 28.691406 24.890625 C 29.21875 24.429688 29.375 23.660156 29.230469 22.996094 C 29.078125 22.4375 28.492188 22.175781 27.988281 22.007812 C 25.414062 21.191406 22.613281 21.488281 20.0625 20.5625 C 19.023438 20.199219 18.023438 19.503906 17.625 18.441406 C 17.070312 16.933594 17.324219 15.070312 18.492188 13.914062 C 19.632812 12.769531 21.28125 12.324219 22.84375 12.167969 "/>
</g>
</svg>
