<?xml version="1.0" encoding="UTF-8"?>
<svg xmlns="http://www.w3.org/2000/svg" xmlns:xlink="http://www.w3.org/1999/xlink" width="40px" height="px" viewBox="0 0 40 40" version="1.1">
<g id="surface1">
<path style=" stroke:none;fill-rule:nonzero;fill:rgb(0%,86.27451%,50.980392%);fill-opacity:1;" d="M 22.441406 33.46875 L 37.308594 33.46875 C 37.78125 33.46875 38.246094 33.34375 38.65625 33.109375 C 39.0625 32.875 39.402344 32.539062 39.640625 32.132812 C 40.121094 31.308594 40.121094 30.289062 39.640625 29.46875 L 29.652344 12.324219 C 29.414062 11.917969 29.078125 11.582031 28.667969 11.347656 C 27.835938 10.871094 26.8125 10.871094 25.976562 11.347656 C 25.570312 11.582031 25.230469 11.917969 24.992188 12.324219 L 22.441406 16.710938 L 17.449219 8.132812 C 17.210938 7.726562 16.871094 7.390625 16.464844 7.15625 C 15.628906 6.679688 14.605469 6.679688 13.773438 7.15625 C 13.363281 7.390625 13.023438 7.726562 12.789062 8.132812 L 0.359375 29.46875 C -0.121094 30.289062 -0.121094 31.308594 0.359375 32.132812 C 0.597656 32.539062 0.9375 32.875 1.34375 33.109375 C 1.753906 33.34375 2.21875 33.464844 2.691406 33.46875 L 12.023438 33.46875 C 15.722656 33.46875 18.449219 31.855469 20.324219 28.714844 L 24.882812 20.894531 L 27.324219 16.710938 L 34.644531 29.28125 L 24.882812 29.28125 Z M 11.871094 29.277344 L 5.359375 29.277344 L 15.121094 12.515625 L 19.992188 20.894531 L 16.730469 26.496094 C 15.484375 28.535156 14.070312 29.277344 11.871094 29.277344 "/>
</g>
</svg>
