<?xml version="1.0" encoding="UTF-8"?>
<svg xmlns="http://www.w3.org/2000/svg" xmlns:xlink="http://www.w3.org/1999/xlink" width="40px" height="px" viewBox="0 0 40 40" version="1.1">
<defs>
<linearGradient id="linear0" gradientUnits="userSpaceOnUse" x1="3362.04" y1="-2594.66" x2="6131.73" y2="5154.58" gradientTransform="matrix(0.4,0,0,0.4,0,0)">
<stop offset="0" style="stop-color:rgb(32.156863%,80.784314%,38.823529%);stop-opacity:1;"/>
<stop offset="1" style="stop-color:rgb(31.764706%,63.529412%,33.72549%);stop-opacity:1;"/>
</linearGradient>
<linearGradient id="linear1" gradientUnits="userSpaceOnUse" x1="2693.69" y1="3367.46" x2="-5056.25" y2="6135.79" gradientTransform="matrix(0.4,0,0,0.4,0,0)">
<stop offset="0" style="stop-color:rgb(32.156863%,80.784314%,38.823529%);stop-opacity:1;"/>
<stop offset="1" style="stop-color:rgb(31.764706%,63.529412%,33.72549%);stop-opacity:1;"/>
</linearGradient>
<linearGradient id="linear2" gradientUnits="userSpaceOnUse" x1="3421.36" y1="414.914" x2="1891" y2="12878.7" gradientTransform="matrix(0.4,0,0,0.4,0,0)">
<stop offset="0" style="stop-color:rgb(54.117647%,91.372549%,61.176471%);stop-opacity:1;"/>
<stop offset="1" style="stop-color:rgb(32.156863%,80.784314%,38.823529%);stop-opacity:1;"/>
</linearGradient>
<linearGradient id="linear3" gradientUnits="userSpaceOnUse" x1="10237.6" y1="5782.55" x2="8584.34" y2="32930.3" gradientTransform="matrix(0.4,0,0,0.4,0,0)">
<stop offset="0" style="stop-color:rgb(100%,89.803922%,42.352941%);stop-opacity:1;"/>
<stop offset="1" style="stop-color:rgb(100%,77.647059%,22.745098%);stop-opacity:1;"/>
</linearGradient>
</defs>
<g id="surface1">
<path style=" stroke:none;fill-rule:evenodd;fill:url(#linear0);" d="M 17.726562 19.660156 C 20.402344 17.113281 19.585938 13.960938 17.164062 10.140625 C 14.742188 6.320312 9.863281 4.960938 8.953125 5.828125 C 8.042969 6.695312 7.839844 12.890625 10.265625 16.710938 C 12.6875 20.53125 15.050781 22.210938 17.726562 19.660156 "/>
<path style=" stroke:none;fill-rule:evenodd;fill:url(#linear1);" d="M 20.039062 20.011719 C 22.019531 23.132812 24.664062 21.992188 27.941406 18.871094 C 31.214844 15.753906 32.574219 9.773438 31.902344 8.714844 C 31.226562 7.652344 26.113281 7.707031 22.835938 10.824219 C 19.5625 13.945312 18.0625 16.894531 20.039062 20.015625 "/>
<path style=" stroke:none;fill-rule:evenodd;fill:url(#linear2);" d="M 18.957031 18.296875 C 22.246094 18.699219 23.539062 15.664062 24.140625 10.757812 C 24.742188 5.847656 22.257812 0.664062 21.140625 0.523438 C 20.023438 0.386719 16.269531 4.808594 15.664062 9.714844 C 15.0625 14.625 15.671875 17.894531 18.957031 18.296875 "/>
<path style=" stroke:none;fill-rule:evenodd;fill:url(#linear3);" d="M 18.128906 40 C 25.019531 40 30.609375 37.996094 30.609375 28.921875 C 30.609375 19.84375 25.019531 12.394531 18.128906 12.394531 C 11.242188 12.394531 5.65625 19.84375 5.65625 28.921875 C 5.65625 37.996094 11.242188 40 18.128906 40 "/>
<path style=" stroke:none;fill-rule:nonzero;fill:rgb(91.764706%,67.843137%,80%);fill-opacity:1;" d="M 24.433594 27.066406 C 25.417969 27.066406 26.214844 26.695312 26.214844 26.238281 C 26.214844 25.78125 25.417969 25.410156 24.433594 25.410156 C 23.449219 25.410156 22.652344 25.78125 22.652344 26.238281 C 22.652344 26.695312 23.449219 27.066406 24.433594 27.066406 M 11.234375 26.5625 C 12.210938 26.683594 13.046875 26.414062 13.105469 25.957031 C 13.160156 25.503906 12.414062 25.039062 11.4375 24.917969 C 10.460938 24.796875 9.621094 25.070312 9.566406 25.523438 C 9.511719 25.980469 10.257812 26.445312 11.234375 26.5625 "/>
<path style="fill:none;stroke-width:1.243;stroke-linecap:round;stroke-linejoin:round;stroke:rgb(0%,0%,0%);stroke-opacity:1;stroke-miterlimit:4;" d="M 48.183594 64.863281 C 46.835938 65.957031 45.292969 66.396484 43.535156 66.201172 C 41.777344 65.996094 40.478516 65.263672 39.628906 64.013672 " transform="matrix(0.4,0,0,0.4,0,0)"/>
<path style=" stroke:none;fill-rule:evenodd;fill:rgb(0%,0%,0%);fill-opacity:1;" d="M 12.371094 21.632812 C 12.84375 21.613281 13.304688 21.785156 13.648438 22.109375 C 13.996094 22.429688 14.199219 22.878906 14.214844 23.351562 C 14.230469 23.824219 14.058594 24.28125 13.738281 24.628906 C 13.414062 24.972656 12.96875 25.179688 12.496094 25.195312 C 12.023438 25.210938 11.5625 25.039062 11.21875 24.714844 C 10.871094 24.394531 10.667969 23.949219 10.652344 23.476562 C 10.632812 23.003906 10.804688 22.542969 11.128906 22.195312 C 11.449219 21.851562 11.898438 21.648438 12.371094 21.632812 "/>
<path style=" stroke:none;fill-rule:evenodd;fill:rgb(100%,100%,100%);fill-opacity:1;" d="M 12.464844 23.121094 C 12.453125 22.800781 12.183594 22.550781 11.863281 22.5625 C 11.542969 22.574219 11.292969 22.839844 11.304688 23.160156 C 11.316406 23.480469 11.585938 23.734375 11.90625 23.722656 C 12.226562 23.710938 12.476562 23.441406 12.464844 23.121094 "/>
<path style=" stroke:none;fill-rule:evenodd;fill:rgb(0%,0%,0%);fill-opacity:1;" d="M 23.167969 22.085938 C 23.640625 22.066406 24.101562 22.238281 24.445312 22.5625 C 24.792969 22.882812 24.996094 23.332031 25.011719 23.804688 C 25.03125 24.273438 24.859375 24.734375 24.535156 25.082031 C 24.210938 25.425781 23.765625 25.628906 23.292969 25.644531 C 22.820312 25.664062 22.359375 25.492188 22.015625 25.167969 C 21.667969 24.847656 21.464844 24.398438 21.449219 23.925781 C 21.433594 23.453125 21.605469 22.996094 21.929688 22.648438 C 22.25 22.304688 22.695312 22.101562 23.167969 22.085938 "/>
<path style="fill-rule:nonzero;fill:rgb(100%,100%,100%);fill-opacity:1;stroke-width:0.622;stroke-linecap:butt;stroke-linejoin:miter;stroke:rgb(100%,100%,100%);stroke-opacity:1;stroke-miterlimit:4;" d="M 34.912109 58.398438 C 34.990234 60.517578 33.330078 62.285156 31.220703 62.363281 C 29.101562 62.441406 27.324219 60.78125 27.246094 58.662109 C 27.197266 56.5625 28.847656 54.804688 30.947266 54.736328 C 33.046875 54.658203 34.824219 56.298828 34.912109 58.398438 Z M 36.152344 58.349609 C 36.054688 55.546875 33.710938 53.359375 30.908203 53.457031 C 28.105469 53.554688 25.908203 55.908203 26.005859 58.710938 C 26.103516 61.513672 28.457031 63.701172 31.259766 63.603516 C 34.0625 63.505859 36.25 61.152344 36.152344 58.349609 Z M 61.914062 59.53125 C 61.982422 60.917969 61.308594 62.226562 60.136719 62.96875 C 58.964844 63.710938 57.480469 63.769531 56.259766 63.105469 C 55.039062 62.451172 54.267578 61.181641 54.248047 59.794922 C 54.208984 57.705078 55.859375 55.976562 57.949219 55.898438 C 60.039062 55.830078 61.796875 57.441406 61.914062 59.53125 Z M 63.154297 59.482422 C 63.056641 56.679688 60.703125 54.492188 57.900391 54.589844 C 55.097656 54.6875 52.910156 57.041016 53.007812 59.84375 C 53.105469 62.646484 55.458984 64.833984 58.251953 64.736328 C 61.054688 64.638672 63.251953 62.285156 63.154297 59.482422 Z M 63.154297 59.482422 " transform="matrix(0.4,0,0,0.4,0,0)"/>
<path style=" stroke:none;fill-rule:evenodd;fill:rgb(100%,100%,100%);fill-opacity:1;" d="M 23.261719 23.574219 C 23.25 23.253906 22.984375 23.003906 22.664062 23.015625 C 22.34375 23.023438 22.089844 23.292969 22.101562 23.613281 C 22.113281 23.933594 22.382812 24.183594 22.703125 24.175781 C 23.023438 24.164062 23.273438 23.894531 23.261719 23.574219 "/>
<path style="fill:none;stroke-width:2.28;stroke-linecap:round;stroke-linejoin:miter;stroke:rgb(92.54902%,71.764706%,19.607843%);stroke-opacity:1;stroke-miterlimit:4;" d="M 21.708984 74.404297 L 37.041016 90.361328 M 34.970703 76.269531 L 25.234375 86.630859 M 68.75 74.404297 L 53.417969 90.361328 M 55.488281 76.269531 L 65.224609 86.630859 " transform="matrix(0.4,0,0,0.4,0,0)"/>
<path style="fill:none;stroke-width:2.28;stroke-linecap:round;stroke-linejoin:miter;stroke:rgb(100%,78.039216%,23.137255%);stroke-opacity:1;stroke-miterlimit:4;" d="M 51.552734 39.179688 L 41.396484 49.326172 M 49.482422 49.326172 L 39.326172 39.169922 " transform="matrix(0.4,0,0,0.4,0,0)"/>
</g>
</svg>
