<?xml version="1.0" encoding="UTF-8"?>
<svg xmlns="http://www.w3.org/2000/svg" xmlns:xlink="http://www.w3.org/1999/xlink" width="40px" height="px" viewBox="0 0 40 40" version="1.1">
<g id="surface1">
<path style=" stroke:none;fill-rule:nonzero;fill:rgb(0%,0%,0%);fill-opacity:1;" d="M 39.390625 23.960938 C 39.15625 23.253906 38.546875 22.761719 37.757812 22.644531 C 37.386719 22.589844 36.960938 22.613281 36.457031 22.71875 C 35.582031 22.898438 34.929688 22.96875 34.457031 22.980469 C 36.25 19.945312 37.707031 16.484375 38.546875 13.222656 C 39.902344 7.953125 39.179688 5.554688 38.332031 4.46875 C 36.085938 1.59375 32.8125 0.046875 28.867188 0 C 26.757812 -0.0234375 24.910156 0.390625 23.945312 0.691406 C 23.046875 0.535156 22.082031 0.445312 21.070312 0.429688 C 19.167969 0.398438 17.492188 0.8125 16.058594 1.667969 C 14.902344 1.273438 13.71875 0.976562 12.519531 0.777344 C 9.058594 0.207031 6.269531 0.648438 4.226562 2.09375 C 1.757812 3.84375 0.613281 6.886719 0.824219 11.132812 C 0.890625 12.480469 1.644531 16.582031 2.828125 20.472656 C 3.507812 22.707031 4.234375 24.5625 4.984375 25.992188 C 6.050781 28.011719 7.1875 29.203125 8.46875 29.632812 C 9.183594 29.871094 10.488281 30.039062 11.855469 28.894531 C 12.03125 29.105469 12.261719 29.316406 12.570312 29.511719 C 12.960938 29.757812 13.4375 29.957031 13.914062 30.078125 C 15.632812 30.507812 17.242188 30.402344 18.613281 29.796875 C 18.621094 30.042969 18.628906 30.277344 18.632812 30.480469 C 18.644531 30.804688 18.652344 31.128906 18.664062 31.429688 C 18.746094 33.460938 18.882812 35.039062 19.292969 36.144531 C 19.3125 36.207031 19.34375 36.296875 19.375 36.398438 C 19.582031 37.023438 19.921875 38.070312 20.789062 38.890625 C 21.6875 39.738281 22.769531 40 23.765625 40 C 24.265625 40 24.742188 39.933594 25.15625 39.84375 C 26.644531 39.523438 28.335938 39.039062 29.558594 37.292969 C 30.714844 35.644531 31.273438 33.15625 31.375 29.242188 L 31.414062 28.925781 L 31.4375 28.71875 L 31.710938 28.742188 L 31.78125 28.746094 C 33.296875 28.816406 35.148438 28.496094 36.285156 27.964844 C 37.183594 27.546875 40.066406 26.019531 39.386719 23.960938 "/>
<path style=" stroke:none;fill-rule:nonzero;fill:rgb(20%,40.392157%,56.862745%);fill-opacity:1;" d="M 36.796875 24.363281 C 32.292969 25.292969 31.980469 23.765625 31.980469 23.765625 C 36.738281 16.6875 38.726562 7.699219 37.011719 5.5 C 32.328125 -0.496094 24.226562 2.339844 24.089844 2.414062 L 24.046875 2.421875 C 23.15625 2.234375 22.160156 2.125 21.039062 2.109375 C 19.003906 2.074219 17.457031 2.644531 16.28125 3.535156 C 16.28125 3.535156 1.824219 -2.4375 2.496094 11.046875 C 2.640625 13.914062 6.597656 32.753906 11.316406 27.0625 C 13.042969 24.980469 14.710938 23.222656 14.710938 23.222656 C 15.539062 23.773438 16.527344 24.054688 17.566406 23.957031 L 17.648438 23.886719 C 17.621094 24.144531 17.632812 24.398438 17.679688 24.695312 C 16.464844 26.058594 16.820312 26.296875 14.390625 26.800781 C 11.929688 27.308594 13.375 28.210938 14.320312 28.449219 C 15.464844 28.734375 18.109375 29.140625 19.898438 26.632812 L 19.824219 26.917969 C 20.300781 27.300781 20.636719 29.40625 20.582031 31.316406 C 20.523438 33.226562 20.488281 34.539062 20.863281 35.5625 C 21.238281 36.585938 21.613281 38.890625 24.808594 38.203125 C 27.476562 37.628906 28.859375 36.140625 29.054688 33.660156 C 29.191406 31.898438 29.5 32.160156 29.519531 30.582031 L 29.765625 29.835938 C 30.050781 27.445312 29.8125 26.675781 31.457031 27.035156 L 31.855469 27.070312 C 33.066406 27.125 34.652344 26.875 35.582031 26.441406 C 37.585938 25.507812 38.773438 23.953125 36.796875 24.363281 "/>
<path style=" stroke:none;fill-rule:nonzero;fill:rgb(100%,100%,100%);fill-opacity:1;" d="M 17.128906 12.328125 C 16.722656 12.273438 16.355469 12.324219 16.167969 12.46875 C 16.089844 12.523438 16.039062 12.605469 16.023438 12.703125 C 16 12.871094 16.117188 13.054688 16.1875 13.152344 C 16.394531 13.421875 16.691406 13.609375 16.984375 13.648438 C 17.027344 13.65625 17.070312 13.660156 17.113281 13.660156 C 17.605469 13.660156 18.050781 13.273438 18.089844 12.992188 C 18.140625 12.636719 17.625 12.398438 17.128906 12.328125 M 30.578125 12.339844 C 30.539062 12.0625 30.046875 11.984375 29.578125 12.050781 C 29.109375 12.113281 28.65625 12.328125 28.695312 12.605469 C 28.726562 12.820312 29.117188 13.191406 29.578125 13.191406 C 29.617188 13.191406 29.65625 13.1875 29.695312 13.183594 C 30.003906 13.140625 30.230469 12.945312 30.339844 12.832031 C 30.503906 12.660156 30.597656 12.464844 30.578125 12.339844 "/>
<path style=" stroke:none;fill-rule:nonzero;fill:rgb(100%,100%,100%);fill-opacity:1;" d="M 38.296875 24.257812 C 38.125 23.734375 37.574219 23.566406 36.652344 23.757812 C 33.925781 24.320312 32.949219 23.929688 32.628906 23.695312 C 34.75 20.457031 36.492188 16.539062 37.433594 12.886719 C 37.878906 11.15625 38.125 9.550781 38.144531 8.238281 C 38.167969 6.800781 37.921875 5.746094 37.421875 5.101562 C 35.390625 2.5 32.410156 1.101562 28.800781 1.066406 C 26.324219 1.035156 24.226562 1.671875 23.820312 1.851562 C 22.902344 1.625 21.964844 1.503906 21.019531 1.492188 C 19.15625 1.460938 17.546875 1.90625 16.214844 2.820312 C 14.949219 2.355469 13.640625 2.011719 12.3125 1.792969 C 9.148438 1.28125 6.636719 1.667969 4.84375 2.941406 C 2.703125 4.460938 1.714844 7.179688 1.90625 11.019531 C 1.972656 12.308594 2.707031 16.285156 3.863281 20.089844 C 5.386719 25.097656 7.046875 27.929688 8.789062 28.515625 C 8.992188 28.582031 9.226562 28.628906 9.488281 28.628906 C 10.125 28.628906 10.902344 28.34375 11.714844 27.363281 C 12.703125 26.175781 13.726562 25.011719 14.785156 23.882812 C 15.464844 24.25 16.21875 24.453125 16.992188 24.476562 L 16.996094 24.539062 C 16.863281 24.695312 16.734375 24.855469 16.609375 25.019531 C 16.074219 25.699219 15.964844 25.839844 14.246094 26.195312 C 13.757812 26.296875 12.460938 26.566406 12.441406 27.476562 C 12.421875 28.472656 13.976562 28.890625 14.152344 28.9375 C 14.769531 29.089844 15.363281 29.167969 15.929688 29.167969 C 17.308594 29.167969 18.523438 28.714844 19.492188 27.832031 C 19.464844 31.386719 19.613281 34.886719 20.035156 35.953125 C 20.386719 36.828125 21.238281 38.960938 23.925781 38.960938 C 24.320312 38.960938 24.753906 38.914062 25.230469 38.8125 C 28.039062 38.210938 29.253906 36.964844 29.726562 34.222656 C 29.980469 32.757812 30.414062 29.261719 30.617188 27.382812 C 31.046875 27.515625 31.597656 27.578125 32.195312 27.578125 C 33.445312 27.578125 34.882812 27.3125 35.785156 26.894531 C 36.800781 26.421875 38.628906 25.261719 38.296875 24.253906 M 31.613281 11.574219 C 31.605469 12.128906 31.53125 12.628906 31.449219 13.15625 C 31.363281 13.71875 31.273438 14.304688 31.25 15.011719 C 31.226562 15.703125 31.3125 16.417969 31.398438 17.113281 C 31.566406 18.511719 31.738281 19.957031 31.070312 21.378906 C 30.960938 21.179688 30.859375 20.980469 30.773438 20.769531 C 30.691406 20.566406 30.511719 20.242188 30.261719 19.796875 C 29.292969 18.054688 27.023438 13.96875 28.183594 12.304688 C 28.53125 11.808594 29.410156 11.296875 31.613281 11.574219 M 28.941406 2.1875 C 32.175781 2.257812 34.730469 3.472656 36.539062 5.789062 C 37.929688 7.570312 36.402344 15.664062 31.972656 22.648438 L 31.839844 22.480469 L 31.785156 22.410156 C 32.929688 20.515625 32.703125 18.640625 32.503906 16.980469 C 32.421875 16.296875 32.347656 15.652344 32.367188 15.046875 C 32.386719 14.40625 32.472656 13.859375 32.550781 13.324219 C 32.652344 12.671875 32.753906 11.992188 32.726562 11.195312 C 32.746094 11.109375 32.757812 11.011719 32.746094 10.894531 C 32.671875 10.125 31.800781 7.832031 30.023438 5.757812 C 29.050781 4.621094 27.628906 3.351562 25.695312 2.492188 C 26.527344 2.320312 27.664062 2.160156 28.941406 2.1875 M 10.855469 26.648438 C 9.960938 27.726562 9.34375 27.519531 9.140625 27.453125 C 7.820312 27.011719 6.285156 24.207031 4.929688 19.761719 C 3.761719 15.914062 3.078125 12.046875 3.023438 10.960938 C 2.851562 7.53125 3.679688 5.140625 5.488281 3.859375 C 8.425781 1.765625 13.261719 3.019531 15.203125 3.652344 C 15.175781 3.679688 15.144531 3.707031 15.117188 3.734375 C 11.929688 6.960938 12.007812 12.476562 12.015625 12.8125 C 12.015625 12.941406 12.023438 13.128906 12.039062 13.378906 C 12.09375 14.308594 12.195312 16.035156 11.921875 17.988281 C 11.671875 19.804688 12.230469 21.582031 13.457031 22.867188 C 13.582031 23 13.714844 23.125 13.851562 23.242188 C 12.820312 24.351562 11.824219 25.484375 10.855469 26.648438 M 14.261719 22.09375 C 13.273438 21.058594 12.824219 19.617188 13.03125 18.144531 C 13.316406 16.078125 13.210938 14.28125 13.152344 13.3125 C 13.144531 13.179688 13.140625 13.0625 13.136719 12.96875 C 13.601562 12.554688 15.757812 11.394531 17.296875 11.746094 C 18 11.910156 18.425781 12.386719 18.605469 13.210938 C 19.523438 17.480469 18.726562 19.261719 18.085938 20.691406 C 17.953125 20.988281 17.828125 21.265625 17.71875 21.554688 L 17.636719 21.777344 C 17.429688 22.339844 17.234375 22.863281 17.113281 23.359375 C 16.0625 23.355469 15.039062 22.90625 14.261719 22.09375 M 14.421875 27.847656 C 14.117188 27.773438 13.839844 27.640625 13.679688 27.527344 C 13.8125 27.464844 14.054688 27.378906 14.472656 27.292969 C 16.492188 26.875 16.804688 26.578125 17.484375 25.710938 C 17.671875 25.472656 17.863281 25.238281 18.0625 25.011719 C 18.429688 24.601562 18.597656 24.671875 18.898438 24.796875 C 19.144531 24.902344 19.386719 25.207031 19.480469 25.546875 C 19.527344 25.707031 19.578125 26.011719 19.410156 26.25 C 17.988281 28.25 15.914062 28.222656 14.421875 27.847656 M 24.996094 37.71875 C 22.527344 38.25 21.652344 36.984375 21.074219 35.539062 C 20.703125 34.605469 20.519531 30.394531 20.648438 25.746094 C 20.648438 25.6875 20.640625 25.625 20.625 25.570312 C 20.609375 25.457031 20.585938 25.347656 20.554688 25.242188 C 20.363281 24.566406 19.890625 24 19.328125 23.765625 C 19.101562 23.671875 18.691406 23.5 18.195312 23.625 C 18.304688 23.191406 18.484375 22.699219 18.683594 22.167969 L 18.765625 21.941406 C 18.859375 21.691406 18.976562 21.429688 19.101562 21.152344 C 19.773438 19.65625 20.695312 17.605469 19.695312 12.976562 C 19.320312 11.242188 18.074219 10.394531 16.179688 10.59375 C 15.046875 10.710938 14.007812 11.167969 13.488281 11.433594 C 13.378906 11.488281 13.277344 11.542969 13.179688 11.597656 C 13.324219 9.847656 13.871094 6.585938 15.914062 4.519531 C 17.199219 3.21875 18.914062 2.574219 21 2.609375 C 25.113281 2.679688 27.75 4.792969 29.238281 6.558594 C 30.519531 8.078125 31.214844 9.609375 31.492188 10.433594 C 29.40625 10.21875 27.988281 10.632812 27.269531 11.664062 C 25.707031 13.902344 28.125 18.253906 29.289062 20.34375 C 29.5 20.726562 29.683594 21.054688 29.742188 21.195312 C 30.121094 22.117188 30.609375 22.730469 30.96875 23.179688 C 31.078125 23.316406 31.183594 23.449219 31.265625 23.566406 C 30.636719 23.746094 29.5 24.167969 29.605469 26.277344 C 29.519531 27.335938 28.929688 32.285156 28.628906 34.035156 C 28.230469 36.34375 27.382812 37.203125 24.996094 37.71875 M 35.316406 25.878906 C 34.671875 26.175781 33.589844 26.402344 32.5625 26.453125 C 31.429688 26.503906 30.855469 26.324219 30.71875 26.214844 C 30.65625 24.898438 31.140625 24.761719 31.660156 24.617188 C 31.738281 24.59375 31.820312 24.574219 31.894531 24.546875 C 31.941406 24.585938 31.992188 24.621094 32.050781 24.660156 C 32.960938 25.261719 34.585938 25.328125 36.878906 24.855469 L 36.90625 24.847656 C 36.59375 25.140625 36.066406 25.527344 35.316406 25.878906 "/>
</g>
</svg>
