<?xml version="1.0" encoding="UTF-8"?>
<svg xmlns="http://www.w3.org/2000/svg" xmlns:xlink="http://www.w3.org/1999/xlink" width="40px" height="px" viewBox="0 0 40 40" version="1.1">
<defs>
<filter id="alpha" filterUnits="objectBoundingBox" x="0%" y="0%" width="100%" height="100%">
  <feColorMatrix type="matrix" in="SourceGraphic" values="0 0 0 0 1 0 0 0 0 1 0 0 0 0 1 0 0 0 1 0"/>
</filter>
<mask id="mask0">
  <g filter="url(#alpha)">
<rect x="0" y="0" width="40" height="40" style="fill:rgb(0%,0%,0%);fill-opacity:0.501961;stroke:none;"/>
  </g>
</mask>
<clipPath id="clip1">
  <rect x="0" y="0" width="40" height="40"/>
</clipPath>
<g id="surface5" clip-path="url(#clip1)">
<path style=" stroke:none;fill-rule:nonzero;fill:rgb(81.568627%,83.137255%,84.705882%);fill-opacity:1;" d="M 25.714844 34.285156 L 27.621094 34.285156 C 27.871094 34.285156 28.117188 34.382812 28.292969 34.5625 C 28.472656 34.742188 28.574219 34.984375 28.570312 35.238281 C 28.574219 35.492188 28.472656 35.734375 28.296875 35.914062 C 28.117188 36.09375 27.871094 36.191406 27.621094 36.191406 L 25.714844 36.191406 C 25.460938 36.191406 25.21875 36.09375 25.039062 35.914062 C 24.859375 35.734375 24.757812 35.492188 24.761719 35.238281 C 24.757812 34.984375 24.859375 34.742188 25.039062 34.5625 C 25.21875 34.382812 25.460938 34.285156 25.714844 34.285156 M 14.285156 34.285156 L 21.90625 34.285156 C 22.15625 34.285156 22.402344 34.382812 22.582031 34.5625 C 22.757812 34.742188 22.859375 34.984375 22.855469 35.238281 C 22.859375 35.492188 22.757812 35.734375 22.582031 35.914062 C 22.402344 36.09375 22.15625 36.191406 21.90625 36.191406 L 14.285156 36.191406 C 14.03125 36.191406 13.789062 36.09375 13.609375 35.914062 C 13.429688 35.734375 13.332031 35.492188 13.332031 35.238281 C 13.332031 34.984375 13.429688 34.742188 13.609375 34.5625 C 13.789062 34.382812 14.03125 34.285156 14.285156 34.285156 M 31.429688 34.285156 L 39.046875 34.285156 C 39.300781 34.285156 39.542969 34.382812 39.722656 34.5625 C 39.902344 34.742188 40.003906 34.984375 40 35.238281 C 40.003906 35.492188 39.902344 35.734375 39.722656 35.914062 C 39.546875 36.09375 39.300781 36.191406 39.046875 36.191406 L 31.429688 36.191406 C 31.175781 36.191406 30.929688 36.09375 30.753906 35.914062 C 30.574219 35.734375 30.472656 35.492188 30.476562 35.238281 C 30.472656 34.984375 30.574219 34.742188 30.753906 34.5625 C 30.929688 34.382812 31.175781 34.285156 31.429688 34.285156 "/>
</g>
<mask id="mask1">
  <g filter="url(#alpha)">
<rect x="0" y="0" width="40" height="40" style="fill:rgb(0%,0%,0%);fill-opacity:0.501961;stroke:none;"/>
  </g>
</mask>
<clipPath id="clip2">
  <rect x="0" y="0" width="40" height="40"/>
</clipPath>
<g id="surface8" clip-path="url(#clip2)">
<path style=" stroke:none;fill-rule:nonzero;fill:rgb(81.568627%,83.137255%,84.705882%);fill-opacity:1;" d="M 27.621094 0 L 39.046875 0 C 39.300781 -0.00390625 39.542969 0.0976562 39.722656 0.277344 C 39.902344 0.457031 40.003906 0.699219 40 0.953125 C 40.003906 1.207031 39.902344 1.449219 39.722656 1.628906 C 39.542969 1.808594 39.300781 1.90625 39.046875 1.90625 L 27.617188 1.90625 C 27.367188 1.90625 27.121094 1.808594 26.941406 1.628906 C 26.765625 1.449219 26.664062 1.207031 26.667969 0.953125 C 26.664062 0.699219 26.761719 0.457031 26.941406 0.277344 C 27.121094 0.0976562 27.367188 -0.00390625 27.617188 0 M 27.621094 26.667969 L 31.429688 26.667969 C 31.683594 26.664062 31.925781 26.765625 32.105469 26.941406 C 32.285156 27.121094 32.382812 27.367188 32.378906 27.621094 C 32.382812 27.871094 32.285156 28.117188 32.105469 28.292969 C 31.925781 28.472656 31.683594 28.574219 31.429688 28.570312 L 27.621094 28.570312 C 27.367188 28.574219 27.121094 28.472656 26.945312 28.292969 C 26.765625 28.117188 26.664062 27.871094 26.667969 27.621094 C 26.664062 27.367188 26.765625 27.121094 26.941406 26.945312 C 27.121094 26.765625 27.367188 26.664062 27.617188 26.667969 M 35.238281 26.667969 L 39.046875 26.667969 C 39.300781 26.664062 39.542969 26.765625 39.722656 26.941406 C 39.902344 27.121094 40.003906 27.367188 40 27.621094 C 40.003906 27.871094 39.902344 28.117188 39.722656 28.292969 C 39.542969 28.472656 39.300781 28.574219 39.046875 28.570312 L 35.238281 28.570312 C 34.984375 28.574219 34.742188 28.472656 34.5625 28.292969 C 34.382812 28.117188 34.285156 27.871094 34.285156 27.621094 C 34.285156 27.367188 34.382812 27.121094 34.5625 26.945312 C 34.742188 26.765625 34.984375 26.664062 35.238281 26.667969 M 33.332031 22.859375 L 39.046875 22.859375 C 39.300781 22.855469 39.542969 22.953125 39.722656 23.132812 C 39.902344 23.3125 40.003906 23.554688 40 23.808594 C 40.003906 24.0625 39.902344 24.304688 39.722656 24.484375 C 39.546875 24.664062 39.300781 24.765625 39.046875 24.761719 L 33.332031 24.761719 C 33.078125 24.765625 32.835938 24.664062 32.65625 24.484375 C 32.476562 24.304688 32.378906 24.0625 32.378906 23.808594 C 32.378906 23.558594 32.476562 23.3125 32.65625 23.132812 C 32.835938 22.957031 33.078125 22.855469 33.332031 22.859375 M 33.332031 3.808594 L 39.046875 3.808594 C 39.300781 3.808594 39.542969 3.90625 39.722656 4.085938 C 39.902344 4.265625 40.003906 4.507812 40 4.761719 C 40.003906 5.015625 39.902344 5.257812 39.722656 5.4375 C 39.542969 5.617188 39.300781 5.714844 39.046875 5.714844 L 33.332031 5.714844 C 33.078125 5.714844 32.835938 5.617188 32.65625 5.4375 C 32.476562 5.257812 32.378906 5.015625 32.378906 4.761719 C 32.378906 4.507812 32.476562 4.265625 32.65625 4.085938 C 32.835938 3.90625 33.078125 3.808594 33.332031 3.808594 M 35.238281 19.046875 L 39.046875 19.046875 C 39.300781 19.046875 39.542969 19.144531 39.722656 19.324219 C 39.902344 19.503906 40.003906 19.746094 40 20 C 40.003906 20.253906 39.902344 20.496094 39.722656 20.675781 C 39.542969 20.855469 39.300781 20.953125 39.046875 20.953125 L 35.238281 20.953125 C 34.984375 20.953125 34.742188 20.855469 34.5625 20.675781 C 34.382812 20.496094 34.285156 20.253906 34.285156 20 C 34.285156 19.746094 34.382812 19.503906 34.5625 19.324219 C 34.742188 19.144531 34.984375 19.046875 35.238281 19.046875 M 35.238281 7.621094 L 39.046875 7.621094 C 39.300781 7.617188 39.542969 7.714844 39.722656 7.894531 C 39.902344 8.074219 40.003906 8.320312 40 8.570312 C 40.003906 8.824219 39.902344 9.070312 39.722656 9.246094 C 39.542969 9.425781 39.300781 9.527344 39.046875 9.523438 L 35.238281 9.523438 C 34.984375 9.527344 34.742188 9.425781 34.5625 9.246094 C 34.382812 9.070312 34.285156 8.824219 34.285156 8.570312 C 34.285156 8.320312 34.382812 8.074219 34.5625 7.894531 C 34.742188 7.71875 34.984375 7.617188 35.238281 7.621094 M 37.144531 11.429688 L 39.046875 11.429688 C 39.300781 11.425781 39.542969 11.527344 39.722656 11.707031 C 39.902344 11.882812 40.003906 12.128906 40 12.378906 C 40.003906 12.632812 39.902344 12.878906 39.722656 13.058594 C 39.542969 13.234375 39.300781 13.335938 39.046875 13.332031 L 37.144531 13.332031 C 36.890625 13.335938 36.644531 13.234375 36.46875 13.058594 C 36.289062 12.878906 36.1875 12.632812 36.191406 12.382812 C 36.1875 12.128906 36.289062 11.882812 36.46875 11.707031 C 36.644531 11.527344 36.890625 11.425781 37.144531 11.429688 M 37.144531 15.238281 L 39.046875 15.238281 C 39.300781 15.234375 39.542969 15.335938 39.722656 15.515625 C 39.902344 15.695312 40.003906 15.9375 40 16.191406 C 40.003906 16.445312 39.902344 16.6875 39.722656 16.867188 C 39.542969 17.046875 39.300781 17.144531 39.046875 17.144531 L 37.144531 17.144531 C 36.890625 17.144531 36.644531 17.046875 36.46875 16.867188 C 36.289062 16.6875 36.1875 16.445312 36.191406 16.191406 C 36.1875 15.9375 36.289062 15.695312 36.46875 15.515625 C 36.644531 15.335938 36.890625 15.234375 37.144531 15.238281 M 21.90625 30.476562 L 39.046875 30.476562 C 39.300781 30.472656 39.542969 30.574219 39.722656 30.753906 C 39.902344 30.933594 40.003906 31.175781 40 31.429688 C 40.003906 31.683594 39.902344 31.925781 39.722656 32.105469 C 39.542969 32.285156 39.300781 32.382812 39.046875 32.382812 L 21.90625 32.382812 C 21.652344 32.382812 21.40625 32.285156 21.230469 32.105469 C 21.050781 31.925781 20.949219 31.683594 20.953125 31.429688 C 20.949219 31.175781 21.050781 30.933594 21.230469 30.753906 C 21.40625 30.574219 21.652344 30.476562 21.90625 30.476562 M 14.285156 30.476562 L 18.09375 30.476562 C 18.347656 30.472656 18.59375 30.574219 18.769531 30.753906 C 18.949219 30.933594 19.050781 31.175781 19.046875 31.429688 C 19.050781 31.683594 18.949219 31.925781 18.769531 32.105469 C 18.59375 32.285156 18.347656 32.382812 18.09375 32.378906 L 14.285156 32.378906 C 14.03125 32.382812 13.789062 32.285156 13.609375 32.105469 C 13.429688 31.925781 13.332031 31.683594 13.332031 31.429688 C 13.332031 31.175781 13.429688 30.933594 13.609375 30.753906 C 13.789062 30.574219 14.03125 30.472656 14.285156 30.476562 M 29.523438 38.09375 L 39.046875 38.09375 C 39.300781 38.09375 39.542969 38.191406 39.722656 38.371094 C 39.902344 38.550781 40.003906 38.792969 40 39.046875 C 40.003906 39.300781 39.902344 39.542969 39.722656 39.722656 C 39.542969 39.902344 39.300781 40.003906 39.046875 40 L 29.523438 40 C 29.269531 40.003906 29.027344 39.902344 28.847656 39.722656 C 28.667969 39.542969 28.570312 39.300781 28.570312 39.046875 C 28.570312 38.792969 28.667969 38.550781 28.847656 38.371094 C 29.027344 38.191406 29.269531 38.09375 29.523438 38.09375 M 14.285156 38.09375 L 25.714844 38.09375 C 25.96875 38.09375 26.210938 38.191406 26.390625 38.371094 C 26.570312 38.550781 26.667969 38.792969 26.667969 39.046875 C 26.667969 39.300781 26.570312 39.542969 26.390625 39.722656 C 26.210938 39.902344 25.96875 40.003906 25.714844 40 L 14.285156 40 C 14.03125 40.003906 13.789062 39.902344 13.609375 39.722656 C 13.429688 39.542969 13.332031 39.300781 13.332031 39.046875 C 13.332031 38.792969 13.429688 38.550781 13.609375 38.371094 C 13.789062 38.191406 14.03125 38.09375 14.285156 38.09375 M 14.285156 11.429688 L 20 11.429688 C 20.253906 11.425781 20.496094 11.527344 20.675781 11.707031 C 20.855469 11.882812 20.953125 12.128906 20.953125 12.378906 C 20.953125 12.632812 20.855469 12.878906 20.675781 13.058594 C 20.496094 13.238281 20.253906 13.335938 20 13.335938 L 14.285156 13.335938 C 14.03125 13.335938 13.789062 13.238281 13.609375 13.058594 C 13.429688 12.878906 13.332031 12.636719 13.332031 12.382812 C 13.332031 12.128906 13.429688 11.886719 13.609375 11.707031 C 13.789062 11.527344 14.03125 11.425781 14.285156 11.429688 M 14.285156 15.238281 L 20 15.238281 C 20.253906 15.234375 20.496094 15.335938 20.675781 15.515625 C 20.855469 15.695312 20.953125 15.9375 20.953125 16.191406 C 20.953125 16.445312 20.855469 16.6875 20.675781 16.867188 C 20.496094 17.046875 20.253906 17.144531 20 17.144531 L 14.285156 17.144531 C 14.03125 17.144531 13.789062 17.046875 13.609375 16.867188 C 13.429688 16.6875 13.332031 16.445312 13.332031 16.191406 C 13.332031 15.9375 13.429688 15.695312 13.609375 15.515625 C 13.789062 15.335938 14.03125 15.238281 14.285156 15.238281 "/>
</g>
</defs>
<g id="surface1">
<path style=" stroke:none;fill-rule:nonzero;fill:rgb(33.72549%,70.196078%,70.588235%);fill-opacity:1;" d="M 29.523438 7.621094 L 31.429688 7.621094 C 31.683594 7.617188 31.925781 7.714844 32.105469 7.894531 C 32.285156 8.074219 32.382812 8.316406 32.378906 8.570312 C 32.382812 8.824219 32.285156 9.066406 32.105469 9.246094 C 31.925781 9.425781 31.683594 9.527344 31.429688 9.523438 L 29.523438 9.523438 C 29.269531 9.527344 29.027344 9.425781 28.847656 9.246094 C 28.667969 9.066406 28.570312 8.824219 28.570312 8.570312 C 28.570312 8.320312 28.667969 8.074219 28.847656 7.894531 C 29.027344 7.71875 29.269531 7.617188 29.523438 7.621094 "/>
<path style=" stroke:none;fill-rule:nonzero;fill:rgb(91.764706%,36.862745%,36.862745%);fill-opacity:1;" d="M 0.953125 38.09375 L 10.476562 38.09375 C 10.730469 38.09375 10.972656 38.191406 11.152344 38.371094 C 11.332031 38.550781 11.429688 38.792969 11.429688 39.046875 C 11.429688 39.300781 11.332031 39.542969 11.152344 39.722656 C 10.972656 39.902344 10.730469 40.003906 10.476562 40 L 0.953125 40 C 0.699219 40.003906 0.457031 39.902344 0.277344 39.722656 C 0.0976562 39.542969 -0.00390625 39.300781 0 39.046875 C -0.00390625 38.792969 0.0976562 38.550781 0.277344 38.371094 C 0.457031 38.191406 0.699219 38.09375 0.953125 38.09375 "/>
<path style=" stroke:none;fill-rule:nonzero;fill:rgb(74.901961%,52.156863%,74.901961%);fill-opacity:1;" d="M 23.808594 22.859375 L 29.523438 22.859375 C 29.777344 22.855469 30.019531 22.953125 30.199219 23.132812 C 30.378906 23.3125 30.476562 23.554688 30.476562 23.808594 C 30.476562 24.0625 30.378906 24.304688 30.199219 24.484375 C 30.019531 24.664062 29.777344 24.765625 29.523438 24.761719 L 23.808594 24.761719 C 23.554688 24.765625 23.3125 24.664062 23.132812 24.484375 C 22.953125 24.308594 22.855469 24.0625 22.855469 23.808594 C 22.855469 23.558594 22.953125 23.3125 23.132812 23.132812 C 23.3125 22.957031 23.554688 22.855469 23.808594 22.859375 "/>
<path style=" stroke:none;fill-rule:nonzero;fill:rgb(91.764706%,36.862745%,36.862745%);fill-opacity:1;" d="M 12.382812 22.859375 L 20 22.859375 C 20.253906 22.855469 20.496094 22.953125 20.675781 23.132812 C 20.855469 23.3125 20.953125 23.554688 20.953125 23.808594 C 20.953125 24.0625 20.855469 24.304688 20.675781 24.484375 C 20.496094 24.664062 20.253906 24.765625 20 24.761719 L 12.378906 24.761719 C 12.128906 24.765625 11.882812 24.664062 11.703125 24.484375 C 11.527344 24.308594 11.425781 24.0625 11.429688 23.808594 C 11.425781 23.558594 11.527344 23.3125 11.703125 23.132812 C 11.882812 22.957031 12.128906 22.855469 12.378906 22.859375 "/>
<path style=" stroke:none;fill-rule:nonzero;fill:rgb(33.72549%,70.196078%,70.588235%);fill-opacity:1;" d="M 0.953125 22.859375 L 8.570312 22.859375 C 8.824219 22.855469 9.066406 22.953125 9.246094 23.132812 C 9.425781 23.3125 9.527344 23.554688 9.523438 23.808594 C 9.527344 24.0625 9.425781 24.304688 9.246094 24.484375 C 9.066406 24.664062 8.824219 24.765625 8.570312 24.761719 L 0.953125 24.761719 C 0.699219 24.765625 0.457031 24.664062 0.277344 24.484375 C 0.0976562 24.304688 -0.00390625 24.0625 0 23.808594 C -0.00390625 23.558594 0.0976562 23.3125 0.277344 23.132812 C 0.457031 22.953125 0.699219 22.855469 0.953125 22.859375 "/>
<path style=" stroke:none;fill-rule:nonzero;fill:rgb(74.901961%,52.156863%,74.901961%);fill-opacity:1;" d="M 0.953125 30.476562 L 10.476562 30.476562 C 10.730469 30.472656 10.972656 30.574219 11.152344 30.753906 C 11.332031 30.933594 11.429688 31.175781 11.429688 31.429688 C 11.429688 31.683594 11.332031 31.925781 11.152344 32.105469 C 10.972656 32.285156 10.730469 32.382812 10.476562 32.378906 L 0.953125 32.378906 C 0.699219 32.382812 0.457031 32.285156 0.277344 32.105469 C 0.0976562 31.925781 -0.00390625 31.683594 0 31.429688 C -0.00390625 31.175781 0.0976562 30.933594 0.277344 30.753906 C 0.457031 30.574219 0.699219 30.472656 0.953125 30.476562 M 0.953125 15.238281 L 10.476562 15.238281 C 10.730469 15.234375 10.972656 15.335938 11.152344 15.515625 C 11.332031 15.695312 11.429688 15.9375 11.429688 16.191406 C 11.429688 16.445312 11.332031 16.6875 11.152344 16.867188 C 10.972656 17.046875 10.730469 17.144531 10.476562 17.144531 L 0.953125 17.144531 C 0.699219 17.144531 0.457031 17.046875 0.277344 16.867188 C 0.0976562 16.6875 -0.00390625 16.445312 0 16.191406 C -0.00390625 15.9375 0.0976562 15.695312 0.277344 15.515625 C 0.457031 15.335938 0.699219 15.234375 0.953125 15.238281 "/>
<path style=" stroke:none;fill-rule:nonzero;fill:rgb(96.862745%,72.941176%,24.313725%);fill-opacity:1;" d="M 10.476562 3.808594 L 29.523438 3.808594 C 29.777344 3.808594 30.019531 3.90625 30.199219 4.085938 C 30.378906 4.265625 30.476562 4.507812 30.476562 4.761719 C 30.476562 5.015625 30.378906 5.257812 30.199219 5.4375 C 30.019531 5.617188 29.777344 5.714844 29.523438 5.714844 L 10.476562 5.714844 C 10.222656 5.714844 9.980469 5.617188 9.800781 5.4375 C 9.621094 5.257812 9.523438 5.015625 9.523438 4.761719 C 9.523438 4.507812 9.621094 4.265625 9.800781 4.085938 C 9.980469 3.90625 10.222656 3.808594 10.476562 3.808594 "/>
<path style=" stroke:none;fill-rule:nonzero;fill:rgb(91.764706%,36.862745%,36.862745%);fill-opacity:1;" d="M 0.953125 3.808594 L 6.667969 3.808594 C 6.921875 3.808594 7.164062 3.90625 7.34375 4.085938 C 7.523438 4.265625 7.621094 4.507812 7.617188 4.761719 C 7.621094 5.015625 7.523438 5.257812 7.34375 5.4375 C 7.164062 5.617188 6.921875 5.714844 6.667969 5.714844 L 0.953125 5.714844 C 0.699219 5.714844 0.457031 5.617188 0.277344 5.4375 C 0.0976562 5.257812 -0.00390625 5.015625 0 4.761719 C -0.00390625 4.507812 0.0976562 4.265625 0.277344 4.085938 C 0.457031 3.90625 0.699219 3.808594 0.953125 3.808594 "/>
<path style=" stroke:none;fill-rule:nonzero;fill:rgb(96.862745%,72.941176%,24.313725%);fill-opacity:1;" d="M 8.570312 34.285156 L 10.476562 34.285156 C 10.730469 34.285156 10.972656 34.382812 11.152344 34.5625 C 11.332031 34.742188 11.429688 34.984375 11.429688 35.238281 C 11.429688 35.492188 11.332031 35.734375 11.152344 35.914062 C 10.972656 36.09375 10.730469 36.191406 10.476562 36.191406 L 8.570312 36.191406 C 8.316406 36.191406 8.074219 36.09375 7.894531 35.914062 C 7.714844 35.734375 7.617188 35.492188 7.621094 35.238281 C 7.617188 34.984375 7.714844 34.742188 7.894531 34.5625 C 8.074219 34.382812 8.316406 34.285156 8.570312 34.285156 "/>
<path style=" stroke:none;fill-rule:nonzero;fill:rgb(33.72549%,70.196078%,70.588235%);fill-opacity:1;" d="M 8.570312 11.429688 L 10.476562 11.429688 C 10.730469 11.425781 10.972656 11.527344 11.152344 11.707031 C 11.332031 11.882812 11.429688 12.128906 11.429688 12.378906 C 11.429688 12.632812 11.332031 12.878906 11.152344 13.058594 C 10.972656 13.234375 10.730469 13.335938 10.476562 13.332031 L 8.570312 13.332031 C 8.316406 13.335938 8.074219 13.234375 7.894531 13.058594 C 7.714844 12.878906 7.617188 12.632812 7.621094 12.382812 C 7.617188 12.128906 7.714844 11.882812 7.894531 11.707031 C 8.074219 11.527344 8.316406 11.425781 8.570312 11.429688 M 0.953125 34.285156 L 4.761719 34.285156 C 5.015625 34.285156 5.257812 34.382812 5.4375 34.5625 C 5.617188 34.742188 5.714844 34.984375 5.714844 35.238281 C 5.714844 35.492188 5.617188 35.734375 5.4375 35.914062 C 5.257812 36.09375 5.015625 36.191406 4.761719 36.191406 L 0.953125 36.191406 C 0.699219 36.191406 0.457031 36.09375 0.277344 35.914062 C 0.0976562 35.734375 -0.00390625 35.492188 0 35.238281 C -0.00390625 34.984375 0.0976562 34.742188 0.277344 34.5625 C 0.457031 34.382812 0.699219 34.285156 0.953125 34.285156 "/>
<path style=" stroke:none;fill-rule:nonzero;fill:rgb(96.862745%,72.941176%,24.313725%);fill-opacity:1;" d="M 0.953125 11.429688 L 4.761719 11.429688 C 5.015625 11.425781 5.257812 11.527344 5.4375 11.707031 C 5.617188 11.882812 5.714844 12.128906 5.714844 12.378906 C 5.714844 12.632812 5.617188 12.878906 5.4375 13.058594 C 5.257812 13.234375 5.015625 13.335938 4.761719 13.332031 L 0.953125 13.332031 C 0.699219 13.335938 0.457031 13.234375 0.277344 13.058594 C 0.0976562 12.878906 -0.00390625 12.632812 0 12.382812 C -0.00390625 12.128906 0.0976562 11.882812 0.277344 11.707031 C 0.457031 11.527344 0.699219 11.425781 0.953125 11.429688 "/>
<use xlink:href="#surface5" mask="url(#mask0)"/>
<path style=" stroke:none;fill-rule:nonzero;fill:rgb(33.72549%,70.196078%,70.588235%);fill-opacity:1;" d="M 16.191406 19.046875 L 31.429688 19.046875 C 31.679688 19.046875 31.925781 19.144531 32.105469 19.324219 C 32.285156 19.503906 32.382812 19.746094 32.378906 20 C 32.382812 20.253906 32.285156 20.496094 32.105469 20.675781 C 31.925781 20.855469 31.683594 20.953125 31.429688 20.953125 L 16.191406 20.953125 C 15.9375 20.953125 15.695312 20.855469 15.515625 20.675781 C 15.335938 20.496094 15.234375 20.253906 15.238281 20 C 15.234375 19.746094 15.335938 19.503906 15.515625 19.324219 C 15.691406 19.144531 15.9375 19.046875 16.191406 19.046875 "/>
<path style=" stroke:none;fill-rule:nonzero;fill:rgb(96.862745%,72.941176%,24.313725%);fill-opacity:1;" d="M 6.667969 19.046875 L 12.378906 19.046875 C 12.632812 19.046875 12.878906 19.144531 13.054688 19.324219 C 13.234375 19.503906 13.335938 19.746094 13.332031 20 C 13.335938 20.253906 13.234375 20.496094 13.058594 20.675781 C 12.878906 20.855469 12.632812 20.953125 12.382812 20.953125 L 6.667969 20.953125 C 6.414062 20.953125 6.167969 20.855469 5.992188 20.675781 C 5.8125 20.496094 5.710938 20.253906 5.714844 20 C 5.710938 19.746094 5.8125 19.503906 5.992188 19.324219 C 6.167969 19.144531 6.414062 19.046875 6.664062 19.046875 "/>
<path style=" stroke:none;fill-rule:nonzero;fill:rgb(91.764706%,36.862745%,36.862745%);fill-opacity:1;" d="M 0.953125 19.046875 L 2.855469 19.046875 C 3.109375 19.046875 3.355469 19.144531 3.53125 19.324219 C 3.710938 19.503906 3.8125 19.746094 3.808594 20 C 3.8125 20.253906 3.710938 20.496094 3.53125 20.675781 C 3.355469 20.855469 3.109375 20.953125 2.855469 20.953125 L 0.953125 20.953125 C 0.699219 20.953125 0.457031 20.855469 0.277344 20.675781 C 0.0976562 20.496094 -0.00390625 20.253906 0 20 C -0.00390625 19.746094 0.0976562 19.503906 0.277344 19.324219 C 0.457031 19.144531 0.699219 19.046875 0.953125 19.046875 "/>
<path style=" stroke:none;fill-rule:nonzero;fill:rgb(74.901961%,52.156863%,74.901961%);fill-opacity:1;" d="M 18.09375 7.621094 L 25.714844 7.621094 C 25.96875 7.617188 26.210938 7.714844 26.390625 7.894531 C 26.570312 8.074219 26.667969 8.320312 26.667969 8.570312 C 26.667969 8.824219 26.570312 9.066406 26.390625 9.246094 C 26.210938 9.425781 25.96875 9.527344 25.714844 9.523438 L 18.09375 9.523438 C 17.84375 9.527344 17.597656 9.425781 17.417969 9.246094 C 17.242188 9.066406 17.140625 8.824219 17.144531 8.570312 C 17.140625 8.320312 17.242188 8.074219 17.417969 7.894531 C 17.597656 7.71875 17.84375 7.617188 18.09375 7.621094 "/>
<path style=" stroke:none;fill-rule:nonzero;fill:rgb(33.72549%,70.196078%,70.588235%);fill-opacity:1;" d="M 0.953125 7.621094 L 14.285156 7.621094 C 14.539062 7.617188 14.78125 7.714844 14.960938 7.894531 C 15.140625 8.074219 15.242188 8.316406 15.238281 8.570312 C 15.242188 8.824219 15.140625 9.066406 14.960938 9.246094 C 14.78125 9.425781 14.539062 9.527344 14.285156 9.523438 L 0.953125 9.523438 C 0.699219 9.527344 0.457031 9.425781 0.277344 9.246094 C 0.0976562 9.066406 -0.00390625 8.824219 0 8.570312 C -0.00390625 8.320312 0.0976562 8.074219 0.277344 7.894531 C 0.457031 7.71875 0.699219 7.617188 0.953125 7.621094 "/>
<path style=" stroke:none;fill-rule:nonzero;fill:rgb(96.862745%,72.941176%,24.313725%);fill-opacity:1;" d="M 6.667969 26.667969 L 23.808594 26.667969 C 24.0625 26.664062 24.304688 26.765625 24.484375 26.945312 C 24.664062 27.121094 24.765625 27.367188 24.761719 27.621094 C 24.765625 27.871094 24.664062 28.117188 24.484375 28.292969 C 24.304688 28.472656 24.0625 28.574219 23.808594 28.570312 L 6.667969 28.570312 C 6.414062 28.574219 6.171875 28.472656 5.992188 28.292969 C 5.8125 28.117188 5.710938 27.871094 5.714844 27.621094 C 5.710938 27.367188 5.8125 27.121094 5.992188 26.945312 C 6.167969 26.765625 6.414062 26.664062 6.667969 26.667969 "/>
<path style=" stroke:none;fill-rule:nonzero;fill:rgb(74.901961%,52.156863%,74.901961%);fill-opacity:1;" d="M 0.953125 26.667969 L 2.855469 26.667969 C 3.109375 26.664062 3.355469 26.765625 3.53125 26.945312 C 3.710938 27.121094 3.8125 27.367188 3.808594 27.621094 C 3.8125 27.871094 3.710938 28.117188 3.53125 28.292969 C 3.355469 28.472656 3.109375 28.574219 2.855469 28.570312 L 0.953125 28.570312 C 0.699219 28.574219 0.457031 28.472656 0.277344 28.292969 C 0.0976562 28.117188 -0.00390625 27.871094 0 27.621094 C -0.00390625 27.367188 0.0976562 27.121094 0.277344 26.945312 C 0.457031 26.765625 0.699219 26.664062 0.953125 26.667969 "/>
<path style=" stroke:none;fill-rule:nonzero;fill:rgb(91.764706%,36.862745%,36.862745%);fill-opacity:1;" d="M 23.808594 11.429688 L 33.332031 11.429688 C 33.585938 11.425781 33.832031 11.527344 34.007812 11.707031 C 34.1875 11.882812 34.289062 12.128906 34.285156 12.378906 C 34.289062 12.632812 34.1875 12.878906 34.007812 13.058594 C 33.832031 13.234375 33.585938 13.335938 33.332031 13.332031 L 23.808594 13.332031 C 23.554688 13.335938 23.3125 13.234375 23.132812 13.058594 C 22.953125 12.878906 22.855469 12.632812 22.855469 12.382812 C 22.855469 12.128906 22.953125 11.882812 23.132812 11.707031 C 23.3125 11.527344 23.554688 11.425781 23.808594 11.429688 "/>
<path style=" stroke:none;fill-rule:nonzero;fill:rgb(96.862745%,72.941176%,24.313725%);fill-opacity:1;" d="M 23.808594 15.238281 L 33.332031 15.238281 C 33.585938 15.234375 33.832031 15.335938 34.007812 15.515625 C 34.1875 15.695312 34.289062 15.9375 34.285156 16.191406 C 34.289062 16.445312 34.1875 16.6875 34.007812 16.867188 C 33.832031 17.046875 33.585938 17.144531 33.332031 17.144531 L 23.808594 17.144531 C 23.554688 17.144531 23.3125 17.046875 23.132812 16.867188 C 22.953125 16.6875 22.855469 16.445312 22.855469 16.191406 C 22.855469 15.9375 22.953125 15.695312 23.132812 15.515625 C 23.3125 15.335938 23.554688 15.234375 23.808594 15.238281 "/>
<path style=" stroke:none;fill-rule:nonzero;fill:rgb(33.72549%,70.196078%,70.588235%);fill-opacity:1;" d="M 0.953125 0 L 23.808594 0 C 24.0625 -0.00390625 24.304688 0.0976562 24.484375 0.277344 C 24.664062 0.457031 24.765625 0.699219 24.761719 0.953125 C 24.765625 1.207031 24.664062 1.449219 24.484375 1.628906 C 24.304688 1.808594 24.0625 1.90625 23.808594 1.90625 L 0.953125 1.90625 C 0.699219 1.90625 0.457031 1.808594 0.277344 1.628906 C 0.0976562 1.449219 -0.00390625 1.207031 0 0.953125 C -0.00390625 0.699219 0.0976562 0.457031 0.277344 0.277344 C 0.457031 0.0976562 0.699219 -0.00390625 0.953125 0 "/>
<use xlink:href="#surface8" mask="url(#mask1)"/>
</g>
</svg>
