<?xml version="1.0" encoding="UTF-8"?>
<svg xmlns="http://www.w3.org/2000/svg" xmlns:xlink="http://www.w3.org/1999/xlink" width="40px" height="px" viewBox="0 0 40 40" version="1.1">
<g id="surface1">
<path style=" stroke:none;fill-rule:nonzero;fill:rgb(23.921569%,23.921569%,23.921569%);fill-opacity:1;" d="M 29.4375 24.761719 L 30.59375 21.839844 L 33.929688 21.839844 L 32.347656 17.410156 L 34.328125 12.398438 L 40 27.460938 L 35.816406 27.460938 L 34.847656 24.761719 Z M 29.4375 24.761719 "/>
<path style=" stroke:none;fill-rule:nonzero;fill:rgb(35.294118%,5.882353%,78.431373%);fill-opacity:1;" d="M 25.871094 27.460938 L 31.941406 12.402344 L 27.917969 12.402344 L 23.761719 22.132812 L 20.808594 12.402344 L 17.714844 12.402344 L 14.542969 22.132812 L 12.308594 17.699219 L 10.28125 23.933594 L 12.339844 27.460938 L 16.300781 27.460938 L 19.164062 18.734375 L 21.898438 27.460938 Z M 25.871094 27.460938 "/>
<path style=" stroke:none;fill-rule:nonzero;fill:rgb(23.921569%,23.921569%,23.921569%);fill-opacity:1;" d="M 3.820312 22.289062 L 6.300781 22.289062 C 7.050781 22.289062 7.722656 22.207031 8.308594 22.039062 L 8.949219 20.0625 L 10.742188 14.542969 C 10.601562 14.324219 10.445312 14.117188 10.273438 13.929688 C 9.351562 12.910156 8.007812 12.398438 6.234375 12.398438 L 0 12.398438 L 0 27.460938 L 3.820312 27.460938 Z M 7.101562 15.863281 C 7.460938 16.226562 7.640625 16.710938 7.640625 17.316406 C 7.640625 17.929688 7.484375 18.414062 7.167969 18.769531 C 6.820312 19.167969 6.183594 19.367188 5.253906 19.367188 L 3.820312 19.367188 L 3.820312 15.324219 L 5.265625 15.324219 C 6.132812 15.324219 6.742188 15.503906 7.101562 15.867188 "/>
</g>
</svg>
