<?xml version="1.0" encoding="UTF-8"?>
<svg xmlns="http://www.w3.org/2000/svg" xmlns:xlink="http://www.w3.org/1999/xlink" width="40px" height="px" viewBox="0 0 40 40" version="1.1">
<g id="surface1">
<path style=" stroke:none;fill-rule:evenodd;fill:rgb(0%,26.27451%,35.686275%);fill-opacity:1;" d="M 24.683594 24.261719 L 23.917969 25.59375 C 23.6875 25.996094 23.257812 26.246094 22.792969 26.246094 L 16.917969 26.246094 C 16.453125 26.242188 16.027344 25.996094 15.796875 25.59375 L 15.027344 24.261719 Z M 26.832031 20.535156 L 25.480469 22.882812 L 14.234375 22.882812 L 12.878906 20.535156 Z M 25.527344 16.886719 L 26.835938 19.152344 L 12.878906 19.152344 L 14.183594 16.886719 Z M 22.792969 13.4375 C 23.257812 13.4375 23.6875 13.6875 23.917969 14.085938 L 24.734375 15.507812 L 14.976562 15.507812 L 15.796875 14.085938 C 16.027344 13.6875 16.453125 13.4375 16.917969 13.4375 Z M 22.792969 13.4375 "/>
<path style=" stroke:none;fill-rule:nonzero;fill:rgb(0%,16.862745%,23.137255%);fill-opacity:1;" d="M 8.363281 12.820312 C 7.710938 9.664062 7.570312 7.242188 7.992188 5.484375 C 8.242188 4.4375 8.699219 3.585938 9.398438 2.96875 C 10.132812 2.320312 11.058594 2 12.105469 2 C 13.824219 2 15.636719 2.785156 17.570312 4.277344 C 18.359375 4.886719 19.175781 5.617188 20.027344 6.476562 C 20.097656 6.386719 20.171875 6.304688 20.257812 6.230469 C 22.660156 4.089844 24.683594 2.757812 26.417969 2.246094 C 27.445312 1.941406 28.414062 1.910156 29.292969 2.207031 C 30.222656 2.519531 30.960938 3.164062 31.484375 4.070312 C 32.34375 5.566406 32.574219 7.527344 32.253906 9.953125 C 32.121094 10.941406 31.898438 12.015625 31.582031 13.183594 C 31.699219 13.195312 31.820312 13.222656 31.9375 13.261719 C 34.988281 14.273438 37.148438 15.359375 38.457031 16.601562 C 39.234375 17.339844 39.742188 18.164062 39.925781 19.074219 C 40.121094 20.035156 39.929688 21 39.410156 21.90625 C 38.546875 23.398438 36.96875 24.574219 34.710938 25.503906 C 33.808594 25.878906 32.785156 26.21875 31.640625 26.523438 C 31.691406 26.640625 31.734375 26.765625 31.761719 26.898438 C 32.410156 30.054688 32.550781 32.476562 32.128906 34.234375 C 31.878906 35.28125 31.421875 36.132812 30.726562 36.75 C 29.992188 37.398438 29.0625 37.71875 28.019531 37.71875 C 26.296875 37.71875 24.488281 36.933594 22.554688 35.441406 C 21.757812 34.828125 20.929688 34.085938 20.070312 33.214844 C 19.976562 33.355469 19.867188 33.484375 19.742188 33.59375 C 17.339844 35.738281 15.316406 37.070312 13.582031 37.582031 C 12.554688 37.886719 11.585938 37.914062 10.707031 37.621094 C 9.777344 37.308594 9.039062 36.660156 8.515625 35.757812 C 7.65625 34.261719 7.425781 32.300781 7.746094 29.875 C 7.882812 28.851562 8.121094 27.734375 8.453125 26.519531 C 8.320312 26.503906 8.191406 26.476562 8.0625 26.433594 C 5.011719 25.421875 2.851562 24.335938 1.542969 23.09375 C 0.765625 22.355469 0.257812 21.53125 0.0742188 20.621094 C -0.121094 19.660156 0.0703125 18.695312 0.589844 17.789062 C 1.453125 16.296875 3.03125 15.121094 5.289062 14.191406 C 6.21875 13.804688 7.277344 13.457031 8.460938 13.144531 C 8.417969 13.039062 8.386719 12.929688 8.363281 12.820312 "/>
<path style=" stroke:none;fill-rule:evenodd;fill:rgb(100%,25.490196%,32.941176%);fill-opacity:1;" d="M 16.195312 11.816406 C 17.777344 11.6875 19.40625 11.632812 21.085938 11.648438 C 21.308594 11.648438 21.511719 11.523438 21.609375 11.320312 C 21.707031 11.121094 21.679688 10.882812 21.539062 10.710938 C 17.71875 6.007812 14.574219 3.65625 12.101562 3.65625 C 9.550781 3.65625 8.824219 6.464844 9.917969 12.089844 C 9.976562 12.398438 10.273438 12.601562 10.582031 12.546875 C 12.535156 12.203125 14.40625 11.957031 16.195312 11.816406 M 25.074219 12.589844 C 26.011719 13.941406 26.886719 15.335938 27.703125 16.769531 C 27.8125 16.960938 28.023438 17.074219 28.246094 17.058594 C 28.46875 17.039062 28.660156 16.898438 28.738281 16.6875 C 30.902344 11.019531 31.355469 7.113281 30.101562 4.960938 C 28.808594 2.746094 25.992188 3.511719 21.652344 7.265625 C 21.414062 7.46875 21.386719 7.828125 21.589844 8.070312 C 22.878906 9.59375 24.039062 11.101562 25.074219 12.589844 M 28.90625 20.507812 C 28.222656 21.941406 27.453125 23.386719 26.601562 24.835938 C 26.488281 25.03125 26.496094 25.269531 26.621094 25.453125 C 26.75 25.640625 26.96875 25.734375 27.191406 25.695312 C 33.144531 24.71875 36.742188 23.15625 37.976562 21.007812 C 39.253906 18.792969 37.203125 16.761719 31.816406 14.914062 C 31.519531 14.8125 31.195312 14.96875 31.085938 15.261719 C 30.40625 17.128906 29.679688 18.878906 28.90625 20.507812 M 24.019531 27.941406 C 22.4375 28.066406 20.808594 28.121094 19.128906 28.105469 C 18.90625 28.105469 18.703125 28.230469 18.605469 28.433594 C 18.507812 28.632812 18.539062 28.871094 18.679688 29.046875 C 22.496094 33.75 25.644531 36.101562 28.113281 36.101562 C 30.664062 36.101562 31.394531 33.289062 30.296875 27.664062 C 30.238281 27.355469 29.941406 27.152344 29.632812 27.207031 C 27.683594 27.554688 25.8125 27.796875 24.019531 27.941406 M 14.925781 27.238281 C 13.988281 25.882812 13.113281 24.488281 12.296875 23.058594 C 12.1875 22.863281 11.976562 22.753906 11.753906 22.769531 C 11.53125 22.785156 11.339844 22.929688 11.261719 23.136719 C 9.097656 28.804688 8.644531 32.714844 9.898438 34.863281 C 11.191406 37.082031 14.007812 36.316406 18.347656 32.5625 C 18.585938 32.355469 18.613281 31.996094 18.410156 31.757812 C 17.121094 30.230469 15.960938 28.726562 14.925781 27.238281 M 11.09375 19.105469 C 11.777344 17.667969 12.546875 16.222656 13.398438 14.773438 C 13.511719 14.582031 13.503906 14.339844 13.378906 14.15625 C 13.25 13.972656 13.03125 13.878906 12.808594 13.914062 C 6.855469 14.894531 3.257812 16.457031 2.023438 18.601562 C 0.746094 20.820312 2.796875 22.851562 8.183594 24.695312 C 8.480469 24.796875 8.804688 24.644531 8.914062 24.347656 C 9.59375 22.480469 10.320312 20.734375 11.09375 19.105469 "/>
<path style=" stroke:none;fill-rule:evenodd;fill:rgb(100%,85.098039%,29.803922%);fill-opacity:1;" d="M 17.390625 13.511719 L 22.324219 13.511719 C 23.046875 13.511719 23.710938 13.894531 24.070312 14.523438 L 26.546875 18.839844 C 26.902344 19.460938 26.902344 20.222656 26.546875 20.84375 L 24.070312 25.160156 C 23.710938 25.785156 23.046875 26.171875 22.324219 26.171875 L 17.390625 26.171875 C 16.667969 26.171875 16.003906 25.785156 15.644531 25.160156 L 13.164062 20.84375 C 12.808594 20.222656 12.808594 19.460938 13.164062 18.839844 L 15.644531 14.523438 C 16.003906 13.898438 16.667969 13.511719 17.390625 13.511719 M 21.570312 14.8125 C 22.292969 14.8125 22.960938 15.199219 23.320312 15.824219 L 25.046875 18.839844 C 25.402344 19.460938 25.402344 20.222656 25.046875 20.84375 L 23.320312 23.855469 C 22.960938 24.484375 22.292969 24.867188 21.570312 24.871094 L 18.140625 24.871094 C 17.417969 24.867188 16.753906 24.484375 16.394531 23.855469 L 14.667969 20.84375 C 14.3125 20.222656 14.3125 19.460938 14.667969 18.839844 L 16.394531 15.824219 C 16.753906 15.199219 17.421875 14.8125 18.140625 14.8125 Z M 20.761719 16.238281 L 18.953125 16.238281 C 18.230469 16.238281 17.566406 16.625 17.207031 17.25 L 16.292969 18.835938 C 15.9375 19.460938 15.9375 20.222656 16.292969 20.84375 L 17.207031 22.433594 C 17.566406 23.058594 18.230469 23.445312 18.953125 23.445312 L 20.761719 23.445312 C 21.480469 23.445312 22.148438 23.058594 22.507812 22.433594 L 23.421875 20.84375 C 23.777344 20.222656 23.777344 19.460938 23.421875 18.835938 L 22.507812 17.25 C 22.148438 16.625 21.480469 16.238281 20.761719 16.238281 M 19.980469 17.601562 C 20.703125 17.601562 21.367188 17.988281 21.726562 18.613281 L 21.855469 18.835938 C 22.214844 19.457031 22.214844 20.222656 21.855469 20.847656 L 21.726562 21.070312 C 21.367188 21.695312 20.703125 22.078125 19.980469 22.082031 L 19.734375 22.082031 C 19.011719 22.082031 18.347656 21.695312 17.988281 21.070312 L 17.855469 20.847656 C 17.5 20.222656 17.5 19.457031 17.855469 18.835938 L 17.988281 18.613281 C 18.347656 17.988281 19.011719 17.601562 19.734375 17.601562 Z M 19.855469 18.945312 C 19.535156 18.945312 19.242188 19.117188 19.082031 19.394531 C 18.921875 19.671875 18.921875 20.011719 19.082031 20.289062 C 19.328125 20.71875 19.875 20.863281 20.304688 20.617188 C 20.734375 20.371094 20.878906 19.820312 20.632812 19.394531 C 20.472656 19.117188 20.175781 18.945312 19.855469 18.945312 M 12.589844 19.839844 L 14.203125 19.839844 Z M 12.589844 19.839844 "/>
</g>
</svg>
