<?xml version="1.0" encoding="UTF-8"?>
<svg xmlns="http://www.w3.org/2000/svg" xmlns:xlink="http://www.w3.org/1999/xlink" width="40px" height="px" viewBox="0 0 40 40" version="1.1">
<g id="surface1">
<path style=" stroke:none;fill-rule:nonzero;fill:rgb(38.039216%,85.490196%,98.431373%);fill-opacity:1;" d="M 20.121094 23.527344 C 22.070312 23.527344 23.648438 21.949219 23.648438 20 C 23.648438 18.054688 22.070312 16.472656 20.121094 16.472656 C 18.175781 16.472656 16.597656 18.054688 16.597656 20 C 16.597656 21.949219 18.175781 23.527344 20.121094 23.527344 "/>
<path style="fill:none;stroke-width:5;stroke-linecap:butt;stroke-linejoin:miter;stroke:rgb(38.039216%,85.490196%,98.431373%);stroke-opacity:1;stroke-miterlimit:4;" d="M 50.302734 68.066406 C 76.435547 68.066406 97.617188 59.980469 97.617188 50 C 97.617188 40.029297 76.435547 31.933594 50.302734 31.933594 C 24.179688 31.933594 2.998047 40.029297 2.998047 50 C 2.998047 59.980469 24.179688 68.066406 50.302734 68.066406 Z M 50.302734 68.066406 " transform="matrix(0.4,0,0,0.4,0,0)"/>
<path style="fill:none;stroke-width:5;stroke-linecap:butt;stroke-linejoin:miter;stroke:rgb(38.039216%,85.490196%,98.431373%);stroke-opacity:1;stroke-miterlimit:4;" d="M 34.667969 59.033203 C 47.724609 81.660156 65.322266 95.957031 73.964844 90.966797 C 82.597656 85.976562 79.013672 63.59375 65.947266 40.966797 C 52.880859 18.339844 35.292969 4.042969 26.650391 9.033203 C 18.017578 14.023438 21.601562 36.40625 34.658203 59.033203 Z M 34.667969 59.033203 " transform="matrix(0.4,0,0,0.4,0,0)"/>
<path style="fill:none;stroke-width:5;stroke-linecap:butt;stroke-linejoin:miter;stroke:rgb(38.039216%,85.490196%,98.431373%);stroke-opacity:1;stroke-miterlimit:4;" d="M 34.667969 40.966797 C 21.601562 63.59375 18.017578 85.976562 26.650391 90.966797 C 35.292969 95.957031 52.890625 81.660156 65.947266 59.033203 C 79.013672 36.40625 82.597656 14.023438 73.955078 9.033203 C 65.322266 4.042969 47.724609 18.339844 34.667969 40.966797 Z M 34.667969 40.966797 " transform="matrix(0.4,0,0,0.4,0,0)"/>
</g>
</svg>
