<?xml version="1.0" encoding="UTF-8"?>
<svg xmlns="http://www.w3.org/2000/svg" xmlns:xlink="http://www.w3.org/1999/xlink" width="40px" height="px" viewBox="0 0 40 40" version="1.1">
<g id="surface1">
<path style=" stroke:none;fill-rule:nonzero;fill:rgb(0%,0%,0%);fill-opacity:1;" d="M 12.253906 23.734375 C 10.265625 23.734375 8.648438 22.101562 8.648438 20.101562 C 8.648438 18.101562 10.269531 16.46875 12.253906 16.46875 C 14.242188 16.46875 15.859375 18.101562 15.859375 20.101562 C 15.859375 22.101562 14.238281 23.734375 12.253906 23.734375 M 3.59375 30.949219 C 1.609375 30.945312 -0.0078125 29.308594 0 27.304688 C 0.00390625 25.308594 1.621094 23.6875 3.621094 23.683594 C 5.605469 23.6875 7.222656 25.328125 7.214844 27.328125 C 7.210938 29.328125 5.589844 30.945312 3.59375 30.949219 M 36.421875 30.949219 C 34.421875 30.953125 32.796875 29.34375 32.785156 27.34375 C 32.773438 25.339844 34.382812 23.695312 36.367188 23.683594 C 38.363281 23.679688 39.988281 25.292969 40 27.289062 C 40.011719 29.292969 38.402344 30.941406 36.421875 30.953125 "/>
<path style=" stroke:none;fill-rule:nonzero;fill:rgb(95.686275%,25.882353%,31.372549%);fill-opacity:1;" d="M 29.660156 16.679688 C 28.679688 16.375 27.632812 16.246094 26.601562 16.136719 C 25.011719 15.960938 24.378906 15.34375 24.109375 13.75 C 23.960938 12.859375 23.75 11.949219 23.363281 11.140625 C 22.628906 9.605469 20.910156 8.914062 19.1875 9.308594 C 17.726562 9.640625 16.519531 11.09375 16.449219 12.582031 C 16.375 14.28125 17.34375 15.730469 19.015625 16.230469 C 19.808594 16.472656 20.652344 16.589844 21.480469 16.652344 C 23 16.761719 23.507812 17.214844 23.917969 17.90625 C 24.175781 18.34375 24.425781 18.773438 24.425781 20.074219 C 24.425781 21.378906 24.175781 21.808594 23.917969 22.242188 C 23.507812 22.933594 23 23.386719 21.480469 23.5 C 20.652344 23.558594 19.808594 23.679688 19.015625 23.917969 C 17.34375 24.421875 16.375 25.867188 16.449219 27.570312 C 16.519531 29.058594 17.730469 30.507812 19.1875 30.84375 C 20.910156 31.238281 22.628906 30.546875 23.363281 29.007812 C 23.75 28.203125 23.960938 27.289062 24.113281 26.402344 C 24.382812 24.808594 25.015625 24.1875 26.605469 24.015625 C 27.632812 23.90625 28.679688 23.777344 29.660156 23.46875 C 31.148438 23.003906 32.042969 21.617188 32.042969 20.074219 C 32.042969 18.535156 31.148438 17.148438 29.660156 16.679688 "/>
</g>
</svg>
