<?xml version="1.0" encoding="UTF-8"?>
<svg xmlns="http://www.w3.org/2000/svg" xmlns:xlink="http://www.w3.org/1999/xlink" width="40px" height="px" viewBox="0 0 40 40" version="1.1">
<g id="surface1">
<rect x="0" y="0" width="40" height="40" style="fill:rgb(20%,20%,20%);fill-opacity:1;stroke:none;"/>
<path style=" stroke:none;fill-rule:nonzero;fill:rgb(0%,84.705882%,100%);fill-opacity:1;" d="M 36 20 C 36 17.621094 33.738281 15.519531 30.199219 14.101562 C 30.761719 10.339844 30.058594 7.320312 28 6.101562 C 27.386719 5.761719 26.699219 5.585938 26 5.578125 C 23.769531 5.777344 21.660156 6.699219 20 8.199219 C 18.332031 6.710938 16.226562 5.804688 14 5.621094 C 13.300781 5.625 12.613281 5.804688 12 6.140625 C 10 7.320312 9.238281 10.339844 9.800781 14.140625 C 6.261719 15.519531 4 17.621094 4 20 C 4 22.378906 6.261719 24.480469 9.800781 26 C 9.238281 29.761719 9.941406 32.78125 12 34 C 12.613281 34.335938 13.300781 34.515625 14 34.519531 C 16.230469 34.324219 18.339844 33.402344 20 31.898438 C 21.660156 33.402344 23.769531 34.324219 26 34.519531 C 26.699219 34.515625 27.386719 34.335938 28 34 C 30 32.820312 30.761719 29.800781 30.199219 26 C 33.738281 24.480469 36 22.378906 36 20 Z M 26 7.621094 C 26.371094 7.605469 26.738281 7.695312 27.058594 7.878906 C 28.140625 8.5 28.699219 10.558594 28.339844 13.460938 C 27.027344 13.085938 25.691406 12.804688 24.339844 12.621094 C 23.480469 11.546875 22.542969 10.539062 21.539062 9.601562 C 22.792969 8.503906 24.347656 7.816406 26 7.621094 Z M 27.378906 22.539062 C 27.621094 23.238281 27.800781 23.921875 27.960938 24.539062 C 27.304688 24.75 26.636719 24.925781 25.960938 25.058594 C 26.21875 24.640625 26.5 24.238281 26.761719 23.78125 C 27.019531 23.320312 27.101562 22.960938 27.320312 22.539062 Z M 24.960938 22.820312 C 24.417969 23.742188 23.832031 24.636719 23.199219 25.5 C 22.15625 25.605469 21.109375 25.660156 20.058594 25.660156 C 19.011719 25.660156 17.964844 25.605469 16.921875 25.5 C 16.289062 24.636719 15.699219 23.742188 15.160156 22.820312 C 14.621094 21.859375 14.140625 20.921875 13.71875 20.019531 C 14.148438 19.046875 14.628906 18.101562 15.160156 17.179688 C 15.695312 16.253906 16.28125 15.359375 16.921875 14.5 C 19.007812 14.285156 21.113281 14.285156 23.199219 14.5 C 23.832031 15.363281 24.417969 16.257812 24.960938 17.179688 C 25.46875 18.09375 25.929688 19.035156 26.339844 20 C 26 20.921875 25.441406 21.859375 24.898438 22.820312 Z M 20 29.101562 C 19.519531 28.640625 19.039062 28.160156 18.558594 27.621094 L 21.441406 27.621094 C 20.960938 28.160156 20.480469 28.640625 20 29.101562 Z M 13.378906 23.820312 C 13.640625 24.28125 13.921875 24.679688 14.179688 25.101562 C 13.503906 24.964844 12.835938 24.789062 12.179688 24.578125 C 12.339844 23.921875 12.519531 23.238281 12.761719 22.578125 C 12.898438 22.960938 13.121094 23.398438 13.378906 23.820312 Z M 12.660156 17.480469 C 12.421875 16.761719 12.238281 16.078125 12.078125 15.480469 C 12.738281 15.273438 13.40625 15.097656 14.078125 14.960938 C 13.820312 15.378906 13.539062 15.78125 13.28125 16.238281 C 13.019531 16.699219 12.878906 17.039062 12.660156 17.480469 Z M 20 10.898438 C 20.480469 11.359375 20.960938 11.839844 21.441406 12.378906 L 18.558594 12.378906 C 19.039062 11.839844 19.519531 11.359375 20 10.898438 Z M 26.621094 16.179688 C 26.359375 15.71875 26.078125 15.320312 25.820312 14.898438 C 26.554688 15.03125 27.285156 15.207031 28 15.421875 C 27.839844 16.078125 27.660156 16.761719 27.421875 17.421875 C 27.121094 17.039062 26.878906 16.621094 26.621094 16.179688 Z M 13 7.878906 C 13.304688 7.707031 13.648438 7.617188 14 7.621094 C 15.632812 7.832031 17.167969 8.527344 18.398438 9.621094 C 17.453125 10.558594 16.570312 11.558594 15.761719 12.621094 C 14.410156 12.804688 13.070312 13.085938 11.761719 13.460938 C 11.359375 10.558594 12 8.5 13 7.878906 Z M 6 20 C 6 18.761719 7.5 17.238281 10.199219 16.101562 C 10.527344 17.433594 10.960938 18.738281 11.5 20 C 10.957031 21.296875 10.523438 22.632812 10.199219 24 C 7.5 22.761719 6 21.238281 6 20 Z M 14 32.378906 C 13.628906 32.394531 13.261719 32.304688 12.941406 32.121094 C 11.898438 31.519531 11.398438 29.699219 11.601562 27.238281 L 11.601562 26.539062 C 12.910156 26.914062 14.25 27.195312 15.601562 27.378906 C 16.480469 28.453125 17.433594 29.464844 18.460938 30.398438 C 17.207031 31.496094 15.652344 32.183594 14 32.378906 Z M 28.28125 27.238281 C 28.480469 29.699219 27.980469 31.519531 26.941406 32.121094 C 26.617188 32.304688 26.25 32.394531 25.878906 32.378906 C 24.246094 32.167969 22.714844 31.472656 21.480469 30.378906 C 22.449219 29.4375 23.351562 28.429688 24.179688 27.359375 C 25.53125 27.175781 26.867188 26.894531 28.179688 26.519531 C 28.261719 26.78125 28.339844 27.019531 28.339844 27.238281 Z M 29.800781 24 C 29.476562 22.632812 29.042969 21.296875 28.5 20 C 29.039062 18.738281 29.472656 17.433594 29.800781 16.101562 C 32.5 17.238281 34 18.761719 34 20 C 34 21.238281 32.5 22.761719 29.800781 24 Z M 29.800781 24 "/>
<path style=" stroke:none;fill-rule:nonzero;fill:rgb(0%,84.705882%,100%);fill-opacity:1;" d="M 18 20 C 18 21.105469 18.894531 22 20 22 C 21.105469 22 22 21.105469 22 20 C 22 18.894531 21.105469 18 20 18 C 18.894531 18 18 18.894531 18 20 Z M 18 20 "/>
</g>
</svg>
