<?xml version="1.0" encoding="UTF-8"?>
<svg xmlns="http://www.w3.org/2000/svg" xmlns:xlink="http://www.w3.org/1999/xlink" width="40px" height="px" viewBox="0 0 40 40" version="1.1">
<g id="surface1">
<path style=" stroke:none;fill-rule:nonzero;fill:rgb(46.27451%,29.019608%,73.72549%);fill-opacity:1;" d="M 27.714844 27.722656 C 29.191406 27.566406 30.3125 26.296875 30.261719 24.769531 C 30.210938 23.242188 28.9375 22.019531 27.410156 22.019531 L 27.308594 22.019531 C 25.730469 22.070312 24.507812 23.394531 24.558594 24.972656 C 24.609375 25.734375 24.914062 26.398438 25.375 26.855469 C 23.644531 30.265625 20.996094 32.761719 17.027344 34.847656 C 14.328125 36.273438 11.527344 36.78125 8.730469 36.425781 C 6.4375 36.121094 4.65625 35.101562 3.539062 33.421875 C 1.90625 30.929688 1.757812 28.230469 3.128906 25.53125 C 4.097656 23.597656 5.625 22.171875 6.589844 21.460938 C 6.386719 20.796875 6.082031 19.679688 5.929688 18.863281 C -1.449219 24.207031 -0.6875 31.4375 1.550781 34.847656 C 3.230469 37.394531 6.640625 38.972656 10.410156 38.972656 C 11.425781 38.972656 12.445312 38.867188 13.460938 38.613281 C 19.976562 37.339844 24.914062 33.472656 27.714844 27.722656 M 36.675781 21.410156 C 32.804688 16.878906 27.105469 14.382812 20.589844 14.382812 L 19.773438 14.382812 C 19.316406 13.46875 18.347656 12.855469 17.28125 12.855469 L 17.179688 12.855469 C 15.601562 12.90625 14.378906 14.230469 14.429688 15.808594 C 14.480469 17.335938 15.753906 18.558594 17.28125 18.558594 L 17.382812 18.558594 C 18.503906 18.507812 19.46875 17.792969 19.875 16.828125 L 20.792969 16.828125 C 24.660156 16.828125 28.328125 17.949219 31.636719 20.136719 C 34.179688 21.816406 36.011719 24.003906 37.03125 26.652344 C 37.894531 28.789062 37.84375 30.875 36.929688 32.660156 C 35.503906 35.355469 33.113281 36.832031 29.957031 36.832031 C 27.921875 36.832031 25.984375 36.222656 24.96875 35.761719 C 24.40625 36.273438 23.390625 37.085938 22.675781 37.597656 C 24.867188 38.613281 27.105469 39.175781 29.242188 39.175781 C 34.128906 39.175781 37.742188 36.476562 39.117188 33.777344 C 40.59375 30.824219 40.492188 25.734375 36.675781 21.410156 M 10.816406 28.585938 C 10.867188 30.113281 12.140625 31.335938 13.667969 31.335938 L 13.769531 31.335938 C 15.347656 31.285156 16.570312 29.960938 16.515625 28.382812 C 16.464844 26.855469 15.195312 25.632812 13.667969 25.632812 L 13.566406 25.632812 C 13.464844 25.632812 13.308594 25.632812 13.210938 25.683594 C 11.121094 22.222656 10.257812 18.457031 10.5625 14.382812 C 10.765625 11.328125 11.785156 8.683594 13.566406 6.492188 C 15.042969 4.609375 17.890625 3.695312 19.824219 3.644531 C 25.222656 3.542969 27.511719 10.261719 27.664062 12.957031 C 28.328125 13.113281 29.445312 13.46875 30.210938 13.722656 C 29.597656 5.476562 24.507812 1.199219 19.621094 1.199219 C 15.042969 1.199219 10.816406 4.507812 9.136719 9.394531 C 6.796875 15.910156 8.320312 22.171875 11.171875 27.109375 C 10.917969 27.464844 10.765625 28.027344 10.816406 28.585938 "/>
</g>
</svg>
