<?xml version="1.0" encoding="UTF-8"?>
<svg xmlns="http://www.w3.org/2000/svg" xmlns:xlink="http://www.w3.org/1999/xlink" width="40px" height="px" viewBox="0 0 40 40" version="1.1">
<g id="surface1">
<path style=" stroke:none;fill-rule:nonzero;fill:rgb(0%,0%,0%);fill-opacity:1;" d="M 0 24.246094 L 1.769531 24.246094 L 1.769531 21.480469 L 3.253906 21.480469 L 4.644531 24.25 L 6.597656 24.25 L 4.972656 21.066406 C 5.832031 20.65625 6.386719 19.804688 6.386719 18.746094 C 6.386719 17.074219 5.171875 16 3.359375 16 L 0 16 Z M 3.21875 17.472656 C 4.054688 17.472656 4.585938 17.96875 4.585938 18.746094 C 4.585938 19.511719 4.054688 20.007812 3.21875 20.007812 L 1.769531 20.007812 L 1.769531 17.472656 Z M 10.113281 24.320312 C 11.726562 24.320312 12.777344 23.375 12.964844 22.199219 L 11.328125 22.199219 C 11.183594 22.761719 10.714844 23.058594 10.042969 23.058594 C 9.207031 23.058594 8.652344 22.539062 8.617188 21.679688 L 8.617188 21.597656 L 13.011719 21.597656 C 13.042969 21.410156 13.058594 21.222656 13.058594 21.03125 C 13.035156 19.253906 11.808594 18.121094 9.996094 18.121094 C 8.121094 18.121094 6.886719 19.347656 6.886719 21.230469 C 6.886719 23.105469 8.097656 24.320312 10.113281 24.320312 M 8.652344 20.511719 C 8.746094 19.792969 9.289062 19.359375 10.007812 19.359375 C 10.761719 19.359375 11.269531 19.769531 11.386719 20.511719 Z M 13.636719 22.234375 C 13.710938 23.527344 14.851562 24.320312 16.539062 24.320312 C 18.164062 24.320312 19.292969 23.554688 19.292969 22.351562 C 19.292969 20.984375 18.140625 20.664062 16.75 20.523438 C 15.878906 20.417969 15.359375 20.371094 15.359375 19.910156 C 15.359375 19.523438 15.78125 19.289062 16.429688 19.289062 C 17.101562 19.289062 17.5625 19.582031 17.609375 20.066406 L 19.199219 20.066406 C 19.117188 18.828125 18 18.109375 16.371094 18.109375 C 14.816406 18.097656 13.769531 18.886719 13.769531 20.089844 C 13.769531 21.335938 14.863281 21.65625 16.277344 21.820312 C 17.257812 21.949219 17.667969 21.984375 17.667969 22.480469 C 17.667969 22.90625 17.246094 23.128906 16.546875 23.128906 C 15.734375 23.128906 15.277344 22.761719 15.21875 22.234375 Z M 23.164062 24.320312 C 24.777344 24.320312 25.824219 23.375 26.015625 22.199219 L 24.375 22.199219 C 24.234375 22.761719 23.761719 23.058594 23.089844 23.058594 C 22.253906 23.058594 21.703125 22.539062 21.664062 21.679688 L 21.664062 21.597656 L 26.0625 21.597656 C 26.097656 21.410156 26.109375 21.207031 26.109375 21.03125 C 26.085938 19.253906 24.859375 18.121094 23.042969 18.121094 C 21.171875 18.121094 19.933594 19.347656 19.933594 21.230469 C 19.933594 23.105469 21.148438 24.320312 23.164062 24.320312 M 21.703125 20.511719 C 21.796875 19.792969 22.335938 19.359375 23.058594 19.359375 C 23.8125 19.359375 24.316406 19.769531 24.433594 20.511719 Z M 30.492188 18.121094 C 29.5625 18.121094 29.007812 18.472656 28.621094 18.945312 L 28.464844 18.191406 L 27.015625 18.191406 L 27.015625 24.25 L 28.675781 24.25 L 28.675781 21.148438 C 28.675781 20.101562 29.171875 19.488281 30.03125 19.488281 C 30.871094 19.488281 31.257812 20.03125 31.257812 21.054688 L 31.257812 24.25 L 32.921875 24.25 L 32.921875 20.890625 C 32.921875 18.816406 31.800781 18.121094 30.492188 18.121094 M 38.339844 18.945312 C 37.949219 18.449219 37.347656 18.121094 36.511719 18.121094 C 34.898438 18.121094 33.707031 19.335938 33.707031 21.207031 C 33.707031 23.128906 34.898438 24.320312 36.523438 24.320312 C 37.394531 24.320312 37.984375 23.929688 38.386719 23.410156 L 38.550781 24.25 L 40 24.25 L 40 16 L 38.339844 16 Z M 36.890625 22.964844 C 35.980469 22.964844 35.40625 22.257812 35.40625 21.21875 C 35.40625 20.183594 35.980469 19.476562 36.890625 19.476562 C 37.796875 19.476562 38.363281 20.195312 38.363281 21.230469 C 38.363281 22.257812 37.796875 22.964844 36.890625 22.964844 "/>
</g>
</svg>
