<?xml version="1.0" encoding="UTF-8"?>
<svg xmlns="http://www.w3.org/2000/svg" xmlns:xlink="http://www.w3.org/1999/xlink" width="40px" height="px" viewBox="0 0 40 40" version="1.1">
<g id="surface1">
<path style=" stroke:none;fill-rule:nonzero;fill:rgb(80.392157%,40.392157%,60%);fill-opacity:1;" d="M 34.441406 22.445312 C 33.046875 22.453125 31.835938 22.789062 30.820312 23.285156 C 30.445312 22.546875 30.074219 21.890625 30.007812 21.40625 C 29.933594 20.84375 29.847656 20.5 29.933594 19.828125 C 30.023438 19.15625 30.417969 18.199219 30.410156 18.125 C 30.402344 18.054688 30.324219 17.710938 29.519531 17.703125 C 28.714844 17.695312 28.019531 17.855469 27.941406 18.070312 C 27.859375 18.28125 27.707031 18.761719 27.605469 19.257812 C 27.464844 19.988281 25.996094 22.597656 25.15625 23.964844 C 24.886719 23.429688 24.652344 22.964844 24.601562 22.589844 C 24.527344 22.027344 24.441406 21.683594 24.527344 21.011719 C 24.617188 20.339844 25.011719 19.382812 25.003906 19.308594 C 24.996094 19.238281 24.914062 18.894531 24.113281 18.886719 C 23.308594 18.878906 22.613281 19.039062 22.535156 19.253906 C 22.453125 19.464844 22.367188 19.960938 22.199219 20.441406 C 22.03125 20.925781 20.078125 25.28125 19.566406 26.402344 C 19.359375 26.859375 19.144531 27.308594 18.917969 27.757812 C 18.917969 27.757812 18.910156 27.777344 18.886719 27.8125 C 18.75 28.085938 18.667969 28.230469 18.667969 28.230469 L 18.667969 28.238281 C 18.558594 28.433594 18.441406 28.617188 18.382812 28.617188 C 18.339844 28.617188 18.261719 28.09375 18.398438 27.375 C 18.691406 25.863281 19.386719 23.511719 19.378906 23.429688 C 19.378906 23.386719 19.507812 22.976562 18.925781 22.765625 C 18.355469 22.554688 18.152344 22.90625 18.097656 22.90625 C 18.046875 22.90625 18.011719 23.027344 18.011719 23.027344 C 18.011719 23.027344 18.648438 20.382812 16.796875 20.382812 C 15.644531 20.382812 14.050781 21.648438 13.261719 22.789062 C 12.367188 23.277344 11.46875 23.765625 10.574219 24.257812 C 10.144531 24.496094 9.695312 24.738281 9.28125 24.964844 C 9.25 24.9375 9.222656 24.898438 9.191406 24.871094 C 6.957031 22.480469 2.820312 20.792969 2.996094 17.585938 C 3.0625 16.417969 3.464844 13.347656 10.9375 9.621094 C 17.089844 6.589844 21.984375 7.429688 22.832031 9.292969 C 24.046875 11.953125 20.210938 16.890625 13.855469 17.609375 C 11.429688 17.878906 10.15625 16.941406 9.835938 16.59375 C 9.5 16.226562 9.449219 16.203125 9.324219 16.277344 C 9.121094 16.386719 9.25 16.714844 9.324219 16.90625 C 9.515625 17.402344 10.296875 18.28125 11.617188 18.710938 C 12.789062 19.089844 15.628906 19.304688 19.070312 17.972656 C 22.921875 16.480469 25.929688 12.339844 25.046875 8.871094 C 24.164062 5.347656 18.320312 4.1875 12.789062 6.152344 C 9.5 7.320312 5.933594 9.160156 3.371094 11.558594 C 0.324219 14.40625 -0.160156 16.886719 0.0390625 17.921875 C 0.746094 21.605469 5.824219 24 7.855469 25.777344 C 7.753906 25.835938 7.660156 25.886719 7.578125 25.929688 C 6.5625 26.433594 2.691406 28.457031 1.726562 30.597656 C 0.628906 33.023438 1.902344 34.761719 2.742188 34.996094 C 5.351562 35.71875 8.03125 34.417969 9.472656 32.269531 C 10.910156 30.125 10.734375 27.332031 10.070312 26.054688 C 10.0625 26.039062 10.050781 26.023438 10.039062 26.007812 C 10.304688 25.855469 10.574219 25.695312 10.835938 25.542969 C 11.320312 25.257812 11.808594 24.980469 12.304688 24.714844 C 12.058594 25.394531 11.875 26.207031 11.785156 27.375 C 11.675781 28.75 12.238281 30.53125 12.976562 31.234375 C 13.304688 31.539062 13.695312 31.546875 13.941406 31.546875 C 14.804688 31.546875 15.191406 30.832031 15.621094 29.984375 C 16.148438 28.945312 16.625 27.742188 16.625 27.742188 C 16.625 27.742188 16.03125 31 17.640625 31 C 18.222656 31 18.816406 30.238281 19.078125 29.851562 L 19.078125 29.859375 C 19.078125 29.859375 19.09375 29.839844 19.121094 29.785156 C 19.179688 29.691406 19.21875 29.632812 19.21875 29.632812 L 19.21875 29.617188 C 19.449219 29.210938 19.976562 28.28125 20.757812 26.742188 C 21.765625 24.753906 22.738281 22.269531 22.738281 22.269531 C 22.738281 22.269531 22.828125 22.875 23.125 23.882812 C 23.300781 24.476562 23.667969 25.125 23.957031 25.753906 C 23.726562 26.082031 23.578125 26.265625 23.578125 26.265625 L 23.585938 26.273438 C 23.394531 26.519531 23.191406 26.792969 22.964844 27.054688 C 22.167969 28.003906 21.21875 29.09375 21.085938 29.40625 C 20.933594 29.78125 20.96875 30.050781 21.261719 30.269531 C 21.476562 30.429688 21.855469 30.453125 22.242188 30.429688 C 22.957031 30.378906 23.460938 30.203125 23.710938 30.09375 C 24.097656 29.953125 24.550781 29.742188 24.972656 29.429688 C 25.757812 28.851562 26.230469 28.027344 26.1875 26.9375 C 26.164062 26.339844 25.96875 25.738281 25.726562 25.175781 C 25.800781 25.074219 25.867188 24.972656 25.9375 24.871094 C 27.171875 23.066406 28.128906 21.085938 28.128906 21.085938 C 28.128906 21.085938 28.21875 21.691406 28.519531 22.699219 C 28.664062 23.210938 28.964844 23.765625 29.226562 24.308594 C 28.066406 25.25 27.347656 26.34375 27.09375 27.0625 C 26.632812 28.390625 26.992188 28.992188 27.671875 29.128906 C 27.976562 29.195312 28.414062 29.050781 28.738281 28.910156 C 29.222656 28.75 29.675781 28.515625 30.089844 28.214844 C 30.871094 27.640625 31.621094 26.835938 31.578125 25.746094 C 31.558594 25.25 31.425781 24.761719 31.242188 24.285156 C 32.230469 23.875 33.5 23.648438 35.121094 23.839844 C 38.601562 24.25 39.289062 26.417969 39.15625 27.332031 C 39.023438 28.246094 38.292969 28.742188 38.050781 28.894531 C 37.8125 29.050781 37.730469 29.101562 37.753906 29.210938 C 37.78125 29.371094 37.898438 29.363281 38.105469 29.332031 C 38.386719 29.28125 39.929688 28.597656 39.996094 26.914062 C 40.105469 24.769531 38.058594 22.421875 34.441406 22.445312 M 7.613281 31.488281 C 6.460938 32.746094 4.851562 33.222656 4.160156 32.820312 C 3.414062 32.386719 3.707031 30.53125 5.125 29.203125 C 5.984375 28.390625 7.097656 27.640625 7.835938 27.179688 C 8.003906 27.078125 8.25 26.929688 8.550781 26.746094 C 8.601562 26.71875 8.628906 26.703125 8.628906 26.703125 L 8.804688 26.59375 C 9.324219 28.492188 8.828125 30.167969 7.613281 31.488281 M 16.015625 25.777344 C 15.613281 26.753906 14.773438 29.261719 14.261719 29.121094 C 13.824219 29.003906 13.554688 27.105469 14.175781 25.226562 C 14.488281 24.285156 15.15625 23.160156 15.542969 22.722656 C 16.171875 22.019531 16.863281 21.785156 17.03125 22.070312 C 17.242188 22.445312 16.265625 25.160156 16.015625 25.777344 M 22.949219 29.09375 C 22.78125 29.179688 22.621094 29.238281 22.546875 29.195312 C 22.496094 29.164062 22.621094 29.046875 22.621094 29.046875 C 22.621094 29.046875 23.492188 28.113281 23.835938 27.691406 C 24.03125 27.441406 24.265625 27.148438 24.515625 26.820312 L 24.515625 26.914062 C 24.515625 28.03125 23.433594 28.785156 22.949219 29.09375 M 28.296875 27.871094 C 28.175781 27.785156 28.195312 27.492188 28.613281 26.578125 C 28.773438 26.222656 29.152344 25.621094 29.804688 25.042969 C 29.875 25.277344 29.925781 25.503906 29.921875 25.71875 C 29.914062 27.128906 28.90625 27.652344 28.296875 27.871094 "/>
</g>
</svg>
