<?xml version="1.0" encoding="UTF-8"?>
<svg xmlns="http://www.w3.org/2000/svg" xmlns:xlink="http://www.w3.org/1999/xlink" width="40px" height="px" viewBox="0 0 40 40" version="1.1">
<g id="surface1">
<path style=" stroke:none;fill-rule:nonzero;fill:rgb(100%,27.843137%,52.156863%);fill-opacity:1;" d="M 5.242188 36.859375 L 4 3.839844 C 3.960938 2.75 4.800781 1.828125 5.890625 1.761719 L 33.96875 0.00390625 C 34.523438 -0.03125 35.066406 0.164062 35.472656 0.542969 C 35.878906 0.925781 36.109375 1.457031 36.105469 2.011719 L 36.105469 37.988281 C 36.105469 38.539062 35.882812 39.0625 35.484375 39.441406 C 35.089844 39.820312 34.554688 40.023438 34.003906 39.996094 L 7.160156 38.792969 C 6.117188 38.746094 5.28125 37.90625 5.242188 36.859375 "/>
<path style=" stroke:none;fill-rule:evenodd;fill:rgb(100%,100%,100%);fill-opacity:1;" d="M 31.761719 0.140625 L 27.898438 0.382812 L 27.710938 4.914062 C 27.703125 5.03125 27.765625 5.140625 27.871094 5.195312 C 27.972656 5.246094 28.097656 5.238281 28.191406 5.167969 L 29.949219 3.832031 L 31.4375 5.003906 C 31.53125 5.078125 31.65625 5.089844 31.757812 5.035156 C 31.863281 4.984375 31.929688 4.875 31.921875 4.757812 Z M 28.753906 15.320312 C 28.046875 15.871094 22.777344 16.246094 22.777344 15.464844 C 22.886719 12.476562 21.550781 12.347656 20.808594 12.347656 C 20.105469 12.347656 18.914062 12.558594 18.914062 14.160156 C 18.914062 15.789062 20.652344 16.710938 22.691406 17.789062 C 25.582031 19.324219 29.089844 21.183594 29.089844 25.855469 C 29.089844 30.335938 25.449219 32.804688 20.808594 32.804688 C 16.019531 32.804688 11.832031 30.867188 12.304688 24.148438 C 12.492188 23.363281 18.582031 23.550781 18.582031 24.148438 C 18.503906 26.921875 19.136719 27.738281 20.734375 27.738281 C 21.960938 27.738281 22.515625 27.0625 22.515625 25.925781 C 22.515625 24.203125 20.707031 23.1875 18.625 22.019531 C 15.808594 20.4375 12.492188 18.574219 12.492188 14.300781 C 12.492188 10.039062 15.421875 7.195312 20.660156 7.195312 C 25.894531 7.195312 28.753906 9.992188 28.753906 15.320312 "/>
</g>
</svg>
