<?xml version="1.0" encoding="UTF-8"?>
<svg xmlns="http://www.w3.org/2000/svg" xmlns:xlink="http://www.w3.org/1999/xlink" width="40px" height="px" viewBox="0 0 40 40" version="1.1">
<g id="surface1">
<path style=" stroke:none;fill-rule:evenodd;fill:rgb(0%,0%,0%);fill-opacity:1;" d="M 20.273438 39.117188 C 24.648438 23.371094 24.519531 23.300781 27.683594 12.078125 L 28.441406 12.519531 C 28.855469 12.757812 29.195312 12.5625 29.195312 12.085938 L 29.195312 6.734375 C 30.03125 3.773438 30.691406 1.488281 30.882812 0.800781 L 34.308594 0.800781 L 40 6.109375 L 36.261719 9.359375 L 39.089844 12.4375 L 20.457031 39.117188 C 20.367188 39.269531 20.242188 39.234375 20.269531 39.117188 Z M 20.273438 39.117188 "/>
<path style=" stroke:none;fill-rule:evenodd;fill:rgb(0%,0%,0%);fill-opacity:1;" d="M 22.308594 5.1875 C 22.476562 5.1875 22.613281 5.277344 22.613281 5.398438 L 22.613281 8.140625 C 22.613281 8.253906 22.488281 8.347656 22.316406 8.347656 L 17.71875 8.347656 C 17.546875 8.347656 17.40625 8.253906 17.40625 8.136719 L 17.40625 5.394531 C 17.40625 5.277344 17.546875 5.1875 17.71875 5.1875 L 22.316406 5.1875 Z M 27.988281 2.144531 L 22.925781 5.085938 C 22.984375 5.179688 23.019531 5.285156 23.019531 5.398438 L 23.019531 8.140625 C 23.019531 8.28125 22.960938 8.40625 22.863281 8.511719 L 27.972656 11.480469 C 28.308594 11.6875 28.605469 11.519531 28.605469 11.117188 L 28.605469 2.515625 C 28.605469 2.109375 28.308594 1.945312 27.972656 2.148438 Z M 16.992188 8.140625 L 16.992188 5.398438 C 16.992188 5.285156 17.027344 5.179688 17.085938 5.085938 L 12.023438 2.144531 C 11.675781 1.945312 11.390625 2.109375 11.390625 2.515625 L 11.390625 11.113281 C 11.390625 11.519531 11.675781 11.675781 12.023438 11.476562 L 17.136719 8.507812 C 17.046875 8.394531 16.992188 8.269531 16.992188 8.128906 Z M 16.992188 8.140625 "/>
<path style=" stroke:none;fill-rule:evenodd;fill:rgb(0%,0%,0%);fill-opacity:1;" d="M 19.539062 39.117188 L 19.726562 39.117188 C 15.351562 23.371094 15.476562 23.300781 12.316406 12.078125 L 11.558594 12.519531 C 11.144531 12.757812 10.804688 12.5625 10.804688 12.085938 L 10.804688 6.734375 C 9.960938 3.773438 9.300781 1.488281 9.105469 0.800781 L 5.683594 0.800781 L 0 6.109375 L 3.734375 9.359375 L 0.90625 12.433594 L 19.535156 39.113281 Z M 19.539062 39.117188 "/>
<path style=" stroke:none;fill-rule:nonzero;fill:rgb(0%,0%,0%);fill-opacity:1;" d="M 19.859375 14.074219 C 20.625 14.074219 21.242188 13.453125 21.242188 12.683594 C 21.242188 11.917969 20.625 11.292969 19.859375 11.292969 C 19.097656 11.292969 18.480469 11.917969 18.480469 12.683594 C 18.480469 13.453125 19.097656 14.074219 19.859375 14.074219 M 19.859375 22.34375 C 20.625 22.34375 21.242188 21.722656 21.242188 20.953125 C 21.242188 20.1875 20.625 19.5625 19.859375 19.5625 C 19.097656 19.5625 18.480469 20.1875 18.480469 20.953125 C 18.480469 21.722656 19.097656 22.34375 19.859375 22.34375 M 19.859375 30.613281 C 20.625 30.613281 21.242188 29.992188 21.242188 29.222656 C 21.242188 28.457031 20.625 27.832031 19.859375 27.832031 C 19.097656 27.832031 18.480469 28.457031 18.480469 29.222656 C 18.480469 29.992188 19.097656 30.613281 19.859375 30.613281 "/>
</g>
</svg>
