<?xml version="1.0" encoding="UTF-8"?>
<svg xmlns="http://www.w3.org/2000/svg" xmlns:xlink="http://www.w3.org/1999/xlink" width="40px" height="px" viewBox="0 0 40 40" version="1.1">
<defs>
<linearGradient id="linear0" gradientUnits="userSpaceOnUse" x1="49.198" y1="48.925" x2="85.103" y2="63.983" gradientTransform="matrix(0.4,0,0,0.4,0,0)">
<stop offset="0" style="stop-color:rgb(14.117647%,57.647059%,38.039216%);stop-opacity:1;"/>
<stop offset="1" style="stop-color:rgb(24.313725%,81.176471%,55.686275%);stop-opacity:1;"/>
</linearGradient>
<linearGradient id="linear1" gradientUnits="userSpaceOnUse" x1="33.279" y1="27.129" x2="49.654" y2="57.954" gradientTransform="matrix(0.4,0,0,0.4,0,0)">
<stop offset="0" style="stop-color:rgb(0%,0%,0%);stop-opacity:0.2;"/>
<stop offset="1" style="stop-color:rgb(0%,0%,0%);stop-opacity:0;"/>
</linearGradient>
</defs>
<g id="surface1">
<path style=" stroke:none;fill-rule:nonzero;fill:url(#linear0);" d="M 23.15625 39.335938 C 22.136719 40.621094 20.0625 39.917969 20.039062 38.273438 L 19.679688 14.242188 L 35.839844 14.242188 C 38.765625 14.242188 40.398438 17.621094 38.578125 19.914062 Z M 23.15625 39.335938 "/>
<path style=" stroke:none;fill-rule:nonzero;fill:url(#linear1);" d="M 23.15625 39.335938 C 22.136719 40.621094 20.0625 39.917969 20.039062 38.273438 L 19.679688 14.242188 L 35.839844 14.242188 C 38.765625 14.242188 40.398438 17.621094 38.578125 19.914062 Z M 23.15625 39.335938 "/>
<path style=" stroke:none;fill-rule:nonzero;fill:rgb(24.313725%,81.176471%,55.686275%);fill-opacity:1;" d="M 16.585938 0.664062 C 17.609375 -0.621094 19.679688 0.0820312 19.703125 1.726562 L 19.863281 25.757812 L 3.902344 25.757812 C 0.976562 25.757812 -0.65625 22.378906 1.164062 20.085938 Z M 16.585938 0.664062 "/>
</g>
</svg>
