<?xml version="1.0" encoding="UTF-8"?>
<svg xmlns="http://www.w3.org/2000/svg" xmlns:xlink="http://www.w3.org/1999/xlink" width="40px" height="px" viewBox="0 0 40 40" version="1.1">
<g id="surface1">
<path style=" stroke:none;fill-rule:nonzero;fill:rgb(2.352941%,71.372549%,83.137255%);fill-opacity:1;" d="M 20 8 C 14.667969 8 11.332031 10.667969 10 15.996094 C 12 13.332031 14.332031 12.332031 17 13 C 18.523438 13.378906 19.609375 14.480469 20.8125 15.703125 C 22.773438 17.695312 25.042969 19.996094 30 19.996094 C 35.332031 19.996094 38.667969 17.332031 40 12 C 38 14.664062 35.667969 15.664062 33 15 C 31.480469 14.617188 30.390625 13.515625 29.1875 12.292969 C 27.226562 10.304688 24.957031 8 20 8 M 10 19.996094 C 4.667969 19.996094 1.332031 22.664062 0 27.996094 C 2 25.328125 4.332031 24.328125 7 24.996094 C 8.519531 25.375 9.609375 26.480469 10.8125 27.699219 C 12.773438 29.691406 15.042969 31.992188 20 31.992188 C 25.332031 31.992188 28.667969 29.328125 30 23.996094 C 28 26.660156 25.667969 27.660156 23 26.996094 C 21.480469 26.613281 20.390625 25.511719 19.1875 24.289062 C 17.226562 22.300781 14.957031 19.996094 10 19.996094 "/>
</g>
</svg>
