<?xml version="1.0" encoding="UTF-8"?>
<svg xmlns="http://www.w3.org/2000/svg" xmlns:xlink="http://www.w3.org/1999/xlink" width="40px" height="px" viewBox="0 0 40 40" version="1.1">
<g id="surface1">
<path style=" stroke:none;fill-rule:nonzero;fill:rgb(100%,79.215686%,15.686275%);fill-opacity:1;" d="M 25.796875 15.496094 C 25.796875 16.769531 25.027344 17.917969 23.851562 18.40625 C 22.675781 18.894531 21.320312 18.625 20.421875 17.722656 C 19.414062 16.714844 19.207031 15.15625 19.917969 13.921875 C 20.632812 12.6875 22.085938 12.085938 23.460938 12.457031 C 24.839844 12.824219 25.796875 14.070312 25.796875 15.496094 Z M 25.796875 15.496094 "/>
<path style=" stroke:none;fill-rule:nonzero;fill:rgb(14.901961%,77.647059%,85.490196%);fill-opacity:1;" d="M 17.351562 21.367188 C 15.609375 21.367188 14.203125 22.773438 14.203125 24.515625 C 14.203125 26.253906 15.609375 27.664062 17.351562 27.664062 C 19.089844 27.664062 20.5 26.253906 20.5 24.515625 C 20.5 22.773438 19.089844 21.367188 17.351562 21.367188 Z M 17.351562 21.367188 "/>
<path style=" stroke:none;fill-rule:nonzero;fill:rgb(100%,79.215686%,15.686275%);fill-opacity:1;" d="M 29.171875 25.585938 C 27.90625 26.40625 26.5 26.980469 25.019531 27.277344 C 25.449219 26.054688 25.589844 24.753906 25.4375 23.46875 C 27.976562 22.582031 29.941406 20.535156 30.726562 17.960938 C 31.933594 14.007812 30.097656 9.761719 26.394531 7.929688 C 22.6875 6.097656 18.199219 7.214844 15.789062 10.574219 C 14.1875 10.753906 12.628906 11.210938 11.179688 11.917969 C 12.96875 6.15625 18.75 2.609375 24.695312 3.628906 C 30.640625 4.648438 34.914062 9.917969 34.679688 15.945312 C 34.527344 19.867188 32.46875 23.464844 29.171875 25.585938 Z M 11.324219 14.109375 L 14.273438 14.46875 C 14.339844 13.898438 14.464844 13.335938 14.644531 12.792969 C 13.480469 13.0625 12.359375 13.507812 11.324219 14.109375 Z M 11.324219 14.109375 "/>
<path style=" stroke:none;fill-rule:nonzero;fill:rgb(14.901961%,77.647059%,85.490196%);fill-opacity:1;" d="M 10.808594 14.425781 C 12.082031 13.597656 13.5 13.019531 14.988281 12.722656 C 14.539062 13.941406 14.378906 15.25 14.515625 16.542969 C 11.984375 17.441406 10.035156 19.496094 9.261719 22.066406 C 8.488281 24.640625 8.984375 27.425781 10.597656 29.574219 C 12.214844 31.722656 14.753906 32.972656 17.441406 32.941406 C 20.128906 32.910156 22.640625 31.605469 24.207031 29.421875 C 25.808594 29.246094 27.367188 28.796875 28.816406 28.09375 C 27.652344 31.835938 24.734375 34.777344 21 35.972656 C 17.269531 37.167969 13.1875 36.46875 10.066406 34.097656 C 6.945312 31.726562 5.171875 27.984375 5.320312 24.066406 C 5.46875 20.152344 7.515625 16.550781 10.808594 14.425781 Z M 28.65625 25.902344 L 28.597656 25.929688 Z M 28.65625 25.902344 "/>
</g>
</svg>
