<?xml version="1.0" encoding="UTF-8"?>
<svg xmlns="http://www.w3.org/2000/svg" xmlns:xlink="http://www.w3.org/1999/xlink" width="40px" height="px" viewBox="0 0 40 40" version="1.1">
<g id="surface1">
<rect x="0" y="0" width="40" height="40" style="fill:rgb(0.392157%,47.843137%,79.607843%);fill-opacity:1;stroke:none;"/>
<path style=" stroke:none;fill-rule:nonzero;fill:rgb(100%,100%,100%);fill-opacity:1;" d="M 19.207031 14.8125 L 21.125 14.8125 L 21.125 18.125 L 15.9375 18.125 L 15.9375 32.863281 L 15.800781 32.902344 C 15.613281 32.949219 13.144531 32.949219 12.613281 32.894531 L 12.1875 32.855469 L 12.1875 18.125 L 7 18.125 L 7 14.8125 L 8.644531 14.792969 C 9.542969 14.78125 11.855469 14.78125 13.78125 14.792969 C 15.707031 14.804688 18.144531 14.8125 19.207031 14.8125 M 33.851562 31.300781 C 33.085938 32.105469 32.269531 32.554688 30.90625 32.925781 C 30.3125 33.085938 30.210938 33.09375 28.875 33.085938 C 27.539062 33.082031 27.429688 33.082031 26.78125 32.914062 C 25.101562 32.480469 23.742188 31.636719 22.820312 30.445312 C 22.554688 30.105469 22.125 29.40625 22.125 29.320312 C 22.125 29.292969 22.1875 29.238281 22.269531 29.199219 C 22.351562 29.164062 22.519531 29.054688 22.65625 28.976562 C 22.792969 28.894531 23.042969 28.742188 23.210938 28.65625 C 23.382812 28.570312 23.867188 28.28125 24.292969 28.023438 C 24.71875 27.769531 25.105469 27.5625 25.148438 27.5625 C 25.195312 27.5625 25.273438 27.652344 25.335938 27.757812 C 25.710938 28.386719 26.585938 29.195312 27.207031 29.46875 C 27.585938 29.632812 28.429688 29.8125 28.835938 29.8125 C 29.210938 29.8125 29.898438 29.652344 30.269531 29.480469 C 30.664062 29.300781 30.863281 29.117188 31.101562 28.757812 C 31.261719 28.5 31.28125 28.429688 31.273438 27.945312 C 31.273438 27.492188 31.25 27.367188 31.125 27.164062 C 30.773438 26.585938 30.300781 26.289062 28.375 25.4375 C 26.386719 24.554688 25.492188 24.03125 24.769531 23.324219 C 24.230469 22.800781 24.125 22.65625 23.789062 22 C 23.351562 21.15625 23.292969 20.882812 23.289062 19.625 C 23.28125 18.742188 23.300781 18.457031 23.394531 18.15625 C 23.523438 17.707031 23.949219 16.835938 24.144531 16.617188 C 24.542969 16.152344 24.6875 16.007812 24.96875 15.773438 C 25.820312 15.074219 27.144531 14.613281 28.414062 14.570312 C 28.554688 14.570312 29.03125 14.59375 29.476562 14.625 C 30.75 14.730469 31.617188 15.042969 32.457031 15.710938 C 33.085938 16.210938 34.042969 17.386719 33.949219 17.542969 C 33.886719 17.636719 31.394531 19.300781 31.230469 19.351562 C 31.132812 19.382812 31.0625 19.34375 30.925781 19.179688 C 30.074219 18.164062 29.730469 17.945312 28.90625 17.894531 C 28.320312 17.855469 28.007812 17.925781 27.613281 18.1875 C 27.199219 18.460938 27 18.882812 27 19.460938 C 27.007812 20.3125 27.332031 20.710938 28.53125 21.308594 C 29.304688 21.6875 29.96875 22 30.019531 22 C 30.09375 22 31.699219 22.800781 32.117188 23.050781 C 34.070312 24.195312 34.863281 25.367188 35.070312 27.394531 C 35.21875 28.917969 34.789062 30.3125 33.851562 31.300781 "/>
</g>
</svg>
