<?xml version="1.0" encoding="UTF-8"?>
<svg xmlns="http://www.w3.org/2000/svg" xmlns:xlink="http://www.w3.org/1999/xlink" width="40px" height="px" viewBox="0 0 40 40" version="1.1">
<defs>
<linearGradient id="linear0" gradientUnits="userSpaceOnUse" x1="0.187" y1="17.805" x2="51.038" y2="85.688" gradientTransform="matrix(0.4,0,0,0.4,0,0)">
<stop offset="0" style="stop-color:rgb(25.490196%,81.960784%,100%);stop-opacity:1;"/>
<stop offset="1" style="stop-color:rgb(74.117647%,20.392157%,99.607843%);stop-opacity:1;"/>
</linearGradient>
<linearGradient id="linear1" gradientUnits="userSpaceOnUse" x1="54.398" y1="1.872" x2="64.98" y2="73.225" gradientTransform="matrix(0.4,0,0,0.4,0,0)">
<stop offset="0" style="stop-color:rgb(100%,91.764706%,51.372549%);stop-opacity:1;"/>
<stop offset="0.083" style="stop-color:rgb(100%,86.666667%,20.784314%);stop-opacity:1;"/>
<stop offset="1" style="stop-color:rgb(100%,65.882353%,0%);stop-opacity:1;"/>
</linearGradient>
</defs>
<g id="surface1">
<path style=" stroke:none;fill-rule:nonzero;fill:url(#linear0);" d="M 39.539062 5.921875 L 21.09375 39.476562 C 20.917969 39.796875 20.585938 40 20.222656 40 C 19.859375 40 19.523438 39.804688 19.347656 39.484375 L 0.535156 5.921875 C 0.113281 5.171875 0.746094 4.261719 1.582031 4.414062 L 20.046875 7.773438 C 20.164062 7.792969 20.285156 7.792969 20.402344 7.773438 L 38.484375 4.417969 C 39.320312 4.265625 39.953125 5.167969 39.539062 5.921875 "/>
<path style=" stroke:none;fill-rule:nonzero;fill:url(#linear1);" d="M 28.84375 0.0117188 L 15.195312 2.730469 C 15.085938 2.753906 14.984375 2.8125 14.914062 2.894531 C 14.839844 2.980469 14.796875 3.089844 14.789062 3.203125 L 13.949219 17.628906 C 13.941406 17.789062 14.007812 17.945312 14.125 18.050781 C 14.246094 18.152344 14.410156 18.191406 14.5625 18.15625 L 18.363281 17.265625 C 18.71875 17.179688 19.039062 17.5 18.96875 17.863281 L 17.839844 23.488281 C 17.761719 23.867188 18.113281 24.191406 18.476562 24.078125 L 20.824219 23.351562 C 21.1875 23.242188 21.535156 23.566406 21.460938 23.945312 L 19.664062 32.78125 C 19.554688 33.332031 20.273438 33.632812 20.578125 33.160156 L 20.777344 32.84375 L 31.902344 10.261719 C 32.085938 9.882812 31.765625 9.449219 31.359375 9.53125 L 27.445312 10.296875 C 27.078125 10.371094 26.765625 10.023438 26.871094 9.65625 L 29.421875 0.652344 C 29.527344 0.285156 29.210938 -0.0625 28.84375 0.0117188 "/>
</g>
</svg>
