<?xml version="1.0" encoding="UTF-8"?>
<svg xmlns="http://www.w3.org/2000/svg" xmlns:xlink="http://www.w3.org/1999/xlink" width="40px" height="px" viewBox="0 0 40 40" version="1.1">
<g id="surface1">
<path style=" stroke:none;fill-rule:nonzero;fill:rgb(100%,100%,100%);fill-opacity:1;" d="M 20.078125 0 L 2.398438 10 L 2.398438 30 L 20.078125 40 L 37.753906 30 L 37.753906 10 Z M 20.078125 0 "/>
<path style=" stroke:none;fill-rule:nonzero;fill:rgb(55.686275%,83.921569%,98.431373%);fill-opacity:1;" d="M 5.558594 29.308594 L 19.492188 37.195312 L 19.492188 31.054688 L 10.808594 26.277344 Z M 4.601562 28.445312 L 4.601562 11.960938 L 9.703125 14.902344 L 9.703125 25.5 Z M 34.652344 29.308594 L 20.71875 37.195312 L 20.71875 31.054688 L 29.398438 26.277344 Z M 35.605469 28.445312 L 35.605469 11.960938 L 30.507812 14.902344 L 30.507812 25.5 Z M 35.011719 10.894531 L 20.71875 2.808594 L 20.71875 8.742188 L 29.875 13.78125 L 29.941406 13.820312 Z M 5.199219 10.894531 L 19.492188 2.808594 L 19.492188 8.742188 L 10.335938 13.78125 L 10.265625 13.820312 Z M 5.199219 10.894531 "/>
<path style=" stroke:none;fill-rule:nonzero;fill:rgb(10.980392%,47.058824%,75.294118%);fill-opacity:1;" d="M 20.71875 29.65625 L 29.28125 24.945312 L 29.28125 15.613281 L 20.71875 20.558594 Z M 19.492188 29.65625 L 10.925781 24.945312 L 10.925781 15.613281 L 19.492188 20.558594 Z M 28.703125 14.535156 L 20.101562 9.804688 L 11.503906 14.535156 L 20.101562 19.5 Z M 28.703125 14.535156 "/>
</g>
</svg>
