<?xml version="1.0" encoding="UTF-8"?>
<svg xmlns="http://www.w3.org/2000/svg" xmlns:xlink="http://www.w3.org/1999/xlink" width="40px" height="px" viewBox="0 0 40 40" version="1.1">
<g id="surface1">
<path style=" stroke:none;fill-rule:nonzero;fill:rgb(7.843137%,14.901961%,25.490196%);fill-opacity:1;" d="M 37.289062 12.597656 L 30.960938 5.992188 L 9.335938 5.992188 L 2.699219 12.597656 L 19.382812 32.6875 Z M 37.289062 12.597656 "/>
<path style=" stroke:none;fill-rule:evenodd;fill:rgb(15.294118%,30.196078%,50.980392%);fill-opacity:1;" d="M 22.457031 5.136719 L 21.28125 5.8125 L 20.996094 5.316406 L 20.316406 5.710938 L 19.980469 5.136719 L 18.945312 5.734375 L 18.597656 5.136719 L 18.476562 5.207031 L 18.097656 4.550781 L 17.921875 4.652344 L 17.601562 4.097656 L 2.203125 12.988281 L 2.699219 13.847656 L 2.871094 13.746094 L 3.195312 14.300781 L 3.316406 14.230469 L 3.695312 14.886719 L 3.847656 14.796875 L 4.085938 15.214844 L 4.144531 15.179688 L 4.371094 15.574219 L 4.867188 16.4375 L 22.953125 5.996094 Z M 28.992188 22.59375 L 22.261719 22.59375 L 22.261719 23.261719 L 13.761719 23.261719 L 35.488281 10.71875 L 33.070312 6.53125 L 32.585938 6.8125 L 32.253906 6.238281 L 26.820312 9.375 L 27.152344 9.949219 L 9.039062 20.40625 L 11.457031 24.59375 L 11.554688 24.535156 L 11.554688 25.824219 L 13.316406 25.824219 L 13.316406 27.949219 L 25.890625 27.949219 L 25.890625 25.824219 L 27.78125 25.824219 L 27.78125 23.316406 L 28.992188 23.316406 Z M 28.992188 22.59375 "/>
<path style=" stroke:none;fill-rule:evenodd;fill:rgb(18.823529%,40.784314%,71.764706%);fill-opacity:1;" d="M 31.8125 4 L 8.511719 4 L 0 12.46875 L 19.328125 35.746094 L 20.871094 34.015625 L 40 12.546875 Z M 30.960938 5.992188 L 37.289062 12.597656 L 19.382812 32.6875 L 2.699219 12.597656 L 9.335938 5.992188 Z M 30.960938 5.992188 "/>
</g>
</svg>
